<?xml version="1.0" encoding="UTF-8" standalone="no"?><!DOCTYPE svg PUBLIC "-//W3C//DTD SVG 1.1//EN" "http://www.w3.org/Graphics/SVG/1.1/DTD/svg11.dtd"><svg width="100%" height="100%" viewBox="0 0 4267 4267" version="1.1" xmlns="http://www.w3.org/2000/svg" xmlns:xlink="http://www.w3.org/1999/xlink" xml:space="preserve" xmlns:serif="http://www.serif.com/" style="fill-rule:evenodd;clip-rule:evenodd;stroke-linejoin:round;stroke-miterlimit:2;"><path d="M2501.503,1358.984c-44.282,66.152 -67.951,143.947 -67.951,223.521l-2.389,-0.941c-0.167,53.122 10.279,105.743 30.614,154.872c20.391,49.074 50.282,93.654 87.953,131.14c37.726,37.486 82.507,67.147 131.734,87.332c49.282,20.131 102.064,30.331 155.292,30c79.729,0 157.681,-23.562 223.964,-67.817c66.339,-44.194 118.011,-107.07 148.514,-180.546c30.503,-73.523 38.504,-154.486 22.947,-232.504c-15.558,-78.072 -53.95,-149.768 -110.344,-206.051c-56.394,-56.229 -128.234,-94.602 -206.463,-110.129c-78.174,-15.521 -159.236,-7.541 -232.91,22.906c-73.673,30.494 -136.678,82.066 -180.96,148.218Zm780.903,-74.363c58.95,88.225 90.397,191.863 90.286,297.884c-0.222,141.95 -56.838,277.97 -157.403,378.339c-100.565,100.308 -236.855,156.814 -379.034,157.092c-106.232,0.054 -210.13,-31.272 -298.471,-90.107c-88.397,-58.889 -157.292,-142.566 -197.962,-240.491c-40.726,-97.925 -51.394,-205.719 -30.67,-309.689c20.668,-104.024 71.84,-199.512 146.958,-274.538c75.117,-74.965 170.848,-125.982 275.024,-146.668c104.231,-20.625 212.186,-9.977 310.361,30.609c98.12,40.647 181.96,109.405 240.91,197.57Zm-1943.452,1950.312l-262.69,-108.41c38.059,79.182 98.453,145.558 173.683,191.085c75.228,45.521 162.126,68.203 250.078,65.265c87.953,-2.884 173.182,-31.279 245.244,-81.68c72.007,-50.408 127.845,-120.662 160.57,-202.226c32.725,-81.517 41.004,-170.731 23.78,-256.905c-17.224,-86.113 -59.228,-165.35 -120.789,-228.07c-61.561,-62.768 -140.124,-106.237 -226.076,-125.204c-85.896,-18.912 -175.516,-12.475 -257.801,18.52l270.858,111.788c81.841,33.993 146.791,99.035 180.572,180.823c33.726,81.788 33.615,173.615 -0.5,255.294c-34.058,81.68 -99.231,146.444 -181.182,180.16c-81.952,33.716 -173.961,33.546 -255.746,-0.44Zm789.905,-3234.933c-536.771,0.115 -1053.872,201.895 -1448.353,565.207c-394.479,363.373 -637.446,861.595 -680.506,1395.638l1144.825,472.717c100.175,-68.65 218.908,-105.303 340.419,-105.08l33.781,0l508.934,-736.33l0,-10.586c0.556,-158.926 48.338,-314.129 137.235,-446.048c88.897,-131.857 214.908,-234.5 362.255,-294.94c147.291,-60.439 309.25,-75.967 465.375,-44.58c156.126,31.38 299.471,108.18 411.871,220.8c112.399,112.566 188.85,255.904 219.742,411.831c30.836,155.927 14.724,317.507 -46.337,464.29c-61.117,146.776 -164.404,272.203 -296.86,360.482c-132.456,88.219 -288.137,135.357 -447.43,135.357l-18.334,0l-724.288,517.073l0,28.389c0.389,149.937 -55.171,294.608 -155.847,405.902c-100.675,111.233 -239.3,181.101 -388.758,195.959c-149.457,14.864 -299.137,-26.338 -419.815,-115.612c-120.677,-89.275 -203.74,-220.137 -233.021,-367.19l-818.406,-337.306c108.288,381.554 321.14,725.459 614.61,992.951c293.416,267.492 655.782,447.929 1046.372,521.121c390.591,73.198 793.905,36.213 1164.548,-106.853c370.701,-143.006 694.007,-386.434 933.695,-702.777c239.633,-316.404 386.09,-693.246 422.927,-1088.162c36.781,-394.916 -37.504,-792.275 -214.575,-1147.329c-177.071,-355.101 -449.874,-653.818 -787.793,-862.644c-337.864,-208.826 -724.368,-322.333 -1121.792,-322.279l-4.475,-0Z" style="fill:#fff;fill-rule:nonzero;"/></svg>