<?xml version="1.0" encoding="UTF-8" standalone="no"?><!DOCTYPE svg PUBLIC "-//W3C//DTD SVG 1.1//EN" "http://www.w3.org/Graphics/SVG/1.1/DTD/svg11.dtd"><svg width="400px" height="400px" viewBox="0 0 1667 1667" version="1.1" xmlns="http://www.w3.org/2000/svg" xmlns:xlink="http://www.w3.org/1999/xlink" xml:space="preserve" xmlns:serif="http://www.serif.com/" style="fill-rule:evenodd;clip-rule:evenodd;stroke-linejoin:round;stroke-miterlimit:2;"><g id="layer1"><path id="path2" d="M1639.889,847.012c4.196,43.47 3.273,79.445 -7.116,121.935c-11.83,48.387 -62.309,74.859 -118.753,82.469c-56.444,7.61 -171.24,4.399 -210.197,5.32c-40.759,0.964 -241.209,-12.14 -257.84,26.74c-16.63,38.88 1.635,85.875 12.537,118.875c10.903,33 33.508,79.395 33.508,79.395c0,0 27.607,83.828 28.129,130.263c0.503,44.795 1.05,84.328 -14.652,120.013c-15.702,35.685 -37.361,106.496 -83.819,123.076c-32.432,11.574 -73.986,6.895 -102.569,-12.308c-71.423,-62.381 -46.445,-152.692 -72.606,-236.966c-15.861,-46.968 -54.086,-113.077 -73.973,-157.927c-20.402,-46.009 -60.863,-105.613 -91.383,-151.524c-29.753,-44.757 -144.238,-172.65 -191.899,-218.151c-51.017,-48.706 -136.967,-139.704 -138.087,-199.585c-4.74,-253.451 149.911,-577.595 281.058,-579.693c131.147,-2.098 585.53,-1.502 664.344,0c78.814,1.502 105.139,41.778 149.648,101.574c17.771,24.08 28.792,53.311 43.68,84.004c5.266,10.857 13.618,29.702 22.712,51.069l-350.019,0c-33.407,0 -33.41,47.244 -0.003,47.244l316.532,0l53.196,0.256c9.992,24.737 18.831,47.77 23.27,61.525c6.043,18.724 20.882,69.739 34.786,123.19l-24.372,-0.128l-395.059,0c-33.407,0 -33.407,47.244 -0,47.244l37.967,0l393.262,0c7.105,29.703 12.983,57.355 15.853,77.486c6.033,42.325 11.692,77.091 16.019,107.391l-11.335,-0.035l-402.101,0c-33.407,0 -33.406,47.245 0,47.245l39.009,0.001l380.27,0Z" style="fill:#fff;"/><path id="path3" d="M24.713,531.964c-3.137,-39.242 21.423,-101.738 35.359,-146.036c17.351,-55.155 91.444,-234.263 116.444,-280.653c24.51,-45.482 65.319,-97.108 114.702,-99.565c51.796,-2.578 70.598,7.661 107.512,17.042c29.328,7.453 57.249,36.756 47.076,71.829c-14.308,49.331 -43.37,105.87 -65.717,158.528c-25.483,60.047 -52.459,115.102 -77.953,179.496c-20.03,50.594 -39.736,89.593 -62.567,150.777c-11.869,31.807 -25.143,73.64 -57.439,84.107c-35.536,11.517 -77.223,-13.434 -105.471,-37.878c-27.879,-24.125 -48.371,-52.923 -51.946,-97.647Z" style="fill:#fff;fill-rule:nonzero;"/></g></svg>