<?xml version="1.0" encoding="UTF-8" standalone="no"?><!DOCTYPE svg PUBLIC "-//W3C//DTD SVG 1.1//EN" "http://www.w3.org/Graphics/SVG/1.1/DTD/svg11.dtd"><svg width="1748px" height="527px" viewBox="0 0 1748 527" version="1.1" xmlns="http://www.w3.org/2000/svg" xmlns:xlink="http://www.w3.org/1999/xlink" xml:space="preserve" xmlns:serif="http://www.serif.com/" style="fill-rule:evenodd;clip-rule:evenodd;stroke-linecap:round;stroke-linejoin:round;stroke-miterlimit:1.5;"><g id="Logo_00000003095499129166098150000008684721280523552656_"><g id="Text_00000114759095882757165470000002338931282063078079_"><path d="M397.292,330.785l0,-295.833l50.458,-0l0,295.833l-50.458,0Zm23.583,-114.75l0,-48.417l52.292,0c6.25,0 11.125,-2.125 14.667,-6.417c3.542,-4.292 5.292,-10.208 5.292,-17.792l0,-34.792c0,-8 -1.75,-14.208 -5.208,-18.625c-3.458,-4.417 -8.375,-6.625 -14.75,-6.625l-52.292,0l0,-48.417l53.708,0c14.792,0 27.333,2.583 37.625,7.75c10.292,5.167 18.208,12.667 23.708,22.583c5.5,9.917 8.25,21.917 8.25,36l0,49.833c0,13.708 -2.75,25.417 -8.25,35.083c-5.5,9.708 -13.417,17.083 -23.792,22.167c-10.375,5.083 -22.875,7.625 -37.542,7.625l-53.708,0l0,0.042Zm240.542,117.792c-15.875,0 -29.458,-2.75 -40.792,-8.25c-11.333,-5.5 -19.958,-13.417 -25.958,-23.792c-5.958,-10.375 -8.958,-22.875 -8.958,-37.542l0,-162.75c0,-14.792 3,-27.375 8.958,-37.75c5.958,-10.375 14.625,-18.292 25.958,-23.708c11.333,-5.417 24.917,-8.125 40.792,-8.125c15.875,0 29.458,2.708 40.792,8.125c11.333,5.417 19.958,13.333 25.958,23.708c5.958,10.375 8.958,22.958 8.958,37.75l0,162.75c0,14.667 -3,27.167 -8.958,37.542c-5.958,10.375 -14.625,18.292 -25.958,23.792c-11.333,5.5 -24.917,8.25 -40.792,8.25Zm0,-50.458c7.875,0 13.917,-2.25 18.208,-6.708c4.292,-4.458 6.417,-10.792 6.417,-18.917l0,-150.167c0,-8 -2.125,-14.25 -6.417,-18.708c-4.292,-4.458 -10.333,-6.708 -18.208,-6.708c-7.75,0 -13.75,2.25 -18,6.708c-4.25,4.458 -6.417,10.708 -6.417,18.708l0,150.167c0,8.125 2.125,14.458 6.417,18.917c4.292,4.458 10.25,6.708 18,6.708Zm118.25,47.417l0,-296.042l49.458,0l0,296l-49.458,0l0,0.042Zm22.583,-125.125l0,-48.417l53.292,0c6.625,0 11.792,-1.75 15.458,-5.208c3.667,-3.458 5.5,-8.25 5.5,-14.333l0,-32.958c0,-6.792 -1.833,-12.083 -5.5,-15.875c-3.667,-3.792 -8.833,-5.708 -15.458,-5.708l-53.292,0l0,-48.417l50.25,0c16,0 29.667,2.625 41,7.833c11.333,5.208 19.958,12.833 25.958,22.875c5.958,10.042 8.958,22.167 8.958,36.417l0,34.583c0,14.667 -3,27.125 -8.958,37.417c-5.958,10.292 -14.625,18.167 -25.958,23.583c-11.333,5.417 -25,8.125 -41,8.125l-50.25,0l0,0.083Zm80.375,125.125l-39.25,-134.292l46.167,-9.375l47.208,143.625l-54.125,0l-0,0.042Zm75.292,-247.417l0,-48.417l148.125,0l0,48.417l-148.125,0Zm48.833,247.417l0,-271l50.458,-0l0,271l-50.458,0Zm101.167,0l70.583,-295.833l35.417,-0l70.583,295.833l-50.042,0l-38.25,-193.875l-38.25,193.875l-50.042,0Zm48,-46l0,-47.208l80.583,0l0,47.208l-80.583,0Zm160.958,46l0,-295.833l50.458,-0l0,295.833l-50.458,0Zm20.75,0l0,-48.417l106.625,0l0,48.417l-106.625,0Zm238.792,0l0,-46.208l74.5,-103.75c11.375,-15.75 19.667,-29.792 24.917,-42.125c5.25,-12.333 7.875,-23.042 7.875,-32.125l0,-3.875c0,-6.792 -1.875,-12 -5.583,-15.667c-3.75,-3.667 -9,-5.5 -15.75,-5.5c-7.625,0 -13.542,2.333 -17.667,7c-4.125,4.667 -6.25,11.292 -6.25,19.833l0,10.583l-64.083,0l0,-10.542c0,-24.292 7.542,-43.083 22.625,-56.458c15.083,-13.375 36.458,-20.042 64.083,-20.042c27.625,0 49,6.167 64.083,18.5c15.083,12.333 22.625,29.833 22.625,52.5l0,3.875c0,10.833 -2.958,23.375 -8.917,37.542c-5.917,14.167 -14.917,30.292 -26.958,48.333l-58.75,88.5l94.083,0l0,49.625l-170.833,0Z" style="fill:#fff;fill-rule:nonzero;"/><g opacity="0.6"><path d="M432.208,494.369c-6.958,0 -12.958,-1.5 -18,-4.458c-5.042,-2.958 -8.958,-7.167 -11.708,-12.625c-2.75,-5.458 -4.125,-11.958 -4.125,-19.583l0,-45.625c0,-7.625 1.375,-14.208 4.125,-19.625c2.75,-5.458 6.667,-9.667 11.708,-12.625c5.042,-2.958 11.042,-4.458 18,-4.458c6.583,0 12.292,1.333 17.125,4c4.833,2.667 8.667,6.583 11.5,11.667c2.833,5.125 4.5,11.25 4.958,18.5l-13.708,0c-0.5,-4.417 -1.583,-8.208 -3.375,-11.333c-1.75,-3.125 -4.042,-5.5 -6.875,-7.167c-2.792,-1.667 -6.042,-2.5 -9.667,-2.5c-6.167,0 -11.042,2.125 -14.667,6.333c-3.625,4.208 -5.458,9.958 -5.458,17.25l0,45.625c0,7.292 1.833,13 5.458,17.208c3.625,4.208 8.542,6.292 14.667,6.292c5.458,0 9.958,-1.792 13.5,-5.417c3.542,-3.625 5.667,-8.792 6.375,-15.583l13.708,0c-0.5,7.208 -2.167,13.375 -5,18.5c-2.875,5.125 -6.708,9 -11.5,11.667c-4.792,2.625 -10.5,3.958 -17.042,3.958Zm87.083,-0c-7.333,0 -13.583,-1.417 -18.792,-4.292c-5.208,-2.875 -9.208,-7 -12,-12.375c-2.792,-5.375 -4.167,-11.875 -4.167,-19.417l0,-46.833c0,-7.542 1.375,-14 4.167,-19.417c2.792,-5.417 6.792,-9.542 12,-12.375c5.208,-2.875 11.458,-4.292 18.792,-4.292c7.333,0 13.583,1.417 18.792,4.292c5.208,2.875 9.208,7 12,12.375c2.792,5.375 4.167,11.875 4.167,19.417l0,46.833c0,7.542 -1.375,14 -4.167,19.417c-2.792,5.417 -6.792,9.542 -12,12.375c-5.208,2.875 -11.5,4.292 -18.792,4.292Zm0,-13.208c6.625,0 11.792,-2 15.542,-5.958c3.75,-4 5.625,-9.458 5.625,-16.375l0,-47.792c0,-7 -1.875,-12.5 -5.625,-16.458c-3.75,-3.958 -8.917,-5.917 -15.542,-5.917c-6.625,0 -11.833,1.958 -15.583,5.917c-3.75,3.958 -5.667,9.417 -5.667,16.458l0,47.792c0,6.958 1.875,12.417 5.667,16.375c3.75,3.958 8.958,5.958 15.583,5.958Zm102.25,-24.792l30.458,-79.792l13.083,0l0,116.583l-13.167,0l0,-92.375l1.042,5.125l-26.542,70.333l-9.792,0l-26.542,-68.708l1.125,-6.75l0,92.375l-13.25,0l0,-116.583l13.167,0l30.417,79.792Zm113.625,0l30.458,-79.792l13.083,0l0,116.583l-13.167,0l0,-92.375l1.042,5.125l-26.542,70.333l-9.792,0l-26.542,-68.708l1.125,-6.75l0,92.375l-13.25,0l0,-116.583l13.167,0l30.417,79.792Zm102.542,38c-11.083,0 -19.458,-2.958 -25.125,-8.958c-5.708,-5.958 -8.542,-14.667 -8.542,-26.167l0,-82.667l13.708,0l0,83.125c0,7 1.667,12.292 5.042,15.875c3.375,3.583 8.333,5.375 14.917,5.375c6.625,0 11.625,-1.792 15.042,-5.375c3.375,-3.583 5.083,-8.875 5.083,-15.875l0,-83.125l13.708,0l0,82.667c0,11.5 -2.875,20.208 -8.625,26.167c-5.75,6 -14.125,8.958 -25.208,8.958Zm57.583,-1.292l0,-116.5l12.583,0l48.5,95l-2.875,0.792l0,-95.792l13.458,0l0,116.5l-12.833,0l-48.583,-94.208l3.125,-0.417l0,94.625l-13.375,0Zm112.917,-116.5l0,116.583l-13.708,0l0,-116.583l13.708,0Zm21.917,12.917l0,-12.917l69.417,0l0,12.917l-69.417,0Zm27.792,103.667l0,-108.25l13.708,0l0,108.25l-13.708,0Zm126.708,-116.583l-30.083,68.375l0,48.208l-13.708,0l0,-48.208l-30.375,-68.375l14.5,0l22.75,53.792l22.375,-53.792l14.542,0Zm56,116.583l0,-116.583l13.708,0l0,116.583l-13.708,0Zm7.917,-103.667l0,-12.917l54.5,0l0,12.917l-54.5,0Zm0,52.208l0,-12.833l48.125,0l0,12.833l-48.125,0Zm0,51.458l0,-12.917l54.5,0l0,12.917l-54.5,0Zm76.292,0l0,-116.583l13.708,0l0,116.583l-13.708,0Zm9.458,0l0,-12.917l25.667,0c6.25,0 11,-1.583 14.292,-4.792c3.25,-3.208 4.875,-7.833 4.875,-13.875l0,-53.417c0,-6.042 -1.625,-10.667 -4.875,-13.875c-3.25,-3.208 -8,-4.792 -14.292,-4.792l-25.667,0l0,-12.917l25.167,0c10.833,0 19.125,2.75 24.833,8.25c5.708,5.5 8.583,13.458 8.583,23.875l0,52.292c0,6.958 -1.292,12.833 -3.833,17.583c-2.514,4.731 -6.47,8.541 -11.292,10.875c-4.958,2.458 -11.083,3.708 -18.375,3.708l-25.083,0Zm97.042,-116.583l0,116.583l-13.708,0l0,-116.583l13.708,0Zm21.875,12.917l0,-12.917l69.417,0l0,12.917l-69.417,0Zm27.833,103.667l0,-108.25l13.708,0l0,108.25l-13.708,0Zm74,-116.583l0,116.583l-13.708,0l0,-116.583l13.708,0Zm61.292,117.792c-7.333,0 -13.583,-1.417 -18.792,-4.292c-5.208,-2.875 -9.208,-7 -12,-12.375c-2.792,-5.375 -4.167,-11.875 -4.167,-19.417l0,-46.833c0,-7.542 1.375,-14 4.167,-19.417c2.792,-5.417 6.792,-9.542 12,-12.375c5.208,-2.875 11.458,-4.292 18.792,-4.292c7.333,0 13.583,1.417 18.792,4.292c5.208,2.875 9.208,7 12,12.375c2.792,5.375 4.167,11.875 4.167,19.417l0,46.833c0,7.542 -1.375,14 -4.167,19.417c-2.792,5.417 -6.792,9.542 -12,12.375c-5.208,2.875 -11.458,4.292 -18.792,4.292Zm0,-13.208c6.625,0 11.792,-2 15.542,-5.958c3.75,-4 5.625,-9.458 5.625,-16.375l0,-47.792c0,-7 -1.875,-12.5 -5.625,-16.458c-3.75,-3.958 -8.917,-5.917 -15.542,-5.917c-6.625,0 -11.833,1.958 -15.583,5.917c-3.75,3.958 -5.667,9.417 -5.667,16.458l0,47.792c0,6.958 1.875,12.417 5.667,16.375c3.75,3.958 8.958,5.958 15.583,5.958Zm58.708,11.917l0,-116.5l12.583,0l48.5,95l-2.875,0.792l0,-95.792l13.458,0l0,116.5l-12.833,0l-48.583,-94.208l3.125,-0.417l0,94.625l-13.375,0Z" style="fill:#fff;fill-rule:nonzero;"/></g></g><clipPath id="_clip1"><rect x="0" y="0" width="292.858" height="526.279"/></clipPath><g clip-path="url(#_clip1)"><g id="guy"><g id="hed"><path d="M201.535,3.139c41.415,4.88 75.039,43.867 75.039,87.008c0,43.141 -33.624,74.205 -75.039,69.325c-41.415,-4.88 -75.039,-43.867 -75.039,-87.008c0,-43.141 33.624,-74.205 75.039,-69.325Z" style="fill:#ec6726;stroke:#fff;stroke-width:5.27px;"/></g><g id="ur-mom" serif:id="ur mom"><path id="woah" d="M114.234,199.563l-111.599,-81.773l21.671,-35.687l119.262,87.388c15.55,-6.94 35.816,-9.861 57.969,-7.25c48.949,5.768 88.688,36.371 88.688,68.297c0,0.498 -0.01,0.993 -0.029,1.487l0.029,0.003l0,185.266l-22.38,-2.637l0,108.988l-59.869,-7.054l0,-108.988l-6.921,-0.816l0,108.988l-59.869,-7.054l0,-108.988l-28.338,-3.339l0,-185.266l0.029,0.003c-0.019,-0.498 -0.029,-0.996 -0.029,-1.494c0,-3.494 0.476,-6.858 1.387,-10.074l-0,0Z" style="fill:#ec6726;stroke:#fff;stroke-width:5.27px;"/></g></g></g></g></svg>