<?xml version="1.0" encoding="UTF-8" standalone="no"?><!DOCTYPE svg PUBLIC "-//W3C//DTD SVG 1.1//EN" "http://www.w3.org/Graphics/SVG/1.1/DTD/svg11.dtd"><svg width="293px" height="527px" viewBox="0 0 293 527" version="1.1" xmlns="http://www.w3.org/2000/svg" xmlns:xlink="http://www.w3.org/1999/xlink" xml:space="preserve" xmlns:serif="http://www.serif.com/" style="fill-rule:evenodd;clip-rule:evenodd;stroke-linecap:round;stroke-linejoin:round;stroke-miterlimit:1.5;"><g id="Logo_00000003095499129166098150000008684721280523552656_"><clipPath id="_clip1"><rect x="0" y="0" width="292.858" height="526.279"/></clipPath><g clip-path="url(#_clip1)"><g id="guy"><g id="hed"><path d="M201.535,3.139c41.415,4.88 75.039,43.867 75.039,87.008c0,43.141 -33.624,74.205 -75.039,69.325c-41.415,-4.88 -75.039,-43.867 -75.039,-87.008c0,-43.141 33.624,-74.205 75.039,-69.325Z" style="fill:#ec6726;stroke:#fff;stroke-width:5.27px;"/></g><g id="ur-mom" serif:id="ur mom"><path id="woah" d="M114.234,199.563l-111.599,-81.773l21.671,-35.687l119.262,87.388c15.55,-6.94 35.816,-9.861 57.969,-7.25c48.949,5.768 88.688,36.371 88.688,68.297c0,0.498 -0.01,0.993 -0.029,1.487l0.029,0.003l0,185.266l-22.38,-2.637l0,108.988l-59.869,-7.054l0,-108.988l-6.921,-0.816l0,108.988l-59.869,-7.054l0,-108.988l-28.338,-3.339l0,-185.266l0.029,0.003c-0.019,-0.498 -0.029,-0.996 -0.029,-1.494c0,-3.494 0.476,-6.858 1.387,-10.074l-0,0Z" style="fill:#ec6726;stroke:#fff;stroke-width:5.27px;"/></g></g></g></g></svg>