<?xml version="1.0" encoding="UTF-8" standalone="no"?><!DOCTYPE svg PUBLIC "-//W3C//DTD SVG 1.1//EN" "http://www.w3.org/Graphics/SVG/1.1/DTD/svg11.dtd"><svg width="100%" height="100%" viewBox="0 0 379 540" version="1.1" xmlns="http://www.w3.org/2000/svg" xmlns:xlink="http://www.w3.org/1999/xlink" xml:space="preserve" xmlns:serif="http://www.serif.com/" style="fill-rule:evenodd;clip-rule:evenodd;stroke-linejoin:round;stroke-miterlimit:2;"><g id="Logo_00000003095499129166098150000008684721280523552656_"><g id="Icon_00000140716340568838591020000007209717081622135971_"><g><g><path d="M376.333,381.333c-7.208,19.417 -37.125,9.292 -37.125,9.292l-34.792,-22.708l-41.833,-27.25l-4.708,-3.083l-25.542,-72.083l-67.042,85.5c0,0 36.667,36.583 56.375,61.042c2.208,2.75 4.167,5.292 5.875,7.667c3.375,4.708 5.625,8.583 6.125,11c3.417,16.042 -5.875,27.708 -5.875,27.708l-38.667,43.333l-33,36.958c-16.333,-2.458 -34.5,-9.667 -53.167,-25.25l15.333,-17.333l2.042,-2.333l22.708,-25.708l21.5,-24.333c-49.458,-68.625 -80.333,-85 -80.333,-85l-21.75,27.375l-24.667,31.125c-4.583,-10.958 -9.125,-22.917 -13.667,-35.958c-3.625,-10.5 -6.792,-22.417 -9.5,-34.792l26,-33.292l95.792,-122.667l-55.5,-36.25l-22.333,18.792l-11.208,9.458l-13.167,11.042l-9.667,8.083c0,0 -12.542,10.708 -24.125,8.792c0.875,-17 3.375,-34.167 6.542,-50.042c11.417,-10.5 27.375,-24.917 41.25,-36.625l0,-0.042c2,-1.75 4,-3.375 5.917,-4.917c7.333,-6.125 13.75,-11 17.833,-13.417c1.667,-1.042 2.958,-1.667 3.833,-1.792c10.458,-1.667 22.375,3.25 22.375,3.25l156.833,104.75l18.208,12.167l23.542,80.917c0,0 4.375,2.833 11,7.042c17.5,11.25 50.375,32.25 57.167,36c9.458,5.125 18.583,14.125 11.417,33.583Z" style="fill:#fff;fill-rule:nonzero;"/></g></g><path d="M307.792,311.667c0.042,-24.792 -1.292,-53.792 -4.667,-82.208c-3.833,-32.5 -12.958,-83.625 -27.833,-121.958c-9.625,-24.583 -16.958,-38.708 -22.042,-45.125c-4.542,-5.833 -7.292,-5.5 -6,1.083c1.125,5.417 8.083,19 12.458,31.75c6.542,19.167 23.625,68.875 17,59.75c-2.875,-4.042 -18.083,-48.625 -39.958,-80.625c-21.083,-30.792 -49.708,-76.917 -113.958,-74.208c-31.375,1.333 -74.833,28.125 -98.75,96.625c-4.25,12.208 -11.625,35.958 -17.125,63.667c-3.167,15.875 -5.667,33.042 -6.542,50.042c-0.292,4.208 -0.417,8.417 -0.417,12.583c-0.042,12.625 3.5,72.5 14.583,123.458c2.75,12.375 5.875,24.292 9.5,34.792c4.542,13.042 9.083,25 13.667,35.958c7.583,18.125 15.333,33.417 23.333,46.25c13.917,22.333 28.042,38.458 41.875,50.042c18.625,15.583 36.833,22.792 53.167,25.25c10.583,1.583 20.417,1.208 29.083,-0.167c3.875,-0.875 51.708,-12.083 83.5,-68.292c7.167,-12.625 28.125,-53.667 35.667,-102.417c0.208,-1.167 0.375,-2.417 0.542,-3.625c1.75,-12.125 2.875,-30.792 2.917,-52.625Zm-68.708,130.292c-13.292,29.125 -29.125,45.583 -43.417,55.708c-2.167,1.583 -4.333,2.917 -6.5,4.125c-31.5,17.833 -60.167,1.917 -70.792,-5.583c-2.792,-2 -4.375,-3.375 -4.375,-3.375c0,0 -1.125,-2.708 1.458,-1.125c1.083,0.625 3.042,1.5 4.958,2.208c2.417,0.917 4.583,1.667 4.583,1.667c0,0 35.875,12.208 64.25,-16.875c18.292,-18.792 30.542,-40.792 38.333,-58.958c8.958,-20.708 12.208,-36.5 12.25,-36.833c0.667,-6.75 -2.958,-6.5 -4.5,-1.875c-1.958,6.125 -6.875,18.25 -13.625,31.042c-5.25,10.083 -11.667,20.625 -18.583,28.833c-17.042,20.167 -37.75,25.583 -37.75,25.583c0,0 -10,3.167 -22.25,1.708l-1.208,-0.167c-7.958,-1.125 -15.875,-5.125 -24.917,-10.375c-15.625,-9.042 -31.167,-33 -44,-52.458c-3.875,-5.875 -7.375,-12.333 -10.542,-19.083c-10.792,-23.083 -17.625,-50.25 -21.875,-72.917c-5.083,-27.083 -6.458,-47.792 -6.458,-47.792c0,0 -2.292,-35 0.083,-71.833c0.417,-7.125 1.042,-14.292 1.875,-21.292c1.833,-15.292 7,-33.417 12.125,-48.458l0,-0.042c6.375,-18.75 12.583,-32.708 11.958,-30.083c-0.667,2.958 -3.583,12.958 -6.042,25.125c-0.75,3.375 -1.417,6.917 -2,10.542c-3.417,20.667 -5.083,43.042 -5.042,45.833c0.083,2.458 0.167,4.917 0.25,7.333c1.083,27.542 3.917,53.542 6.958,63.458c1.333,4.375 6.417,6.833 5.833,-1.75c-0.917,-14.292 -3.042,-45.5 -1.583,-71.167c0.083,-1.167 0.125,-2.292 0.25,-3.458c0.167,-1.625 0.667,-33.5 13.208,-64.208c0.833,-2.125 1.708,-4.208 2.708,-6.292c8,-17.125 16.042,-29.708 24.5,-37.917c13.25,-12.833 25.833,-15.875 28.167,-16.292c12.542,-2.042 27.208,0.167 40.833,8.5c14,8.542 28.833,24.917 42.125,45.458c14.167,21.958 25.917,49.75 34.792,75.917c4.25,12.5 7.5,25.167 9.958,36.792c5.708,27.458 7.042,49.042 7.042,49.042c0,0 2.833,39.208 1.042,71.333c-0.167,2.958 -0.333,5.875 -0.583,8.75c-3.333,45.375 -12.667,77.5 -23.5,101.25Z" style="fill:#fff;"/><g><path d="M229.25,166.875c-9.625,-6.5 -19.25,-13 -28.917,-19.458c-1.042,-0.708 -1.375,-1.375 -1.292,-2.625c1.667,-23.25 3.292,-46.5 4.875,-69.792c0.083,-1.125 0.5,-1.667 1.458,-2.167c20.917,-10.167 41.833,-20.375 62.708,-30.583c1.167,-0.583 1.958,-0.583 3.083,0.167c19.25,13.042 38.5,26.042 57.792,39c1.042,0.708 1.375,1.375 1.292,2.625c-1.667,23.25 -3.292,46.5 -4.875,69.792c-0.083,1.125 -0.5,1.667 -1.458,2.167c-20.917,10.167 -41.833,20.375 -62.708,30.583c-1.25,0.625 -2.125,0.458 -3.208,-0.292c-9.542,-6.5 -19.167,-12.958 -28.75,-19.417Z" style="fill:#fff;fill-rule:nonzero;"/></g><path d="M364.958,347.667c-9.375,-5.167 -68.125,-43.083 -68.125,-43.083l-23.542,-80.917l-155,-103.458l-20.25,45.208l38.375,25.083l-30.458,39l83.792,90.333l42.583,-54.333l25.583,72.083l81.292,53.042c0,0 29.917,10.125 37.125,-9.292c7.208,-19.458 -1.958,-28.458 -11.375,-33.667Z" style="fill:#fff;fill-rule:nonzero;"/></g></g></svg>