<?xml version="1.0" encoding="UTF-8" standalone="no"?><!DOCTYPE svg PUBLIC "-//W3C//DTD SVG 1.1//EN" "http://www.w3.org/Graphics/SVG/1.1/DTD/svg11.dtd"><svg width="876px" height="282px" viewBox="0 0 3650 1175" version="1.1" xmlns="http://www.w3.org/2000/svg" xmlns:xlink="http://www.w3.org/1999/xlink" xml:space="preserve" xmlns:serif="http://www.serif.com/" style="fill-rule:evenodd;clip-rule:evenodd;stroke-linejoin:round;stroke-miterlimit:2;"><g><g><path d="M2038.241,873.488c-2.607,0 -5.211,-2.609 -5.211,-5.211l0,-448.254l-166.794,0c-2.607,0 -5.211,-2.607 -5.211,-5.211l0,-70.365c0,-2.609 2.607,-5.211 5.211,-5.211l440.435,0c2.607,0 5.211,2.609 5.211,5.211l0,70.365c0,2.609 -2.607,5.211 -5.211,5.211l-169.396,0l0,448.254c0,2.609 -2.607,5.211 -5.211,5.211l-93.826,0l0.002,0Z" style="fill:#e8e8e8;fill-rule:nonzero;"/></g><g><path d="M925.435,0.443c148.548,0 237.157,119.884 271.034,359.643c0,15.637 2.609,44.301 5.211,86.002c0,229.339 -78.183,435.219 -234.55,617.648c-72.974,72.974 -145.941,109.457 -218.913,109.457c-112.064,0 -198.067,-83.394 -260.614,-252.794c-18.244,-57.337 -28.666,-122.486 -28.666,-195.458c0,-203.277 59.938,-398.735 182.429,-586.375l5.211,0l0,7.818c-33.882,57.337 -54.728,106.849 -67.756,148.548l0,5.211l5.211,0c101.638,-198.067 216.306,-299.704 341.399,-299.704l0.006,0.006l-0.001,-0.001Zm-367.462,753.169c0,200.669 67.756,320.552 205.884,357.036l23.455,0c28.666,0 52.121,-10.427 65.154,-28.666l-36.483,0c-104.247,0 -169.396,-86.002 -200.669,-255.398l7.818,0c41.699,132.912 101.638,198.067 179.822,198.067c122.486,0 216.306,-117.275 289.278,-351.825c18.244,-75.576 28.666,-151.157 28.666,-224.124l0,-13.028c0,-49.519 -5.211,-104.247 -18.244,-166.792l-7.818,0l0,5.211c2.609,26.062 5.211,46.91 5.211,62.547l0,10.427c0,101.638 -15.637,169.396 -46.91,208.486l0,-5.211c15.637,-54.728 23.455,-106.849 23.455,-153.759c0,-143.337 -41.699,-242.368 -125.093,-294.489l-44.303,-5.211c-122.486,0 -226.732,135.519 -312.733,406.553c-23.455,96.427 -36.483,179.822 -36.483,250.187l-0.006,-0.012l-0.001,-0.001l0.001,0.001Z" style="fill:#36c0f1;fill-rule:nonzero;"/></g><path d="M3497.67,787.486l-229.341,0l0,-445.645l-106.849,0c-2.609,0 -5.211,2.609 -5.211,5.211l0,518.619c0,2.607 2.609,5.211 5.211,5.211l338.797,0c2.609,0 5.211,-2.607 5.211,-5.211l0,-72.974c-2.609,-2.607 -5.211,-5.211 -7.818,-5.211Z" style="fill:#e8e8e8;fill-rule:nonzero;"/><g><path d="M0.263,878.705l0,-539.465l166.794,0c67.756,0 119.884,15.637 151.157,44.301c33.882,28.666 49.519,70.365 49.519,122.486c0,31.273 -5.211,59.938 -18.244,88.609c-13.028,28.666 -33.882,49.519 -65.154,67.756c-31.273,18.244 -70.365,26.064 -122.486,26.064l-46.91,0l0,190.249l-114.675,0l0.001,0Zm114.667,-289.278l39.093,0c31.273,0 54.728,-5.211 72.974,-18.244c18.244,-13.028 28.666,-33.882 28.666,-65.154c0,-23.455 -7.818,-41.699 -20.848,-54.728c-15.637,-13.028 -36.483,-20.846 -67.756,-20.846l-52.121,0l0,158.974l-0.006,0l-0.001,-0.001Z" style="fill:#e8e8e8;fill-rule:nonzero;"/></g><path d="M1712.479,868.279l-158.974,-216.306c33.882,-7.818 62.547,-26.064 62.547,-26.064c20.848,-10.427 36.483,-26.064 49.517,-44.301c18.244,-23.455 28.666,-52.121 28.666,-88.609c0,-104.247 -70.365,-156.367 -213.704,-156.367l-169.396,0l0,534.255l117.275,0l0,-205.884l33.882,0l114.668,200.669l135.519,0l0,2.609Zm-284.067,-440.435l49.519,0c33.882,0 57.337,5.211 75.576,18.244c15.637,13.028 23.455,28.666 23.455,54.728c0,28.666 -7.818,49.519 -26.062,62.547c-15.637,13.028 -41.699,18.244 -72.972,18.244l-49.519,0l0,-153.759l0.006,-0.006l-0.001,0l-0.001,0.001Z" style="fill:#e8e8e8;fill-rule:nonzero;"/><path d="M2734.078,347.058l-88.615,0l-203.277,523.828l109.457,-0l28.666,-78.183l26.062,-78.183l143.339,0l26.062,70.365l33.882,83.394l127.702,0l-203.277,-521.221l0.001,0Zm-2.615,307.522l-7.818,-18.244l7.818,18.244Zm-67.758,-99.031c5.211,-18.244 10.427,-36.483 15.637,-52.121l5.211,0c5.211,26.064 10.427,44.301 18.244,59.938c5.211,15.637 10.427,28.666 15.637,41.699l10.427,28.666l-88.609,0l7.818,-23.455c2.607,-15.637 10.427,-33.882 15.637,-54.728l-0.001,0Z" style="fill:#e8e8e8;fill-rule:nonzero;"/><path d="M3573.77,386.153l0,-33.872l-10.423,0l0,-7.816l31.263,0l0,7.816l-10.423,0l0,33.872l-10.423,0l0.007,0l-0.001,0l0.002,0l-0.001,0Zm66.667,0l0.002,-31.263l-11.619,31.197l-5.549,0.067l-13.024,-31.263l0,31.263l-7.816,0l0,-41.687l13.024,0l10.423,28.658l10.27,-28.436l11.85,-0.059l0.3,41.475l-7.864,0.049l0.002,-0.001Z" style="fill:#e8e8e8;fill-rule:nonzero;"/></g></svg>