<?xml version="1.0" encoding="UTF-8" standalone="no"?><!DOCTYPE svg PUBLIC "-//W3C//DTD SVG 1.1//EN" "http://www.w3.org/Graphics/SVG/1.1/DTD/svg11.dtd"><svg width="1168px" height="376px" viewBox="0 0 2431 782" version="1.1" xmlns="http://www.w3.org/2000/svg" xmlns:xlink="http://www.w3.org/1999/xlink" xml:space="preserve" xmlns:serif="http://www.serif.com/" style="fill-rule:evenodd;clip-rule:evenodd;stroke-linejoin:round;stroke-miterlimit:2;"><g><g><path d="M1357.638,581.6c-1.737,0 -3.471,-1.738 -3.471,-3.471l0,-298.613l-111.113,0c-1.737,0 -3.471,-1.737 -3.471,-3.471l0,-46.875c0,-1.738 1.737,-3.471 3.471,-3.471l293.404,0c1.737,0 3.471,1.738 3.471,3.471l0,46.875c0,1.738 -1.737,3.471 -3.471,3.471l-112.846,0l0,298.613c0,1.738 -1.737,3.471 -3.471,3.471l-62.504,0Z" style="fill:#141518;fill-rule:nonzero;"/></g><g><path d="M616.321,0.004c98.958,0 157.987,79.863 180.554,239.583c0,10.417 1.738,29.512 3.471,57.292c0,152.779 -52.083,289.929 -156.25,411.458c-48.613,48.613 -97.221,72.917 -145.833,72.917c-74.654,0 -131.946,-55.554 -173.613,-168.404c-12.154,-38.196 -19.096,-81.596 -19.096,-130.208c0,-135.417 39.929,-265.625 121.529,-390.625l3.471,-0l0,5.208c-22.571,38.196 -36.458,71.179 -45.137,98.958l0,3.471l3.471,0c67.708,-131.946 144.096,-199.654 227.429,-199.654l0.004,0.004Zm-244.792,501.738c0,133.679 45.137,213.542 137.154,237.846l15.625,0c19.096,0 34.721,-6.946 43.404,-19.096l-24.304,0c-69.446,0 -112.846,-57.292 -133.679,-170.138l5.208,0c27.779,88.542 67.708,131.946 119.792,131.946c81.596,0 144.096,-78.125 192.708,-234.375c12.154,-50.346 19.096,-100.696 19.096,-149.304l0,-8.679c0,-32.988 -3.471,-69.446 -12.154,-111.112l-5.208,0l0,3.471c1.738,17.362 3.471,31.25 3.471,41.667l0,6.946c0,67.708 -10.417,112.846 -31.25,138.887l0,-3.471c10.417,-36.458 15.625,-71.179 15.625,-102.429c0,-95.487 -27.779,-161.458 -83.333,-196.179l-29.513,-3.471c-81.596,0 -151.042,90.279 -208.333,270.833c-15.625,64.237 -24.304,119.792 -24.304,166.667l-0.004,-0.008Z" style="fill:#36c0f1;fill-rule:nonzero;"/></g><path d="M2329.863,524.308l-152.779,0l0,-296.875l-71.179,-0c-1.738,0 -3.471,1.738 -3.471,3.471l0,345.488c0,1.737 1.738,3.471 3.471,3.471l225.696,0c1.738,0 3.471,-1.737 3.471,-3.471l0,-48.613c-1.738,-1.737 -3.471,-3.471 -5.208,-3.471Z" style="fill:#141518;fill-rule:nonzero;"/><g><path d="M2380.208,256.95l0,-22.571l-6.946,0l0,-5.208l20.833,0l0,5.208l-6.946,0l0,22.571l-6.946,0l0.004,0Zm45.137,0l0,-20.833c-1.738,3.471 -3.471,6.946 -3.471,10.417c0,3.471 -3.471,6.946 -3.471,10.417l-5.208,0l-8.679,-20.833l0,20.833l-5.208,0l0,-27.779l8.679,0l6.946,19.096c0,-1.738 1.738,-3.471 1.738,-5.208c0,-1.738 1.738,-3.471 1.738,-5.208c0,-1.737 1.737,-3.471 1.737,-5.208c0,-1.738 1.738,-3.471 1.738,-5.208l8.679,0l0,27.779l-5.208,0l0,1.738l-0.008,0Z" style="fill:#141518;fill-rule:nonzero;"/></g><g><path d="M0,585.075l0,-359.375l111.113,0c45.137,0 79.863,10.417 100.696,29.512c22.571,19.096 32.988,46.875 32.988,81.596c0,20.833 -3.471,39.929 -12.154,59.029c-8.679,19.096 -22.571,32.988 -43.404,45.137c-20.833,12.154 -46.875,17.363 -81.596,17.363l-31.25,0l0,126.738l-76.392,0Zm76.388,-192.708l26.042,0c20.833,0 36.458,-3.471 48.613,-12.154c12.154,-8.679 19.096,-22.571 19.096,-43.404c0,-15.625 -5.208,-27.779 -13.888,-36.458c-10.417,-8.679 -24.304,-13.887 -45.137,-13.887l-34.721,0l0,105.904l-0.004,0Z" style="fill:#141518;fill-rule:nonzero;"/></g><path d="M1140.625,578.129l-105.904,-144.096c22.571,-5.208 41.667,-17.363 41.667,-17.363c13.888,-6.946 24.304,-17.363 32.987,-29.512c12.154,-15.625 19.096,-34.721 19.096,-59.029c0,-69.446 -46.875,-104.167 -142.363,-104.167l-112.846,0l0,355.904l78.125,0l0,-137.154l22.571,0l76.388,133.679l90.279,0l0,1.737Zm-189.237,-293.404l32.988,0c22.571,0 38.196,3.471 50.346,12.154c10.417,8.679 15.625,19.096 15.625,36.458c0,19.096 -5.208,32.988 -17.362,41.667c-10.417,8.679 -27.779,12.154 -48.612,12.154l-32.988,0l0,-102.429l0.004,-0.004Z" style="fill:#141518;fill-rule:nonzero;"/><path d="M1821.183,230.908l-59.033,0l-135.417,348.958l72.917,0l19.096,-52.083l17.362,-52.083l95.488,0l17.362,46.875l22.571,55.554l85.071,0l-135.417,-347.221Zm-1.742,204.862l-5.208,-12.154l5.208,12.154Zm-45.138,-65.971c3.471,-12.154 6.946,-24.304 10.417,-34.721l3.471,0c3.471,17.363 6.946,29.512 12.154,39.929c3.471,10.417 6.946,19.096 10.417,27.779l6.946,19.096l-59.029,0l5.208,-15.625c1.737,-10.417 6.946,-22.571 10.417,-36.458Z" style="fill:#141518;fill-rule:nonzero;"/></g></svg>