<?xml version="1.0" encoding="UTF-8" standalone="no"?><!DOCTYPE svg PUBLIC "-//W3C//DTD SVG 1.1//EN" "http://www.w3.org/Graphics/SVG/1.1/DTD/svg11.dtd"><svg width="100%" height="100%" viewBox="0 0 584 188" version="1.1" xmlns="http://www.w3.org/2000/svg" xmlns:xlink="http://www.w3.org/1999/xlink" xml:space="preserve" xmlns:serif="http://www.serif.com/" style="fill-rule:evenodd;clip-rule:evenodd;stroke-linejoin:round;stroke-miterlimit:2;"><g><g><path d="M325.833,139.583c-0.417,0 -0.833,-0.417 -0.833,-0.833l0,-71.667l-26.667,0c-0.417,0 -0.833,-0.417 -0.833,-0.833l0,-11.25c0,-0.417 0.417,-0.833 0.833,-0.833l70.417,0c0.417,0 0.833,0.417 0.833,0.833l0,11.25c0,0.417 -0.417,0.833 -0.833,0.833l-27.083,0l0,71.667c0,0.417 -0.417,0.833 -0.833,0.833l-15,0Z" style="fill:#141518;fill-rule:nonzero;"/></g><g><path d="M147.917,0c23.75,0 37.917,19.167 43.333,57.5c0,2.5 0.417,7.083 0.833,13.75c0,36.667 -12.5,69.583 -37.5,98.75c-11.667,11.667 -23.333,17.5 -35,17.5c-17.917,0 -31.667,-13.333 -41.667,-40.417c-2.917,-9.167 -4.583,-19.583 -4.583,-31.25c0,-32.5 9.583,-63.75 29.167,-93.75l0.833,-0l0,1.25c-5.417,9.167 -8.75,17.083 -10.833,23.75l0,0.833l0.833,0c16.25,-31.667 34.583,-47.917 54.583,-47.917Zm-58.75,120.417c0,32.083 10.833,51.25 32.917,57.083l3.75,0c4.583,0 8.333,-1.667 10.417,-4.583l-5.833,0c-16.667,0 -27.083,-13.75 -32.083,-40.833l1.25,0c6.667,21.25 16.25,31.667 28.75,31.667c19.583,0 34.583,-18.75 46.25,-56.25c2.917,-12.083 4.583,-24.167 4.583,-35.833l0,-2.083c0,-7.917 -0.833,-16.667 -2.917,-26.667l-1.25,0l0,0.833c0.417,4.167 0.833,7.5 0.833,10l0,1.667c0,16.25 -2.5,27.083 -7.5,33.333l0,-0.833c2.5,-8.75 3.75,-17.083 3.75,-24.583c0,-22.917 -6.667,-38.75 -20,-47.083l-7.083,-0.833c-19.583,0 -36.25,21.667 -50,65c-3.75,15.417 -5.833,28.75 -5.833,40Z" style="fill:#36c0f1;fill-rule:nonzero;"/></g><path d="M559.167,125.833l-36.667,0l0,-71.25l-17.083,-0c-0.417,0 -0.833,0.417 -0.833,0.833l0,82.917c0,0.417 0.417,0.833 0.833,0.833l54.167,0c0.417,0 0.833,-0.417 0.833,-0.833l0,-11.667c-0.417,-0.417 -0.833,-0.833 -1.25,-0.833Z" style="fill:#141518;fill-rule:nonzero;"/><g><path d="M571.25,61.667l0,-5.417l-1.667,0l0,-1.25l5,0l0,1.25l-1.667,0l0,5.417l-1.667,0Zm10.833,0l0,-5c-0.417,0.833 -0.833,1.667 -0.833,2.5c0,0.833 -0.833,1.667 -0.833,2.5l-1.25,0l-2.083,-5l0,5l-1.25,0l0,-6.667l2.083,0l1.667,4.583c0,-0.417 0.417,-0.833 0.417,-1.25c0,-0.417 0.417,-0.833 0.417,-1.25c0,-0.417 0.417,-0.833 0.417,-1.25c0,-0.417 0.417,-0.833 0.417,-1.25l2.083,0l0,6.667l-1.25,0l0,0.417Z" style="fill:#141518;fill-rule:nonzero;"/></g><g><path d="M0,140.417l0,-86.25l26.667,0c10.833,0 19.167,2.5 24.167,7.083c5.417,4.583 7.917,11.25 7.917,19.583c0,5 -0.833,9.583 -2.917,14.167c-2.083,4.583 -5.417,7.917 -10.417,10.833c-5,2.917 -11.25,4.167 -19.583,4.167l-7.5,0l0,30.417l-18.333,0Zm18.333,-46.25l6.25,0c5,0 8.75,-0.833 11.667,-2.917c2.917,-2.083 4.583,-5.417 4.583,-10.417c0,-3.75 -1.25,-6.667 -3.333,-8.75c-2.5,-2.083 -5.833,-3.333 -10.833,-3.333l-8.333,0l0,25.417Z" style="fill:#141518;fill-rule:nonzero;"/></g><path d="M273.75,138.75l-25.417,-34.583c5.417,-1.25 10,-4.167 10,-4.167c3.333,-1.667 5.833,-4.167 7.917,-7.083c2.917,-3.75 4.583,-8.333 4.583,-14.167c0,-16.667 -11.25,-25 -34.167,-25l-27.083,0l0,85.417l18.75,0l0,-32.917l5.417,0l18.333,32.083l21.667,0l0,0.417Zm-45.417,-70.417l7.917,0c5.417,0 9.167,0.833 12.083,2.917c2.5,2.083 3.75,4.583 3.75,8.75c0,4.583 -1.25,7.917 -4.167,10c-2.5,2.083 -6.667,2.917 -11.667,2.917l-7.917,0l0,-24.583Z" style="fill:#141518;fill-rule:nonzero;"/><path d="M437.083,55.417l-14.167,0l-32.5,83.75l17.5,0l4.583,-12.5l4.167,-12.5l22.917,0l4.167,11.25l5.417,13.333l20.417,0l-32.5,-83.333Zm-0.417,49.167l-1.25,-2.917l1.25,2.917Zm-10.833,-15.833c0.833,-2.917 1.667,-5.833 2.5,-8.333l0.833,0c0.833,4.167 1.667,7.083 2.917,9.583c0.833,2.5 1.667,4.583 2.5,6.667l1.667,4.583l-14.167,0l1.25,-3.75c0.417,-2.5 1.667,-5.417 2.5,-8.75Z" style="fill:#141518;fill-rule:nonzero;"/></g></svg>