<?xml version="1.0" encoding="UTF-8" standalone="no"?><!DOCTYPE svg PUBLIC "-//W3C//DTD SVG 1.1//EN" "http://www.w3.org/Graphics/SVG/1.1/DTD/svg11.dtd"><svg width="100%" height="100%" viewBox="0 0 400 400" version="1.1" xmlns="http://www.w3.org/2000/svg" xmlns:xlink="http://www.w3.org/1999/xlink" xml:space="preserve" xmlns:serif="http://www.serif.com/" style="fill-rule:evenodd;clip-rule:evenodd;stroke-linejoin:round;stroke-miterlimit:2;"><path d="M400,69.565l0,260.87c0,38.394 -31.171,69.565 -69.565,69.565l-260.87,0c-38.394,0 -69.565,-31.171 -69.565,-69.565l0,-260.87c0,-38.394 31.171,-69.565 69.565,-69.565l260.87,0c38.394,0 69.565,31.171 69.565,69.565Z" style="fill:#050506;"/><g><path d="M228.342,25.287c44.261,0 70.662,35.719 80.756,107.157c0,4.659 0.777,13.201 1.553,25.625c0,68.332 -23.295,129.676 -69.885,184.031c-21.742,21.742 -43.484,32.613 -65.226,32.613c-33.39,0 -59.014,-24.848 -77.65,-75.321c-5.436,-17.083 -8.542,-36.496 -8.542,-58.238c0,-60.567 17.86,-118.805 54.355,-174.713l1.553,0l0,2.33c-10.095,17.083 -16.307,31.837 -20.189,44.261l0,1.553l1.553,0c30.284,-59.014 64.45,-89.298 101.722,-89.298Zm-109.487,224.409c0,59.791 20.189,95.51 61.344,106.381l6.989,0c8.542,0 15.53,-3.106 19.413,-8.542l-10.871,0c-31.06,0 -50.473,-25.625 -59.791,-76.097l2.33,0c12.424,39.602 30.284,59.014 53.579,59.014c36.496,0 64.45,-34.943 86.192,-104.828c5.436,-22.519 8.542,-45.037 8.542,-66.779l0,-3.883c0,-14.754 -1.553,-31.06 -5.436,-49.696l-2.33,0l0,1.553c0.777,7.765 1.553,13.977 1.553,18.636l0,3.106c0,30.284 -4.659,50.473 -13.977,62.12l0,-1.553c4.659,-16.307 6.989,-31.837 6.989,-45.814c0,-42.708 -12.424,-72.215 -37.272,-87.745l-13.201,-1.553c-36.496,0 -67.556,40.378 -93.18,121.134c-6.989,28.731 -10.871,53.579 -10.871,74.544Z" style="fill:#36c0f1;fill-rule:nonzero;"/></g></svg>