<?xml version="1.0" encoding="UTF-8" standalone="no"?><!DOCTYPE svg PUBLIC "-//W3C//DTD SVG 1.1//EN" "http://www.w3.org/Graphics/SVG/1.1/DTD/svg11.dtd"><svg width="100%" height="100%" viewBox="0 0 1667 1667" version="1.1" xmlns="http://www.w3.org/2000/svg" xmlns:xlink="http://www.w3.org/1999/xlink" xml:space="preserve" xmlns:serif="http://www.serif.com/" style="fill-rule:evenodd;clip-rule:evenodd;stroke-linejoin:round;stroke-miterlimit:2;"><g><path d="M968.517,0c211.113,0 337.038,170.37 385.184,511.11c0,22.222 3.706,62.965 7.407,122.224c0,325.925 -111.111,618.519 -333.332,877.778c-103.703,103.703 -207.407,155.555 -311.11,155.555c-159.261,0 -281.481,-118.518 -370.369,-359.261c-25.928,-81.481 -40.743,-174.076 -40.743,-277.779c0,-288.888 85.187,-566.667 259.259,-833.333l7.407,0l0,11.113c-48.15,81.481 -77.78,151.854 -96.296,211.113l0,7.407l7.407,0c144.446,-281.481 307.409,-425.927 485.186,-425.927Zm-522.223,1070.37c-0,285.187 96.296,455.557 292.594,507.408l33.336,0c40.743,0 74.074,-14.815 92.595,-40.743l-51.852,0c-148.148,0 -240.742,-122.224 -285.187,-362.962l11.113,0c59.259,188.891 144.446,281.481 255.557,281.481c174.076,0 307.409,-166.669 411.112,-500.001c25.928,-107.409 40.743,-214.814 40.743,-318.518l0,-18.521c0,-70.373 -7.407,-148.148 -25.928,-237.036l-11.113,0l0,7.407c3.706,37.037 7.407,66.666 7.407,88.889l0,14.815c0,144.446 -22.222,240.742 -66.666,296.295l0,-7.407c22.222,-77.78 33.336,-151.854 33.336,-218.52c0,-203.706 -59.259,-344.446 -177.777,-418.52l-62.965,-7.407c-174.076,0 -322.224,192.592 -444.443,577.776c-33.336,137.039 -51.852,255.557 -51.852,355.555l-0.01,0.01Z" style="fill:#36c0f1;fill-rule:nonzero;"/></g></svg>