<?xml version="1.0" encoding="UTF-8" standalone="no"?><!DOCTYPE svg PUBLIC "-//W3C//DTD SVG 1.1//EN" "http://www.w3.org/Graphics/SVG/1.1/DTD/svg11.dtd"><svg width="863" height="257" viewBox="0 0 7187 2144" version="1.1" xmlns="http://www.w3.org/2000/svg" xmlns:xlink="http://www.w3.org/1999/xlink" xml:space="preserve" xmlns:serif="http://www.serif.com/" style="fill-rule:evenodd;clip-rule:evenodd;stroke-linejoin:round;stroke-miterlimit:2;"><g><clipPath id="_clip1"><rect x="5452.749" y="0" width="1733.287" height="2143.102"/></clipPath><g clip-path="url(#_clip1)"><g><rect x="6435.532" y="6.204" width="19.689" height="2131.068" style="fill:#119bcf;"/><g id="g48"><g id="g46"><path id="path42" d="M5466.78,1592.68l0.703,-151.501l397.322,-385.132l0.413,-0.327c40.143,-33.372 69.988,-63.398 88.756,-89.317c17.643,-24.373 26.586,-49.566 26.586,-74.92c0,-36.352 -11.597,-64.579 -35.431,-86.298c-23.895,-21.756 -56.126,-32.784 -95.762,-32.784c-38.205,0 -69.552,10.622 -95.786,32.42c-25.47,21.145 -37.842,52.6 -37.842,96.15l0,13.96l-247.263,0l0,-13.96c0,-69.396 16.952,-131.193 50.443,-183.678c33.419,-52.395 79.864,-93.138 138.064,-121.093c57.726,-27.699 122.431,-41.725 192.396,-41.725c52.928,0 102.826,7.707 148.314,22.901c45.78,15.293 86.311,37.758 120.482,66.742c34.437,29.214 61.59,65.197 80.748,106.946c19.194,41.707 28.899,87.874 28.899,137.228c0,41.689 -9.549,81.051 -28.402,116.954c-18.418,35.099 -43.925,69.5 -75.769,102.214c-31.285,32.159 -70.059,67.761 -115.22,105.833l-188.872,161.473l430.5,0l0,217.938l-783.28,0l0,-0.023Z" style="fill:#e8e8e8;fill-rule:nonzero;"/><path id="path44" d="M5849.394,568.434c51.692,0 99.663,7.409 143.89,22.187c44.265,14.789 82.882,36.145 115.877,64.154c32.983,27.973 58.696,61.98 77.076,102.124c18.43,40.107 27.652,83.929 27.652,131.411c0,39.587 -8.93,76.44 -26.803,110.471c-17.861,34.05 -42.325,67.038 -73.405,98.985c-31.045,31.916 -69.129,66.888 -114.205,104.886l-217.697,186.073l454.334,0l0,190.018l-755.3,0l0.606,-131.627l392.729,-380.643c41.235,-34.297 71.613,-64.929 91.12,-91.86c19.509,-26.911 29.275,-54.618 29.275,-83.111c0,-40.137 -13.329,-72.327 -39.985,-96.628c-26.658,-24.247 -61.725,-36.431 -105.165,-36.431c-41.212,0 -76.121,11.882 -104.718,35.649c-28.585,23.761 -42.87,59.386 -42.87,106.879l-219.345,0c0,-67.046 16.092,-125.74 48.262,-176.19c32.159,-50.407 76.29,-89.067 132.344,-115.997c56.055,-26.908 118.192,-40.351 186.327,-40.351m0,-27.918c-72.062,0 -138.814,14.51 -198.431,43.112c-60.599,29.093 -108.97,71.546 -143.795,126.164c-34.934,54.782 -52.624,119.107 -52.624,191.191l0,27.917l275.18,0l0,-27.917c0,-39.132 10.723,-67.068 32.789,-85.413c23.641,-19.644 52.055,-29.209 86.868,-29.209c36.557,0 64.802,9.535 86.383,29.166c20.745,18.922 30.838,43.772 30.838,75.975c0,22.658 -7.852,44.469 -23.98,66.722c-18.043,24.968 -47.112,54.152 -86.334,86.772l-0.824,0.679l-0.764,0.726l-392.729,380.661l-8.433,8.179l-0.05,11.766l-0.593,131.617l-0.146,28.063l811.307,0l0,-245.859l-406.629,0l160.213,-136.924c45.368,-38.242 84.47,-74.193 116.083,-106.655c32.764,-33.708 59.071,-69.195 78.12,-105.479c19.921,-37.914 30.014,-79.446 30.014,-123.45c0,-51.373 -10.155,-99.495 -30.196,-143.074c-19.969,-43.615 -48.372,-81.221 -84.371,-111.756c-35.515,-30.154 -77.623,-53.48 -125.074,-69.328c-46.99,-15.693 -98.38,-23.646 -152.822,-23.646Z" style="fill:#e8e8e8;fill-rule:nonzero;"/></g></g><g id="Clip"><g id="g1165"><g id="Clip1" serif:id="Clip"><g id="g71"><g><path id="path65_1_" d="M7053.743,453.637c0,120.268 -97.497,217.751 -217.749,217.751c-120.261,0 -217.755,-97.483 -217.755,-217.751c0,-120.253 97.494,-217.746 217.755,-217.746c120.253,0 217.749,97.493 217.749,217.746" style="fill:#119bcf;fill-rule:nonzero;"/><path d="M6835.995,677.593c-123.492,0 -223.96,-100.467 -223.96,-223.955c0,-123.487 100.468,-223.95 223.96,-223.95c123.488,0 223.954,100.463 223.954,223.95c0,123.489 -100.466,223.955 -223.954,223.955Zm0,-435.497c-116.651,0 -211.552,94.897 -211.552,211.541c0,116.646 94.901,211.546 211.552,211.546c116.646,0 211.544,-94.9 211.544,-211.546c0,-116.644 -94.897,-211.541 -211.544,-211.541Z" style="fill:#119bcf;fill-rule:nonzero;"/></g><g><path id="path67_1_" d="M6475.522,497.137l376.311,286.717c0,0 13.122,7.204 15.159,37.727l59.023,262.456l248.184,183.104c0,0 40.376,132.151 -96.029,118.99l-255.915,-190.213c0,0 -15.69,-11.986 -26.462,-46.799l-48.82,-211.577l-274.659,323.491l250.218,343.823c0,0 54.951,75.285 -6.082,138.354l-254.317,248.211l0,-258.376l59,-48.846c0,0 16.274,-12.199 0,-30.497l-59,-73.246l0,-1082.362l13.39,-0.963" style="fill:#119bcf;fill-rule:nonzero;"/><path d="M6455.929,2006.144l0,-276.017l61.483,-50.892c-0.002,0 4.242,-3.382 4.707,-8.545c0.356,-3.941 -1.536,-8.271 -5.621,-12.863l-0.197,-0.232l-60.371,-74.953l0,-1090.322l19.15,-1.377l0.444,6.194l3.759,-4.935l376.05,286.516c3.054,1.923 15.669,11.645 17.819,41.963l58.41,259.738l247.974,182.947l0.597,1.961c0.779,2.54 18.664,62.659 -11.875,100.018c-17.948,21.964 -48.479,31.02 -90.68,26.96l-1.72,-0.165l-257.301,-191.245c-0.77,-0.588 -17.461,-13.656 -28.689,-49.944l-0.119,-0.44l-46.043,-199.537l-263.502,310.35l247.344,339.878c0.576,0.789 57.289,80.262 -6.636,146.321l-264.981,258.619Zm12.409,-270.184l0,240.737l243.778,-237.926c56.621,-58.515 5.923,-129.547 5.404,-130.258l-249.182,-342.401l0,312.156l57.535,71.428c6.452,7.3 9.338,14.818 8.581,22.348c-1.004,9.985 -8.087,15.946 -9.453,17.007l-56.662,46.909Zm612.136,-355.849c36.914,3.269 63.205,-4.334 78.148,-22.584c23.591,-28.813 12.813,-76.564 10.167,-86.668l-248.32,-183.204l-0.506,-2.256l-59.128,-262.927l-0.033,-0.479c-1.733,-26.008 -12.001,-32.721 -12.103,-32.786l-0.624,-0.418l-374.453,-285.3l-5.285,0.379l0,752.264l281.902,-332.024l51.548,223.391c9.924,31.923 24.131,43.406 24.273,43.517l254.414,189.095Z" style="fill:#119bcf;fill-rule:nonzero;"/></g><g><rect id="path69_1_" x="6433.987" y="6.204" width="39.354" height="2130.694" style="fill:#119bcf;fill-rule:nonzero;"/><path d="M6479.544,2143.102l-51.763,0l0,-2143.102l51.763,-0l0,2143.102Zm-39.354,-12.409l26.946,0l0,-2118.284l-26.946,0l0,2118.284Z" style="fill:#119bcf;fill-rule:nonzero;"/></g></g></g></g></g></g></g><path d="M742.184,893.947c0,-175.742 -127.813,-322.436 -341.318,-322.436l-400.867,0l0,1034.12l201.886,0l0,-389.247l198.981,0c213.505,0 341.318,-146.694 341.318,-322.436Zm-201.886,0c0,84.24 -58.097,140.884 -149.599,140.884l-188.814,0l0,-283.221l188.814,0c91.502,0 149.599,58.097 149.599,142.337Z" style="fill:#e8e8e8;fill-rule:nonzero;"/><path d="M1641.229,1088.57c0,-178.647 1.452,-307.912 -103.121,-412.486c-72.621,-72.621 -161.218,-113.288 -278.864,-113.288c-117.646,0 -207.695,40.668 -280.316,113.288c-104.574,104.574 -101.669,233.839 -101.669,412.486c0,178.647 -2.905,307.912 101.669,412.486c72.621,72.621 162.67,113.288 280.316,113.288c117.646,0 206.243,-40.668 278.864,-113.288c104.574,-104.574 103.121,-233.839 103.121,-412.486Zm-201.886,0c0,198.981 -11.619,246.911 -50.835,290.483c-29.048,33.406 -74.073,55.192 -129.265,55.192c-55.192,0 -101.669,-21.786 -130.717,-55.192c-39.215,-43.572 -49.382,-91.502 -49.382,-290.483c0,-198.981 10.167,-246.911 49.382,-290.483c29.048,-33.406 75.526,-55.192 130.717,-55.192c55.192,0 100.217,21.786 129.265,55.192c39.215,43.572 50.835,91.502 50.835,290.483Z" style="fill:#e8e8e8;fill-rule:nonzero;"/><path d="M2630.324,1605.63l-230.934,-445.891c100.217,-36.31 188.814,-126.36 188.814,-271.602c0,-172.837 -124.908,-316.626 -335.508,-316.626l-405.224,0l0,1034.12l201.886,0l0,-412.486l145.242,0l201.886,412.486l233.839,0Zm-244.006,-717.493c0,79.883 -58.097,136.527 -146.694,136.527l-190.266,0l0,-273.054l190.266,0c88.597,0 146.694,56.644 146.694,136.527Z" style="fill:#e8e8e8;fill-rule:nonzero;"/><path d="M3462.558,751.61l0,-180.099l-742.184,0l0,180.099l270.149,0l0,854.02l201.886,0l0,-854.02l270.149,0Z" style="fill:#e8e8e8;fill-rule:nonzero;"/><path d="M4338.364,1605.63l-377.628,-1034.12l-158.313,0l-376.176,1034.12l210.6,0l62.454,-183.004l367.461,0l61.001,183.004l210.6,0Zm-325.341,-352.937l-257.077,0l130.717,-376.176l126.36,376.176Z" style="fill:#e8e8e8;fill-rule:nonzero;"/><path d="M5137.192,1605.63l0,-180.099l-469.13,0l0,-854.02l-201.886,0l0,1034.12l671.016,0Z" style="fill:#e8e8e8;fill-rule:nonzero;"/></g></svg>