<?xml version="1.0" encoding="UTF-8" standalone="no"?><!DOCTYPE svg PUBLIC "-//W3C//DTD SVG 1.1//EN" "http://www.w3.org/Graphics/SVG/1.1/DTD/svg11.dtd"><svg width="863" height="257" viewBox="0 0 3596 1071" version="1.1" xmlns="http://www.w3.org/2000/svg" xmlns:xlink="http://www.w3.org/1999/xlink" xml:space="preserve" xmlns:serif="http://www.serif.com/" style="fill-rule:evenodd;clip-rule:evenodd;stroke-linejoin:round;stroke-miterlimit:2;"><g><g><g><clipPath id="_clip1"><rect x="2726.301" y="0" width="865.565" height="1070.218"/></clipPath><g clip-path="url(#_clip1)"><g><rect x="3217.082" y="3.099" width="9.832" height="1064.208" style="fill:#119bcf;"/><g id="g48"><g id="g46"><path id="path42" d="M2733.308,795.349l0.351,-75.656l198.414,-192.326l0.206,-0.163c20.047,-16.665 34.951,-31.66 44.323,-44.603c8.811,-12.171 13.277,-24.752 13.277,-37.413c0,-18.153 -5.791,-32.249 -17.693,-43.095c-11.932,-10.864 -28.028,-16.371 -47.822,-16.371c-19.079,0 -34.733,5.304 -47.834,16.189c-12.719,10.559 -18.897,26.267 -18.897,48.016l0,6.971l-123.478,0l0,-6.971c0,-34.655 8.466,-65.515 25.19,-91.725c16.688,-26.165 39.883,-46.511 68.946,-60.472c28.828,-13.832 61.139,-20.837 96.078,-20.837c26.431,0 51.349,3.848 74.064,11.436c22.861,7.637 43.102,18.855 60.166,33.33c17.197,14.589 30.756,32.558 40.324,53.407c9.586,20.828 14.432,43.882 14.432,68.528c0,20.819 -4.768,40.475 -14.184,58.404c-9.198,17.527 -21.936,34.707 -37.837,51.043c-15.623,16.06 -34.986,33.839 -57.538,52.851l-94.318,80.636l214.983,0l0,108.833l-391.153,0l-0,-0.012Z" style="fill:#e8e8e8;fill-rule:nonzero;"/><path id="path44" d="M2924.377,283.864c25.814,0 49.769,3.699 71.856,11.079c22.105,7.385 41.39,18.05 57.866,32.037c16.471,13.969 29.311,30.951 38.49,50.998c9.204,20.029 13.809,41.912 13.809,65.624c0,19.769 -4.459,38.172 -13.385,55.166c-8.92,17.003 -21.136,33.478 -36.657,49.431c-15.504,15.939 -34.522,33.403 -57.031,52.378l-108.713,92.921l226.885,0l0,94.891l-377.18,0l0.303,-65.732l196.12,-190.084c20.592,-17.127 35.762,-32.424 45.503,-45.873c9.742,-13.439 14.62,-27.275 14.62,-41.504c0,-20.044 -6.656,-36.118 -19.968,-48.253c-13.312,-12.108 -30.824,-18.193 -52.517,-18.193c-20.581,0 -38.013,5.934 -52.294,17.802c-14.275,11.866 -21.409,29.656 -21.409,53.373l-109.536,0c0,-33.482 8.036,-62.792 24.101,-87.985c16.06,-25.172 38.097,-44.478 66.09,-57.926c27.993,-13.437 59.023,-20.151 93.048,-20.151m0,-13.942c-35.986,0 -69.32,7.246 -99.093,21.53c-30.262,14.529 -54.418,35.728 -71.808,63.003c-17.445,27.357 -26.279,59.48 -26.279,95.476l0,13.941l137.419,0l0,-13.941c0,-19.542 5.355,-33.493 16.374,-42.653c11.806,-9.809 25.995,-14.587 43.38,-14.587c18.256,0 32.361,4.761 43.137,14.565c10.359,9.45 15.4,21.859 15.4,37.94c0,11.315 -3.921,22.207 -11.975,33.32c-9.011,12.468 -23.526,27.043 -43.113,43.332l-0.412,0.339l-0.382,0.363l-196.12,190.093l-4.211,4.084l-0.025,5.876l-0.296,65.727l-0.073,14.014l405.149,0l0,-122.777l-203.061,0l80.007,-68.376c22.655,-19.097 42.182,-37.05 57.969,-53.261c16.361,-16.833 29.498,-34.555 39.011,-52.674c9.948,-18.933 14.989,-39.674 14.989,-61.648c0,-25.655 -5.071,-49.685 -15.08,-71.448c-9.972,-21.781 -24.156,-40.56 -42.133,-55.808c-17.735,-15.059 -38.763,-26.707 -62.459,-34.621c-23.465,-7.837 -49.128,-11.808 -76.316,-11.808l0.003,-0.001Z" style="fill:#e8e8e8;fill-rule:nonzero;"/></g></g><g id="Clip"><g id="g1165"><g id="Clip1" serif:id="Clip"><g id="g71"><g><path id="path65_1_" d="M3525.803,226.537c0,60.06 -48.687,108.74 -108.739,108.74c-60.056,0 -108.742,-48.68 -108.742,-108.74c0,-60.052 48.686,-108.738 108.742,-108.738c60.052,0 108.739,48.685 108.739,108.738" style="fill:#119bcf;fill-rule:nonzero;"/><path d="M3417.065,338.375c-61.669,0 -111.841,-50.171 -111.841,-111.839c0,-61.666 50.171,-111.836 111.841,-111.836c61.667,0 111.838,50.169 111.838,111.836c0,61.667 -50.17,111.839 -111.838,111.839Zm0,-217.478c-58.253,-0 -105.645,47.39 -105.645,105.639c0,58.251 47.392,105.642 105.645,105.642c58.251,0 105.641,-47.391 105.641,-105.642c0,-58.25 -47.39,-105.639 -105.641,-105.639Z" style="fill:#119bcf;fill-rule:nonzero;"/></g><g><path id="path67_1_" d="M3237.052,248.259l187.922,143.18c0,0 6.553,3.597 7.57,18.84l29.474,131.065l123.938,91.438c0,0 20.163,65.994 -47.955,59.421l-127.798,-94.988c0,0 -7.835,-5.985 -13.215,-23.37l-24.379,-105.657l-137.159,161.544l124.954,171.697c0,0 27.442,37.596 -3.038,69.091l-127,123.951l0,-129.027l29.463,-24.392c0,0 8.127,-6.092 0,-15.23l-29.463,-36.577l0,-540.508l6.687,-0.481" style="fill:#119bcf;fill-rule:nonzero;"/><path d="M3227.268,1001.824l0,-137.837l30.703,-25.414c-0.001,0 2.119,-1.689 2.351,-4.267c0.178,-1.968 -0.767,-4.13 -2.807,-6.424l-0.098,-0.116l-30.148,-37.43l0,-544.483l9.564,-0.688l0.222,3.094l1.877,-2.465l187.791,143.08c1.525,0.96 7.825,5.815 8.899,20.956l29.168,129.708l123.833,91.36l0.298,0.979c0.389,1.269 9.321,31.29 -5.93,49.947c-8.963,10.968 -24.209,15.491 -45.284,13.463l-0.859,-0.082l-128.49,-95.503c-0.385,-0.294 -8.72,-6.82 -14.327,-24.941l-0.059,-0.22l-22.992,-99.644l-131.588,154.982l123.518,169.728c0.288,0.394 28.609,40.081 -3.313,73.07l-132.325,129.149l-0.001,0.001l-0.001,-0Zm6.197,-134.924l0,120.219l121.737,-118.816c28.276,-29.221 2.958,-64.693 2.699,-65.048l-124.436,-170.987l0,155.884l28.732,35.669c3.221,3.645 4.663,7.4 4.285,11.16c-0.501,4.986 -4.038,7.963 -4.72,8.493l-28.296,23.425l-0.001,0Zm305.687,-177.703c18.434,1.633 31.563,-2.165 39.025,-11.278c11.781,-14.389 6.399,-38.234 5.077,-43.28l-124.006,-91.488l-0.253,-1.127l-29.527,-131.3l-0.016,-0.239c-0.866,-12.988 -5.993,-16.34 -6.044,-16.372l-0.312,-0.209l-186.994,-142.473l-2.64,0.189l0,375.665l140.776,-165.805l25.742,111.557c4.956,15.942 12.05,21.676 12.121,21.732l127.049,94.43l0.001,-0.001Z" style="fill:#119bcf;fill-rule:nonzero;"/></g><g><rect id="path69_1_" x="3216.311" y="3.099" width="19.653" height="1064.022" style="fill:#119bcf;"/><path d="M3239.06,1070.218l-25.849,0l0,-1070.218l25.849,0l0,1070.218Zm-19.653,-6.197l13.456,0l0,-1057.824l-13.456,0l0,1057.824Z" style="fill:#119bcf;fill-rule:nonzero;"/></g></g></g></g></g></g></g></g></g><path d="M373.948,446.418c0,-87.761 -63.827,-161.018 -170.446,-161.018l-200.184,0l-0,516.417l100.817,0l0,-194.382l99.367,0c106.619,0 170.446,-73.256 170.446,-161.018l0,0.001Zm-100.817,0c0,42.067 -29.012,70.354 -74.706,70.354l-94.289,0l0,-141.434l94.289,0c45.694,0 74.706,29.012 74.706,71.08Z" style="fill:#e8e8e8;fill-rule:nonzero;"/><path d="M822.912,543.608c0,-89.212 0.725,-153.764 -51.496,-205.987c-36.265,-36.265 -80.508,-56.573 -139.258,-56.573c-58.75,0 -103.718,20.309 -139.983,56.573c-52.222,52.222 -50.771,116.774 -50.771,205.987c0,89.212 -1.451,153.764 50.771,205.987c36.265,36.265 81.233,56.573 139.983,56.573c58.75,0 102.993,-20.309 139.258,-56.573c52.222,-52.222 51.496,-116.774 51.496,-205.987Zm-100.817,0c0,99.367 -5.802,123.302 -25.386,145.06c-14.506,16.682 -36.99,27.562 -64.552,27.562c-27.562,0 -50.771,-10.879 -65.277,-27.562c-19.583,-21.759 -24.66,-45.694 -24.66,-145.06c0,-99.367 5.077,-123.302 24.66,-145.06c14.506,-16.682 37.716,-27.562 65.277,-27.562c27.562,0 50.046,10.879 64.552,27.562c19.583,21.759 25.386,45.694 25.386,145.06Z" style="fill:#e8e8e8;fill-rule:nonzero;"/><path d="M1316.845,801.816l-115.323,-222.668c50.046,-18.132 94.289,-63.101 94.289,-135.632c0,-86.311 -62.376,-158.116 -167.545,-158.116l-202.36,0l0,516.417l100.817,0l0,-205.987l72.531,0l100.817,205.987l116.774,0l-0.001,0Zm-121.851,-358.3c0,39.892 -29.012,68.178 -73.256,68.178l-95.014,0l0,-136.357l95.014,0c44.243,0 73.256,28.287 73.256,68.178Z" style="fill:#e8e8e8;fill-rule:nonzero;"/><path d="M1732.444,375.338l0,-89.937l-370.63,0l0,89.937l134.906,0l0,426.479l100.817,0l0,-426.479l134.907,0Z" style="fill:#e8e8e8;fill-rule:nonzero;"/><path d="M2169.802,801.816l-188.58,-516.417l-79.058,0l-187.854,516.417l105.169,0l31.188,-91.388l183.502,0l30.462,91.388l105.17,0Zm-162.468,-176.249l-128.379,0l65.277,-187.854l63.101,187.854l0.001,0Z" style="fill:#e8e8e8;fill-rule:nonzero;"/><path d="M2568.72,801.817l0,-89.938l-234.274,0l0,-426.479l-100.817,0l0,516.417l335.091,0Z" style="fill:#e8e8e8;fill-rule:nonzero;"/><g><path d="M2506.238,325.345l0,-33.877l-10.425,0l0,-7.817l31.268,0l0,7.817l-10.425,0l0,33.877l-10.425,0l0.007,0l-0.001,0l0.002,0Zm66.677,0l0.002,-31.268l-11.621,31.202l-5.55,0.067l-13.026,-31.268l0,31.268l-7.817,0l0,-41.693l13.026,0l10.425,28.662l10.272,-28.44l11.852,-0.059l0.3,41.481l-7.865,0.049Z" style="fill:#e8e8e8;fill-rule:nonzero;"/></g></g></svg>