<?xml version="1.0" encoding="UTF-8" standalone="no"?><!DOCTYPE svg PUBLIC "-//W3C//DTD SVG 1.1//EN" "http://www.w3.org/Graphics/SVG/1.1/DTD/svg11.dtd"><svg width="863" height="257" viewBox="0 0 3596 1071" version="1.1" xmlns="http://www.w3.org/2000/svg" xmlns:xlink="http://www.w3.org/1999/xlink" xml:space="preserve" xmlns:serif="http://www.serif.com/" style="fill-rule:evenodd;clip-rule:evenodd;stroke-linejoin:round;stroke-miterlimit:2;"><g><path d="M111.918,939.434c0,-25.669 -18.668,-47.096 -49.853,-47.096l-58.551,0l0,151.044l29.487,0l0,-56.854l29.062,0c31.185,0 49.853,-21.427 49.853,-47.096l0.001,0.001Zm-29.487,0c0,12.304 -8.486,20.578 -21.851,20.578l-27.579,0l0,-41.368l27.579,0c13.365,0 21.851,8.486 21.851,20.79Z" style="fill:#e8e8e8;fill-rule:nonzero;"/><path d="M236.233,1043.383l0,-26.306l-70.007,0l0,-36.7l59.613,0l0,-26.306l-59.613,0l0,-35.427l70.007,0l0,-26.306l-99.495,0l0,151.044l99.495,0l0,0.001Z" style="fill:#e8e8e8;fill-rule:nonzero;"/><path d="M379.428,1043.383l-33.731,-65.128c14.639,-5.303 27.579,-18.456 27.579,-39.671c0,-25.244 -18.244,-46.247 -49.004,-46.247l-59.188,0l0,151.044l29.487,0l0,-60.249l21.215,0l29.487,60.249l34.155,0l-0,0.001Zm-35.639,-104.798c0,11.667 -8.486,19.941 -21.427,19.941l-27.791,0l0,-39.883l27.791,0c12.941,0 21.427,8.274 21.427,19.941l0,0.001Z" style="fill:#e8e8e8;fill-rule:nonzero;"/><path d="M512.23,939.434c0,-25.669 -18.668,-47.096 -49.853,-47.096l-58.551,0l0,151.044l29.487,0l0,-56.854l29.062,0c31.185,0 49.853,-21.427 49.853,-47.096l0.001,0.001Zm-29.487,0c0,12.304 -8.486,20.578 -21.851,20.578l-27.579,0l0,-41.368l27.579,0c13.365,0 21.851,8.486 21.851,20.79Z" style="fill:#e8e8e8;fill-rule:nonzero;"/><path d="M636.543,1043.383l0,-26.306l-70.007,0l0,-36.7l59.613,0l0,-26.306l-59.613,0l0,-35.427l70.007,0l0,-26.306l-99.495,0l0,151.044l99.495,0l0,0.001Z" style="fill:#e8e8e8;fill-rule:nonzero;"/><path d="M762.556,918.644l0,-26.306l-108.404,0l0,26.306l39.458,0l0,124.74l29.487,0l0,-124.74l39.459,0Z" style="fill:#e8e8e8;fill-rule:nonzero;"/><path d="M895.356,991.621l0,-99.283l-29.275,0l0,98.222c0,17.395 -10.394,27.791 -26.306,27.791c-15.912,0 -26.094,-10.394 -26.094,-27.791l0,-98.222l-29.487,0l0,99.283c0,32.033 24.608,53.036 55.58,53.036c30.972,0 55.58,-21.003 55.58,-53.036l0.002,0Z" style="fill:#e8e8e8;fill-rule:nonzero;"/><path d="M1044.917,1043.383l-55.156,-151.044l-23.123,0l-54.944,151.044l30.76,0l9.123,-26.73l53.673,0l8.911,26.73l30.76,0l-0.002,0Zm-47.521,-51.55l-37.549,0l19.093,-54.944l18.456,54.944Z" style="fill:#e8e8e8;fill-rule:nonzero;"/><path d="M1161.594,1043.383l0,-26.306l-68.521,0l0,-124.74l-29.487,0l0,151.044l98.01,0l-0.001,0.001Z" style="fill:#e8e8e8;fill-rule:nonzero;"/><path d="M1331.943,918.644l0,-26.306l-108.404,0l0,26.306l39.458,0l0,124.74l29.487,0l0,-124.74l39.459,0Z" style="fill:#e8e8e8;fill-rule:nonzero;"/><path d="M1455.41,1043.383l0,-26.306l-70.007,0l0,-36.7l59.613,0l0,-26.306l-59.613,0l0,-35.427l70.007,0l0,-26.306l-99.495,0l0,151.044l99.495,0l0,0.001Z" style="fill:#e8e8e8;fill-rule:nonzero;"/><path d="M1581.845,998.834c0,-13.365 -3.606,-24.396 -11.667,-32.033c-6.364,-5.94 -15.063,-9.757 -28.852,-11.667l-17.82,-2.547c-6.152,-0.849 -11.031,-3.183 -14.002,-5.94c-3.183,-2.971 -4.454,-7.001 -4.454,-10.819c0,-10.394 7.638,-19.093 23.335,-19.093c9.97,0 21.427,1.273 30.972,10.394l18.668,-18.456c-12.941,-12.516 -28.003,-17.607 -48.792,-17.607c-32.67,0 -52.612,18.88 -52.612,45.823c0,12.729 3.606,22.487 10.819,29.699c6.789,6.576 16.334,10.606 29.275,12.516l18.244,2.547c7.001,1.061 10.394,2.547 13.365,5.303c3.183,2.971 4.666,7.425 4.666,12.729c0,12.092 -9.335,18.668 -26.73,18.668c-14.002,0 -26.942,-3.183 -36.488,-12.729l-19.093,19.093c14.85,15.063 32.245,19.941 55.156,19.941c31.609,0 56.005,-16.546 56.005,-45.823l0.001,0.001l0.002,0Z" style="fill:#e8e8e8;fill-rule:nonzero;"/><path d="M1706.798,918.644l0,-26.306l-108.404,0l0,26.306l39.458,0l0,124.74l29.487,0l0,-124.74l39.459,0Z" style="fill:#e8e8e8;fill-rule:nonzero;"/><rect x="1730.769" y="892.338" width="29.487" height="151.044" style="fill:#e8e8e8;"/><path d="M1911.09,1043.383l0,-151.044l-29.487,0l0,92.495l-59.824,-92.495l-26.306,0l0,151.044l29.487,0l0,-92.706l59.824,92.706l26.306,0Z" style="fill:#e8e8e8;fill-rule:nonzero;"/><path d="M2053.861,981.438l0,-22.065l-57.066,0l0,24.608l27.791,0l0,5.728c0,7.849 -1.91,14.639 -6.789,20.154c-4.879,5.303 -12.092,8.486 -21.003,8.486c-8.062,0 -14.639,-2.971 -18.88,-7.849c-5.728,-6.364 -7.213,-13.577 -7.213,-42.64c0,-29.062 1.485,-36.063 7.213,-42.427c4.242,-4.879 10.819,-8.062 18.88,-8.062c15.063,0 23.759,7.849 27.154,22.063l29.699,0c-4.03,-25.457 -21.851,-48.367 -56.854,-48.367c-16.971,0 -30.124,5.94 -40.732,16.546c-15.275,15.275 -14.85,34.155 -14.85,60.249c0,26.094 -0.425,44.974 14.85,60.249c10.606,10.606 24.184,16.546 40.732,16.546c16.122,0 30.548,-4.666 42.64,-17.183c10.606,-11.031 14.426,-24.184 14.426,-46.035l0.002,0Z" style="fill:#e8e8e8;fill-rule:nonzero;"/><rect x="2132.989" y="892.338" width="29.487" height="151.044" style="fill:#e8e8e8;"/><path d="M2313.309,1043.383l0,-151.044l-29.487,0l0,92.495l-59.824,-92.495l-26.306,0l0,151.044l29.487,0l0,-92.706l59.824,92.706l26.306,0Z" style="fill:#e8e8e8;fill-rule:nonzero;"/><rect x="2348.525" y="892.338" width="29.487" height="151.044" style="fill:#e8e8e8;"/><path d="M2510.39,918.644l0,-26.306l-108.404,0l0,26.306l39.458,0l0,124.74l29.487,0l0,-124.74l39.459,0Z" style="fill:#e8e8e8;fill-rule:nonzero;"/><rect x="2534.361" y="892.338" width="29.487" height="151.044" style="fill:#e8e8e8;"/><path d="M2715.742,1043.383l-55.156,-151.044l-23.123,0l-54.944,151.044l30.76,0l9.123,-26.73l53.673,0l8.911,26.73l30.76,0l-0.002,0Zm-47.521,-51.55l-37.549,0l19.093,-54.944l18.456,54.944Z" style="fill:#e8e8e8;fill-rule:nonzero;"/><path d="M2818.843,918.644l0,-26.306l-108.404,0l0,26.306l39.458,0l0,124.74l29.487,0l0,-124.74l39.459,0Z" style="fill:#e8e8e8;fill-rule:nonzero;"/><rect x="2842.815" y="892.338" width="29.487" height="151.044" style="fill:#e8e8e8;"/><path d="M3012.531,892.338l-30.762,-0l-30.335,98.434l-30.335,-98.434l-30.548,0l49.853,151.044l22.063,0l50.065,-151.044Z" style="fill:#e8e8e8;fill-rule:nonzero;"/><path d="M3130.266,1043.383l0,-26.306l-70.007,0l0,-36.7l59.613,0l0,-26.306l-59.613,0l0,-35.427l70.007,0l0,-26.306l-99.495,0l0,151.044l99.495,0l0,0.001Z" style="fill:#e8e8e8;fill-rule:nonzero;"/></g><g><g><g><g><clipPath id="_clip1"><rect x="2726.073" y="0" width="865.43" height="1070.051"/></clipPath><g clip-path="url(#_clip1)"><g><rect x="3216.778" y="3.099" width="9.83" height="1064.042" style="fill:#119bcf;"/><g id="g48"><g id="g46"><path id="path42" d="M2733.079,795.225l0.351,-75.644l198.383,-192.296l0.206,-0.163c20.044,-16.662 34.946,-31.655 44.316,-44.596c8.81,-12.169 13.275,-24.748 13.275,-37.407c0,-18.15 -5.79,-32.244 -17.69,-43.088c-11.93,-10.862 -28.024,-16.368 -47.815,-16.368c-19.076,0 -34.728,5.303 -47.827,16.186c-12.717,10.557 -18.894,26.263 -18.894,48.009l0,6.97l-123.459,0l0,-6.97c0,-34.65 8.465,-65.505 25.186,-91.711c16.685,-26.161 39.877,-46.504 68.935,-60.463c28.824,-13.83 61.129,-20.834 96.063,-20.834c26.427,0 51.341,3.847 74.052,11.434c22.857,7.636 43.095,18.852 60.157,33.325c17.194,14.587 30.751,32.553 40.318,53.399c9.585,20.825 14.43,43.875 14.43,68.517c0,20.816 -4.767,40.469 -14.182,58.395c-9.197,17.524 -21.933,34.702 -37.831,51.035c-15.621,16.058 -34.981,33.834 -57.529,52.843l-94.303,80.623l214.95,0l0,108.816l-391.092,0l0,-0.012Z" style="fill:#e8e8e8;fill-rule:nonzero;"/><path id="path44" d="M2924.118,283.82c25.81,0 49.761,3.698 71.845,11.077c22.102,7.384 41.384,18.047 57.857,32.032c16.468,13.967 29.306,30.946 38.484,50.99c9.203,20.026 13.807,41.905 13.807,65.614c0,19.766 -4.458,38.166 -13.383,55.157c-8.919,17 -21.133,33.473 -36.651,49.423c-15.502,15.937 -34.517,33.398 -57.022,52.37l-108.696,92.907l226.85,0l0,94.876l-377.121,0l0.303,-65.722l196.089,-190.054c20.589,-17.124 35.756,-32.419 45.496,-45.866c9.74,-13.437 14.618,-27.271 14.618,-41.498c0,-20.041 -6.655,-36.112 -19.965,-48.245c-13.31,-12.106 -30.819,-18.19 -52.509,-18.19c-20.578,0 -38.007,5.933 -52.286,17.799c-14.273,11.864 -21.406,29.651 -21.406,53.365l-109.519,0c0,-33.477 8.035,-62.782 24.097,-87.971c16.058,-25.168 38.091,-44.471 66.08,-57.917c27.989,-13.435 59.014,-20.148 93.034,-20.148m0,-13.94c-35.98,0 -69.309,7.245 -99.078,21.527c-30.257,14.527 -54.41,35.722 -71.797,62.993c-17.442,27.353 -26.275,59.471 -26.275,95.461l0,13.939l137.398,0l0,-13.939c0,-19.539 5.354,-33.488 16.371,-42.646c11.804,-9.807 25.991,-14.585 43.373,-14.585c18.253,0 32.356,4.76 43.13,14.563c10.357,9.449 15.398,21.856 15.398,37.934c0,11.313 -3.92,22.204 -11.973,33.315c-9.01,12.466 -23.522,27.039 -43.106,43.325l-0.412,0.339l-0.382,0.363l-196.089,190.063l-4.21,4.083l-0.025,5.875l-0.296,65.717l-0.073,14.012l405.086,0l0,-122.758l-203.029,0l79.995,-68.365c22.651,-19.094 42.175,-37.044 57.96,-53.253c16.358,-16.83 29.493,-34.55 39.005,-52.666c9.946,-18.93 14.987,-39.668 14.987,-61.638c0,-25.651 -5.07,-49.677 -15.078,-71.437c-9.97,-21.778 -24.152,-40.554 -42.126,-55.799c-17.732,-15.057 -38.757,-26.703 -62.449,-34.616c-23.461,-7.836 -49.12,-11.806 -76.304,-11.806l0.003,-0.001l-0.002,-0Z" style="fill:#e8e8e8;fill-rule:nonzero;"/></g></g><g id="Clip"><g id="g1165"><g id="Clip1" serif:id="Clip"><g id="g71"><g><path id="path65_1_" d="M3525.451,226.502c0,60.051 -48.679,108.723 -108.722,108.723c-60.047,0 -108.725,-48.672 -108.725,-108.723c0,-60.043 48.678,-108.721 108.725,-108.721c60.043,0 108.722,48.677 108.722,108.721" style="fill:#119bcf;fill-rule:nonzero;"/><path d="M3416.73,338.322c-61.659,0 -111.824,-50.163 -111.824,-111.822c0,-61.656 50.163,-111.819 111.824,-111.819c61.657,0 111.821,50.161 111.821,111.819c0,61.657 -50.162,111.822 -111.821,111.822Zm0,-217.444c-58.244,0 -105.629,47.383 -105.629,105.623c0,58.242 47.385,105.626 105.629,105.626c58.242,0 105.625,-47.384 105.625,-105.626c0,-58.241 -47.383,-105.623 -105.625,-105.623Z" style="fill:#119bcf;fill-rule:nonzero;"/></g><g><path id="path67_1_" d="M3236.745,248.22l187.893,143.158c0,0 6.552,3.596 7.569,18.837l29.469,131.045l123.919,91.424c0,0 20.16,65.984 -47.948,59.412l-127.778,-94.973c0,0 -7.834,-5.984 -13.213,-23.366l-24.375,-105.641l-137.138,161.519l124.935,171.67c0,0 27.438,37.59 -3.038,69.08l-126.98,123.932l0,-129.007l29.458,-24.388c0,0 8.126,-6.091 0,-15.228l-29.458,-36.571l0,-540.424l6.686,-0.481" style="fill:#119bcf;fill-rule:nonzero;"/><path d="M3226.962,1001.668l0,-137.816l30.698,-25.41c-0.001,0 2.119,-1.689 2.351,-4.266c0.178,-1.968 -0.767,-4.129 -2.807,-6.423l-0.098,-0.116l-30.143,-37.424l0,-544.398l9.563,-0.688l0.222,3.094l1.877,-2.465l187.762,143.058c1.525,0.96 7.824,5.814 8.898,20.953l29.163,129.688l123.814,91.346l0.298,0.979c0.389,1.269 9.32,31.285 -5.929,49.939c-8.962,10.966 -24.205,15.489 -45.277,13.461l-0.859,-0.082l-128.47,-95.488c-0.385,-0.294 -8.719,-6.819 -14.325,-24.937l-0.059,-0.22l-22.988,-99.628l-131.568,154.958l123.499,169.702c0.288,0.394 28.605,40.075 -3.312,73.059l-132.304,129.129l-0.001,0.001l-0.001,0l-0.002,-0.003Zm6.196,-134.904l0,120.201l121.718,-118.798c28.272,-29.216 2.958,-64.683 2.699,-65.038l-124.417,-170.96l0,155.86l28.728,35.663c3.22,3.644 4.662,7.399 4.284,11.158c-0.501,4.985 -4.037,7.962 -4.719,8.492l-28.292,23.421l-0.001,0Zm305.639,-177.674c18.431,1.633 31.558,-2.165 39.019,-11.276c11.779,-14.387 6.398,-38.228 5.076,-43.273l-123.987,-91.474l-0.253,-1.127l-29.522,-131.28l-0.016,-0.239c-0.866,-12.986 -5.992,-16.337 -6.043,-16.369l-0.312,-0.209l-186.965,-142.451l-2.64,0.189l0,375.607l140.754,-165.779l25.738,111.54c4.955,15.94 12.048,21.673 12.119,21.729l127.029,94.415l0.002,-0.002Z" style="fill:#119bcf;fill-rule:nonzero;"/></g><g><rect id="path69_1_" x="3216.007" y="3.099" width="19.65" height="1063.856" style="fill:#119bcf;"/><path d="M3238.752,1070.051l-25.845,0l0,-1070.051l25.845,0l0,1070.051Zm-19.65,-6.196l13.454,0l0,-1057.659l-13.454,0l0,1057.659Z" style="fill:#119bcf;fill-rule:nonzero;"/></g></g></g></g></g></g></g></g></g></g><path d="M374.086,446.349c0,-87.747 -63.817,-160.993 -170.419,-160.993l-200.153,0l0,516.337l100.801,-0l0,-194.352l99.352,0c106.602,0 170.419,-73.245 170.419,-160.993l0,0.001Zm-100.801,0c0,42.06 -29.007,70.343 -74.694,70.343l-94.274,0l0,-141.412l94.274,0c45.687,0 74.694,29.007 74.694,71.069Z" style="fill:#e8e8e8;fill-rule:nonzero;"/><path d="M822.98,543.523c0,-89.198 0.725,-153.74 -51.488,-205.955c-36.259,-36.259 -80.495,-56.564 -139.236,-56.564c-58.741,0 -103.702,20.306 -139.961,56.564c-52.214,52.214 -50.763,116.756 -50.763,205.955c0,89.198 -1.451,153.74 50.763,205.955c36.259,36.259 81.22,56.564 139.961,56.564c58.741,0 102.977,-20.306 139.236,-56.564c52.214,-52.214 51.488,-116.756 51.488,-205.955Zm-100.801,0c0,99.352 -5.801,123.283 -25.382,145.037c-14.504,16.679 -36.984,27.558 -64.542,27.558c-27.558,0 -50.763,-10.877 -65.267,-27.558c-19.58,-21.756 -24.656,-45.687 -24.656,-145.037c0,-99.352 5.076,-123.283 24.656,-145.037c14.504,-16.679 37.71,-27.558 65.267,-27.558c27.558,0 50.038,10.877 64.542,27.558c19.58,21.756 25.382,45.687 25.382,145.037Z" style="fill:#e8e8e8;fill-rule:nonzero;"/><path d="M1316.837,801.691l-115.305,-222.633c50.038,-18.129 94.274,-63.091 94.274,-135.611c0,-86.298 -62.366,-158.091 -167.519,-158.091l-202.329,0l0,516.337l100.801,-0l0,-205.955l72.52,0l100.801,205.955l116.756,0l-0.001,0l0.001,-0.001Zm-121.832,-358.244c0,39.886 -29.007,68.167 -73.245,68.167l-94.999,0l0,-136.336l94.999,0c44.236,0 73.245,28.283 73.245,68.167l0,0.001Z" style="fill:#e8e8e8;fill-rule:nonzero;"/><path d="M1732.371,375.28l0,-89.923l-370.572,0l0,89.923l134.885,0l0,426.413l100.801,0l0,-426.413l134.886,0Z" style="fill:#e8e8e8;fill-rule:nonzero;"/><path d="M2169.661,801.691l-188.551,-516.337l-79.046,0l-187.825,516.337l105.153,0l31.183,-91.374l183.473,0l30.457,91.374l105.155,0Zm-162.443,-176.222l-128.359,0l65.267,-187.825l63.091,187.825l0.001,0Z" style="fill:#e8e8e8;fill-rule:nonzero;"/><path d="M2568.517,801.692l0,-89.924l-234.238,0l0,-426.413l-100.801,0l0,516.337l335.039,0Z" style="fill:#e8e8e8;fill-rule:nonzero;"/><g><path d="M2506.044,325.294l0,-33.872l-10.423,0l0,-7.816l31.263,0l0,7.816l-10.423,0l0,33.872l-10.423,0l0.007,0l-0.001,0l0.002,0l-0.001,0Zm66.667,0l0.002,-31.263l-11.619,31.197l-5.549,0.067l-13.024,-31.263l0,31.263l-7.816,0l0,-41.687l13.024,0l10.423,28.658l10.27,-28.436l11.85,-0.059l0.3,41.475l-7.864,0.049l0.002,-0.001Z" style="fill:#e8e8e8;fill-rule:nonzero;"/></g></g></svg>