<?xml version="1.0" encoding="UTF-8" standalone="no"?><!DOCTYPE svg PUBLIC "-//W3C//DTD SVG 1.1//EN" "http://www.w3.org/Graphics/SVG/1.1/DTD/svg11.dtd"><svg width="100%" height="100%" viewBox="0 0 1667 1667" version="1.1" xmlns="http://www.w3.org/2000/svg" xmlns:xlink="http://www.w3.org/1999/xlink" xml:space="preserve" xmlns:serif="http://www.serif.com/" style="fill-rule:evenodd;clip-rule:evenodd;stroke-linejoin:round;stroke-miterlimit:2;"><path d="M1666.667,289.854l0,1086.958c0,159.975 -129.879,289.854 -289.854,289.854l-1086.958,0c-159.975,0 -289.854,-129.879 -289.854,-289.854l0,-1086.958c0,-159.975 129.879,-289.854 289.854,-289.854l1086.958,0c159.975,0 289.854,129.879 289.854,289.854Z" style="fill:#050506;"/><clipPath id="_clip1"><rect x="230.122" y="87.5" width="1206.423" height="1491.667"/></clipPath><g clip-path="url(#_clip1)"><g><rect x="914.17" y="91.818" width="13.704" height="1483.291" style="fill:#119bcf;"/><g id="g48"><g id="g46"><path id="path42" d="M239.889,1196.056l0.489,-105.45l276.549,-268.064l0.288,-0.227c27.941,-23.228 48.714,-44.127 61.777,-62.167c12.28,-16.964 18.505,-34.499 18.505,-52.147c0,-25.302 -8.072,-44.949 -24.661,-60.066c-16.632,-15.143 -39.065,-22.819 -66.653,-22.819c-26.592,0 -48.411,7.393 -66.67,22.565c-17.728,14.717 -26.339,36.612 -26.339,66.923l0,9.716l-172.103,0l0,-9.716c0,-48.302 11.799,-91.314 35.11,-127.846c23.261,-36.469 55.588,-64.827 96.097,-84.285c40.179,-19.28 85.216,-29.042 133.914,-29.042c36.839,0 71.57,5.364 103.231,15.94c31.864,10.644 60.076,26.281 83.859,46.455c23.97,20.334 42.869,45.379 56.203,74.438c13.36,29.029 20.115,61.163 20.115,95.515c0,29.017 -6.646,56.414 -19.769,81.404c-12.82,24.43 -30.574,48.374 -52.738,71.144c-21.776,22.384 -48.763,47.164 -80.197,73.663l-131.461,112.391l299.642,0l0,151.691l-545.187,0l0,-0.016Z" style="fill:#fff;fill-rule:nonzero;"/><path id="path44" d="M506.199,483.148c35.979,0 69.368,5.157 100.152,15.443c30.81,10.294 57.689,25.158 80.654,44.653c22.957,19.47 40.854,43.14 53.648,71.082c12.828,27.916 19.247,58.417 19.247,91.466c0,27.554 -6.216,53.205 -18.656,76.892c-12.432,23.7 -29.46,46.661 -51.092,68.896c-21.608,22.214 -48.116,46.556 -79.491,73.004l-151.524,129.513l316.231,0l0,132.259l-525.712,0l0.422,-91.617l273.352,-264.939c28.701,-23.872 49.845,-45.193 63.423,-63.938c13.579,-18.731 20.376,-38.016 20.376,-57.848c0,-27.937 -9.277,-50.342 -27.831,-67.256c-18.555,-16.877 -42.963,-25.357 -73.198,-25.357c-28.685,0 -52.982,8.27 -72.887,24.813c-19.896,16.539 -29.839,41.334 -29.839,74.391l-152.671,0c0,-46.666 11.201,-87.519 33.592,-122.634c22.384,-35.085 53.1,-61.994 92.116,-80.737c39.016,-18.729 82.265,-28.086 129.689,-28.086m0,-19.432c-50.157,0 -96.619,10.099 -138.114,30.008c-42.179,20.25 -75.847,49.798 -100.086,87.814c-24.315,38.13 -36.628,82.902 -36.628,133.075l0,19.431l191.534,0l0,-19.431c0,-27.237 7.464,-46.682 22.822,-59.45c16.455,-13.673 36.232,-20.331 60.463,-20.331c25.445,0 45.104,6.637 60.126,20.301c14.439,13.17 21.465,30.467 21.465,52.881c0,15.771 -5.465,30.952 -16.691,46.44c-12.558,17.379 -32.791,37.691 -60.091,60.396l-0.574,0.473l-0.532,0.506l-273.352,264.952l-5.87,5.693l-0.035,8.19l-0.412,91.609l-0.102,19.533l564.696,0l0,-171.125l-283.027,0l111.513,-95.303c31.578,-26.617 58.794,-51.641 80.798,-74.235c22.805,-23.462 41.116,-48.162 54.374,-73.417c13.866,-26.39 20.891,-55.297 20.891,-85.925c0,-35.757 -7.068,-69.252 -21.017,-99.584c-13.899,-30.358 -33.668,-56.533 -58.725,-77.786c-24.72,-20.988 -54.028,-37.224 -87.055,-48.255c-32.707,-10.922 -68.475,-16.459 -106.369,-16.459Z" style="fill:#fff;fill-rule:nonzero;"/></g></g><g id="Clip"><g id="g1165"><g id="Clip1" serif:id="Clip"><g id="g71"><g><path id="path65_1_" d="M1344.465,403.246c0,83.71 -67.861,151.561 -151.56,151.561c-83.705,0 -151.565,-67.851 -151.565,-151.561c0,-83.7 67.859,-151.558 151.565,-151.558c83.7,0 151.56,67.858 151.56,151.558" style="fill:#119bcf;fill-rule:nonzero;"/><path d="M1192.905,559.126c-85.954,0 -155.883,-69.928 -155.883,-155.88c0,-85.951 69.929,-155.876 155.883,-155.876c85.952,0 155.879,69.926 155.879,155.876c0,85.952 -69.928,155.88 -155.879,155.88Zm0,-303.12c-81.193,0 -147.247,66.052 -147.247,147.239c0,81.189 66.054,147.243 147.247,147.243c81.189,0 147.241,-66.054 147.241,-147.243c0,-81.188 -66.052,-147.239 -147.241,-147.239Z" style="fill:#119bcf;fill-rule:nonzero;"/></g><g><path id="path67_1_" d="M942.005,433.523l261.924,199.564c0,0 9.134,5.014 10.551,26.259l41.082,182.677l172.744,127.446c0,0 28.103,91.981 -66.839,82.821l-178.125,-132.394c0,0 -10.921,-8.343 -18.419,-32.573l-33.98,-147.264l-191.171,225.16l174.159,239.312c0,0 38.247,52.401 -4.233,96.299l-177.013,172.763l0,-179.838l41.066,-33.998c0,0 11.327,-8.491 0,-21.227l-41.066,-50.982l0,-753.358l9.32,-0.67" style="fill:#119bcf;fill-rule:nonzero;"/><path d="M928.367,1483.84l0,-192.116l42.794,-35.423c-0.002,0 2.953,-2.354 3.276,-5.948c0.248,-2.743 -1.069,-5.757 -3.913,-8.953l-0.137,-0.162l-42.02,-52.17l0,-758.899l13.329,-0.958l0.309,4.311l2.616,-3.435l261.743,199.424c2.125,1.339 10.906,8.105 12.403,29.208l40.655,180.786l172.598,127.337l0.415,1.365c0.542,1.768 12.991,43.612 -8.265,69.616c-12.493,15.288 -33.743,21.591 -63.116,18.765l-1.197,-0.115l-179.089,-133.113c-0.536,-0.409 -12.153,-9.505 -19.968,-34.763l-0.083,-0.306l-32.048,-138.884l-183.405,216.014l172.159,236.566c0.401,0.549 39.875,55.865 -4.619,101.844l-184.435,180.007Zm8.637,-188.057l0,167.561l169.677,-165.604c39.41,-40.728 4.122,-90.169 3.761,-90.664l-173.438,-238.322l0,217.271l40.046,49.716c4.491,5.081 6.5,10.314 5.972,15.555c-0.699,6.95 -5.629,11.099 -6.58,11.837l-39.439,32.65Zm426.066,-247.682c25.693,2.276 43.993,-3.017 54.394,-15.719c16.42,-20.054 8.918,-53.291 7.077,-60.324l-172.838,-127.516l-0.352,-1.57l-41.155,-183.005l-0.023,-0.334c-1.206,-18.103 -8.353,-22.775 -8.424,-22.82l-0.434,-0.291l-260.631,-198.578l-3.678,0.264l0,523.599l196.212,-231.099l35.879,155.487c6.908,22.219 16.796,30.212 16.895,30.29l177.08,131.616Z" style="fill:#119bcf;fill-rule:nonzero;"/></g><g><rect id="path69_1_" x="913.095" y="91.818" width="27.392" height="1483.031" style="fill:#119bcf;fill-rule:nonzero;"/><path d="M944.804,1579.167l-36.029,0l0,-1491.667l36.029,-0l0,1491.667Zm-27.392,-8.637l18.755,0l0,-1474.393l-18.755,0l0,1474.393Z" style="fill:#119bcf;fill-rule:nonzero;"/></g></g></g></g></g></g></g></svg>