<?xml version="1.0" encoding="UTF-8" standalone="no"?><!DOCTYPE svg PUBLIC "-//W3C//DTD SVG 1.1//EN" "http://www.w3.org/Graphics/SVG/1.1/DTD/svg11.dtd"><svg width="519px" height="130px" viewBox="0 0 2160 540" version="1.1" xmlns="http://www.w3.org/2000/svg" xmlns:xlink="http://www.w3.org/1999/xlink" xml:space="preserve" xmlns:serif="http://www.serif.com/" style="fill-rule:evenodd;clip-rule:evenodd;stroke-linejoin:round;stroke-miterlimit:2;"><g id="Logo_00000070105257944253160430000015232160730228536731_"><g id="Text_00000017503749535232430410000014993304957217422500_"><g><path d="M484.75,345.292l0,-295.833l50.458,-0l0,295.833l-50.458,0Zm23.583,-114.75l0,-48.417l52.292,0c6.25,0 11.125,-2.125 14.667,-6.417c3.542,-4.292 5.292,-10.208 5.292,-17.792l0,-34.792c0,-8 -1.75,-14.208 -5.208,-18.625c-3.458,-4.417 -8.375,-6.625 -14.75,-6.625l-52.292,0l0,-48.417l53.708,0c14.792,0 27.333,2.583 37.625,7.75c10.292,5.167 18.208,12.667 23.708,22.583c5.5,9.917 8.25,21.917 8.25,36l0,49.833c0,13.708 -2.75,25.417 -8.25,35.083c-5.5,9.708 -13.417,17.083 -23.792,22.167c-10.375,5.083 -22.875,7.625 -37.542,7.625l-53.708,0l0,0.042Z" style="fill:#fff;fill-rule:nonzero;"/><path d="M748.875,348.333c-15.875,0 -29.458,-2.75 -40.792,-8.25c-11.333,-5.5 -19.958,-13.417 -25.958,-23.792c-5.958,-10.375 -8.958,-22.875 -8.958,-37.542l0,-162.75c0,-14.792 3,-27.375 8.958,-37.75c5.958,-10.375 14.625,-18.292 25.958,-23.708c11.333,-5.417 24.917,-8.125 40.792,-8.125c15.875,0 29.458,2.708 40.792,8.125c11.333,5.417 19.958,13.333 25.958,23.708c5.958,10.375 8.958,22.958 8.958,37.75l0,162.75c0,14.667 -3,27.167 -8.958,37.542c-5.958,10.375 -14.625,18.292 -25.958,23.792c-11.333,5.5 -24.917,8.25 -40.792,8.25Zm0,-50.458c7.875,0 13.917,-2.25 18.208,-6.708c4.292,-4.458 6.417,-10.792 6.417,-18.917l0,-150.167c0,-8 -2.125,-14.25 -6.417,-18.708c-4.292,-4.458 -10.333,-6.708 -18.208,-6.708c-7.75,0 -13.75,2.25 -18,6.708c-4.25,4.458 -6.417,10.708 -6.417,18.708l0,150.167c0,8.125 2.125,14.458 6.417,18.917c4.292,4.458 10.25,6.708 18,6.708Z" style="fill:#fff;fill-rule:nonzero;"/><path d="M867.125,345.292l0,-296.042l49.458,0l0,296l-49.458,0l0,0.042Zm22.583,-125.125l0,-48.417l53.292,0c6.625,0 11.792,-1.75 15.458,-5.208c3.667,-3.458 5.5,-8.25 5.5,-14.333l0,-32.958c0,-6.792 -1.833,-12.083 -5.5,-15.875c-3.667,-3.792 -8.833,-5.708 -15.458,-5.708l-53.292,0l0,-48.417l50.25,0c16,0 29.667,2.625 41,7.833c11.333,5.208 19.958,12.833 25.958,22.875c5.958,10.042 8.958,22.167 8.958,36.417l0,34.583c0,14.667 -3,27.125 -8.958,37.417c-5.958,10.292 -14.625,18.167 -25.958,23.583c-11.333,5.417 -25,8.125 -41,8.125l-50.25,0l0,0.083Zm80.375,125.125l-39.25,-134.292l46.167,-9.375l47.208,143.625l-54.125,0l0,0.042Z" style="fill:#fff;fill-rule:nonzero;"/><path d="M1045.375,97.875l0,-48.417l148.125,0l0,48.417l-148.125,0Zm48.833,247.417l0,-271l50.458,-0l0,271l-50.458,0Z" style="fill:#fff;fill-rule:nonzero;"/><path d="M1195.375,345.292l70.583,-295.833l35.417,-0l70.583,295.833l-50.042,0l-38.25,-193.875l-38.25,193.875l-50.042,0Zm48,-46l0,-47.208l80.583,0l0,47.208l-80.583,0Z" style="fill:#fff;fill-rule:nonzero;"/><path d="M1404.333,345.292l0,-295.833l50.458,-0l0,295.833l-50.458,0Zm20.75,0l0,-48.417l106.625,0l0,48.417l-106.625,0Z" style="fill:#fff;fill-rule:nonzero;"/><path d="M1663.875,345.292l0,-46.208l74.5,-103.75c11.375,-15.75 19.667,-29.792 24.917,-42.125c5.25,-12.333 7.875,-23.042 7.875,-32.125l0,-3.875c0,-6.792 -1.875,-12 -5.583,-15.667c-3.75,-3.667 -9,-5.5 -15.75,-5.5c-7.625,0 -13.542,2.333 -17.667,7c-4.167,4.667 -6.25,11.292 -6.25,19.833l0,10.583l-64.083,0l0,-10.542c0,-24.292 7.542,-43.083 22.625,-56.458c15.083,-13.375 36.458,-20.042 64.083,-20.042c27.625,0 49,6.167 64.083,18.5c15.083,12.333 22.625,29.833 22.625,52.5l0,3.875c0,10.833 -2.958,23.375 -8.917,37.542c-5.917,14.167 -14.917,30.292 -26.958,48.333l-58.75,88.5l94.083,0l0,49.625l-170.833,0Z" style="fill:#fff;fill-rule:nonzero;"/></g><g opacity="0.6"><path d="M519.667,508.875c-6.958,0 -12.958,-1.5 -18,-4.458c-5.042,-2.958 -8.958,-7.167 -11.708,-12.625c-2.75,-5.458 -4.125,-11.958 -4.125,-19.583l0,-45.625c0,-7.625 1.375,-14.208 4.125,-19.625c2.75,-5.458 6.667,-9.667 11.708,-12.625c5.042,-2.958 11.042,-4.458 18,-4.458c6.583,0 12.292,1.333 17.125,4c4.833,2.667 8.667,6.583 11.5,11.667c2.833,5.125 4.5,11.25 4.958,18.5l-13.708,0c-0.5,-4.417 -1.583,-8.208 -3.375,-11.333c-1.792,-3.125 -4.042,-5.5 -6.875,-7.167c-2.792,-1.667 -6.042,-2.5 -9.667,-2.5c-6.167,0 -11.042,2.125 -14.667,6.333c-3.625,4.208 -5.458,9.958 -5.458,17.25l0,45.625c0,7.292 1.833,13 5.458,17.208c3.625,4.208 8.542,6.292 14.667,6.292c5.458,0 9.958,-1.792 13.5,-5.417c3.542,-3.625 5.667,-8.792 6.375,-15.583l13.708,0c-0.5,7.208 -2.167,13.375 -5,18.5c-2.875,5.125 -6.708,9 -11.5,11.667c-4.792,2.625 -10.5,3.958 -17.042,3.958Z" style="fill:#fff;fill-rule:nonzero;"/><path d="M606.75,508.875c-7.333,0 -13.583,-1.417 -18.792,-4.292c-5.208,-2.875 -9.208,-7 -12,-12.375c-2.792,-5.375 -4.167,-11.875 -4.167,-19.417l0,-46.833c0,-7.542 1.375,-14 4.167,-19.417c2.792,-5.417 6.792,-9.542 12,-12.375c5.208,-2.875 11.458,-4.292 18.792,-4.292c7.333,0 13.583,1.417 18.792,4.292c5.208,2.875 9.208,7 12,12.375c2.792,5.375 4.167,11.875 4.167,19.417l0,46.833c0,7.542 -1.375,14 -4.167,19.417c-2.792,5.417 -6.792,9.542 -12,12.375c-5.208,2.875 -11.5,4.292 -18.792,4.292Zm0,-13.208c6.625,0 11.792,-2 15.542,-5.958c3.75,-4 5.625,-9.458 5.625,-16.375l0,-47.792c0,-7 -1.875,-12.5 -5.625,-16.458c-3.75,-3.958 -8.917,-5.917 -15.542,-5.917c-6.625,0 -11.833,1.958 -15.583,5.917c-3.75,3.958 -5.667,9.417 -5.667,16.458l0,47.792c0,6.958 1.875,12.417 5.667,16.375c3.75,3.958 8.958,5.958 15.583,5.958Z" style="fill:#fff;fill-rule:nonzero;"/><path d="M709,470.875l30.458,-79.792l13.083,0l0,116.583l-13.167,0l0,-92.375l1.042,5.125l-26.542,70.333l-9.792,0l-26.542,-68.708l1.125,-6.75l0,92.375l-13.25,0l0,-116.583l13.167,0l30.417,79.792Z" style="fill:#fff;fill-rule:nonzero;"/><path d="M822.625,470.875l30.458,-79.792l13.083,0l0,116.583l-13.167,0l0,-92.375l1.042,5.125l-26.542,70.333l-9.792,0l-26.542,-68.708l1.125,-6.75l0,92.375l-13.25,0l0,-116.583l13.167,0l30.417,79.792Z" style="fill:#fff;fill-rule:nonzero;"/><path d="M925.167,508.875c-11.083,0 -19.458,-2.958 -25.125,-8.958c-5.708,-5.958 -8.542,-14.667 -8.542,-26.167l0,-82.667l13.708,0l0,83.125c0,7 1.667,12.292 5.042,15.875c3.375,3.583 8.333,5.375 14.917,5.375c6.625,0 11.625,-1.792 15.042,-5.375c3.375,-3.583 5.083,-8.875 5.083,-15.875l0,-83.125l13.708,0l0,82.667c0,11.5 -2.875,20.208 -8.625,26.167c-5.75,6 -14.125,8.958 -25.208,8.958Z" style="fill:#fff;fill-rule:nonzero;"/><path d="M982.75,507.583l0,-116.5l12.583,0l48.5,95l-2.875,0.792l0,-95.792l13.458,0l0,116.5l-12.833,0l-48.583,-94.208l3.125,-0.417l0,94.625l-13.375,0Z" style="fill:#fff;fill-rule:nonzero;"/><rect x="1081.958" y="391.083" width="13.708" height="116.583" style="fill:#fff;fill-rule:nonzero;"/><path d="M1117.583,404l0,-12.917l69.417,0l0,12.917l-69.417,0Zm27.792,103.667l0,-108.25l13.708,0l0,108.25l-13.708,0Z" style="fill:#fff;fill-rule:nonzero;"/><path d="M1272.083,391.083l-30.083,68.375l0,48.208l-13.708,0l0,-48.208l-30.375,-68.375l14.5,0l22.75,53.792l22.375,-53.792l14.542,0Z" style="fill:#fff;fill-rule:nonzero;"/><path d="M1328.083,507.667l0,-116.583l13.708,0l0,116.583l-13.708,0Zm7.917,-103.667l0,-12.917l54.5,0l0,12.917l-54.5,0Zm0,52.208l0,-12.833l48.083,0l0,12.833l-48.083,0Zm0,51.458l0,-12.917l54.5,0l0,12.917l-54.5,0Z" style="fill:#fff;fill-rule:nonzero;"/><path d="M1412.292,507.667l0,-116.583l13.708,0l0,116.583l-13.708,0Zm9.458,0l0,-12.917l25.667,0c6.25,0 11,-1.583 14.25,-4.792c3.25,-3.208 4.875,-7.833 4.875,-13.875l0,-53.417c0,-6.042 -1.625,-10.667 -4.875,-13.875c-3.25,-3.208 -8,-4.792 -14.25,-4.792l-25.667,0l0,-12.917l25.167,0c10.833,0 19.125,2.75 24.833,8.25c5.708,5.5 8.583,13.458 8.583,23.875l0,52.292c0,6.958 -1.292,12.833 -3.833,17.583c-2.583,4.792 -6.333,8.417 -11.292,10.875c-4.958,2.458 -11.083,3.708 -18.375,3.708l-25.083,0Z" style="fill:#fff;fill-rule:nonzero;"/><rect x="1505.042" y="391.083" width="13.708" height="116.583" style="fill:#fff;fill-rule:nonzero;"/><path d="M1540.667,404l0,-12.917l69.417,0l0,12.917l-69.417,0Zm27.833,103.667l0,-108.25l13.708,0l0,108.25l-13.708,0Z" style="fill:#fff;fill-rule:nonzero;"/><rect x="1628.792" y="391.083" width="13.708" height="116.583" style="fill:#fff;fill-rule:nonzero;"/><path d="M1703.792,508.875c-7.333,0 -13.583,-1.417 -18.792,-4.292c-5.208,-2.875 -9.208,-7 -12,-12.375c-2.792,-5.375 -4.167,-11.875 -4.167,-19.417l0,-46.833c0,-7.542 1.375,-14 4.167,-19.417c2.792,-5.417 6.792,-9.542 12,-12.375c5.208,-2.875 11.458,-4.292 18.792,-4.292c7.333,0 13.583,1.417 18.792,4.292c5.208,2.875 9.208,7 12,12.375c2.792,5.375 4.167,11.875 4.167,19.417l0,46.833c0,7.542 -1.375,14 -4.167,19.417c-2.792,5.417 -6.792,9.542 -12,12.375c-5.208,2.875 -11.458,4.292 -18.792,4.292Zm0,-13.208c6.625,0 11.792,-2 15.542,-5.958c3.75,-4 5.625,-9.458 5.625,-16.375l0,-47.792c0,-7 -1.875,-12.5 -5.625,-16.458c-3.75,-3.958 -8.917,-5.917 -15.542,-5.917c-6.625,0 -11.833,1.958 -15.583,5.917c-3.75,3.958 -5.667,9.417 -5.667,16.458l0,47.792c0,6.958 1.875,12.417 5.667,16.375c3.75,3.958 8.958,5.958 15.583,5.958Z" style="fill:#fff;fill-rule:nonzero;"/><path d="M1762.5,507.583l0,-116.5l12.583,0l48.5,95l-2.875,0.792l0,-95.792l13.458,0l0,116.5l-12.833,0l-48.583,-94.208l3.125,-0.417l0,94.625l-13.375,0Z" style="fill:#fff;fill-rule:nonzero;"/><path d="M1934.667,508.875c-6.042,0 -11.458,-0.875 -16.292,-2.625c-4.792,-1.75 -8.833,-4.417 -12.083,-8c-3.25,-3.583 -5.542,-8.125 -6.958,-13.625l13.083,-5.208c1.542,5.708 4.292,9.917 8.167,12.625c3.917,2.708 8.583,4.042 14.042,4.042c7.125,0 12.542,-1.542 16.292,-4.625c3.75,-3.083 5.625,-7.417 5.625,-13.042l0,-4.417c0,-4.167 -1.042,-7.458 -3.167,-9.833c-2.125,-2.375 -4.875,-4.292 -8.25,-5.75c-3.375,-1.458 -7.083,-2.75 -11.042,-3.917c-3.792,-1.125 -7.583,-2.333 -11.292,-3.667c-3.75,-1.292 -7.167,-3.042 -10.208,-5.167c-3.083,-2.125 -5.583,-4.958 -7.5,-8.5c-1.917,-3.542 -2.875,-8.083 -2.875,-13.625l0,-3.125c0,-9.875 3,-17.458 9,-22.708c6,-5.25 14.583,-7.875 25.75,-7.875c8.458,0 15.292,1.917 20.625,5.792c5.292,3.833 9,9.667 11.083,17.417l-12.75,5.292c-1.542,-5.292 -3.917,-9.208 -7.042,-11.792c-3.167,-2.583 -7.125,-3.833 -11.875,-3.833c-6.792,0 -12,1.5 -15.667,4.5c-3.667,3 -5.5,7.292 -5.5,12.917l0,3.292c0,4.208 1.167,7.5 3.5,9.875c2.333,2.375 5.375,4.25 9.125,5.667c3.75,1.417 7.75,2.75 12,4.042c3.583,1.083 7.125,2.292 10.667,3.708c3.542,1.417 6.708,3.167 9.583,5.292c2.875,2.125 5.167,4.958 6.958,8.5c1.75,3.542 2.625,7.917 2.625,13.167l0,4.667c0,9.875 -3.042,17.458 -9.167,22.75c-6.25,5.167 -15,7.792 -26.458,7.792Z" style="fill:#fff;fill-rule:nonzero;"/><path d="M1991.833,507.667l0,-116.583l13.708,0l0,116.583l-13.708,0Zm9.458,0l0,-12.917l25.667,0c6.25,0 11,-1.583 14.292,-4.792c3.25,-3.208 4.875,-7.833 4.875,-13.875l0,-53.417c0,-6.042 -1.625,-10.667 -4.875,-13.875c-3.25,-3.208 -8,-4.792 -14.292,-4.792l-25.667,0l0,-12.917l25.167,0c10.833,0 19.125,2.75 24.833,8.25c5.708,5.5 8.583,13.458 8.583,23.875l0,52.292c0,6.958 -1.292,12.833 -3.833,17.583c-2.583,4.792 -6.333,8.417 -11.292,10.875c-4.958,2.458 -11.083,3.708 -18.375,3.708l-25.083,0Z" style="fill:#fff;fill-rule:nonzero;"/><path d="M2083.667,507.667l0,-116.583l13.708,0l0,116.583l-13.708,0Zm10.417,-26.208l-0.5,-20.542l45.708,-69.833l16.125,0l-61.333,90.375Zm49.458,26.208l-29.667,-62.292l9.292,-11.958l36.542,74.25l-16.167,0Z" style="fill:#fff;fill-rule:nonzero;"/></g></g><g id="Icon_00000062168508952650159620000014269937030355654585_"><g><g><path d="M376.333,381.333c-7.208,19.417 -37.125,9.292 -37.125,9.292l-34.792,-22.708l-41.833,-27.25l-4.708,-3.083l-25.542,-72.083l-67.042,85.5c0,0 36.667,36.583 56.375,61.042c2.208,2.75 4.167,5.292 5.875,7.667c3.375,4.708 5.625,8.583 6.125,11c3.417,16.042 -5.875,27.708 -5.875,27.708l-38.667,43.333l-33,36.958c-16.333,-2.458 -34.5,-9.667 -53.167,-25.25l15.333,-17.333l2.042,-2.333l22.708,-25.708l21.5,-24.333c-49.458,-68.625 -80.333,-85 -80.333,-85l-21.75,27.375l-24.667,31.125c-4.583,-10.958 -9.125,-22.917 -13.667,-35.958c-3.625,-10.5 -6.792,-22.417 -9.5,-34.792l26,-33.292l95.792,-122.667l-55.5,-36.25l-22.333,18.792l-11.208,9.458l-13.167,11.042l-9.667,8.083c0,0 -12.542,10.708 -24.125,8.792c0.875,-17 3.375,-34.167 6.542,-50.042c11.417,-10.5 27.375,-24.917 41.25,-36.625l0,-0.042c2,-1.75 4,-3.375 5.917,-4.917c7.333,-6.125 13.75,-11 17.833,-13.417c1.667,-1.042 2.958,-1.667 3.833,-1.792c10.458,-1.667 22.375,3.25 22.375,3.25l156.833,104.75l18.208,12.167l23.542,80.917c0,0 4.375,2.833 11,7.042c17.5,11.25 50.375,32.25 57.167,36c9.458,5.125 18.583,14.125 11.417,33.583Z" style="fill:#ec6726;fill-rule:nonzero;"/></g></g><path d="M307.792,311.667c0.042,-24.792 -1.292,-53.792 -4.667,-82.208c-3.833,-32.5 -12.958,-83.625 -27.833,-121.958c-9.625,-24.583 -16.958,-38.708 -22.042,-45.125c-4.542,-5.833 -7.292,-5.5 -6,1.083c1.125,5.417 8.083,19 12.458,31.75c6.542,19.167 23.625,68.875 17,59.75c-2.875,-4.042 -18.083,-48.625 -39.958,-80.625c-21.083,-30.792 -49.708,-76.917 -113.958,-74.208c-31.375,1.333 -74.833,28.125 -98.75,96.625c-4.25,12.208 -11.625,35.958 -17.125,63.667c-3.167,15.875 -5.667,33.042 -6.542,50.042c-0.292,4.208 -0.417,8.417 -0.417,12.583c-0.042,12.625 3.5,72.5 14.583,123.458c2.75,12.375 5.875,24.292 9.5,34.792c4.542,13.042 9.083,25 13.667,35.958c7.583,18.125 15.333,33.417 23.333,46.25c13.917,22.333 28.042,38.458 41.875,50.042c18.625,15.583 36.833,22.792 53.167,25.25c10.583,1.583 20.417,1.208 29.083,-0.167c3.875,-0.875 51.708,-12.083 83.5,-68.292c7.167,-12.625 28.125,-53.667 35.667,-102.417c0.208,-1.167 0.375,-2.417 0.542,-3.625c1.75,-12.125 2.875,-30.792 2.917,-52.625Zm-68.708,130.292c-13.292,29.125 -29.125,45.583 -43.417,55.708c-2.167,1.583 -4.333,2.917 -6.5,4.125c-31.5,17.833 -60.167,1.917 -70.792,-5.583c-2.792,-2 -4.375,-3.375 -4.375,-3.375c0,0 -1.125,-2.708 1.458,-1.125c1.083,0.625 3.042,1.5 4.958,2.208c2.417,0.917 4.583,1.667 4.583,1.667c0,0 35.875,12.208 64.25,-16.875c18.292,-18.792 30.542,-40.792 38.333,-58.958c8.958,-20.708 12.208,-36.5 12.25,-36.833c0.667,-6.75 -2.958,-6.5 -4.5,-1.875c-1.958,6.125 -6.875,18.25 -13.625,31.042c-5.25,10.083 -11.667,20.625 -18.583,28.833c-17.042,20.167 -37.75,25.583 -37.75,25.583c0,0 -10,3.167 -22.25,1.708l-1.208,-0.167c-7.958,-1.125 -15.875,-5.125 -24.917,-10.375c-15.625,-9.042 -31.167,-33 -44,-52.458c-3.875,-5.875 -7.375,-12.333 -10.542,-19.083c-10.792,-23.083 -17.625,-50.25 -21.875,-72.917c-5.083,-27.083 -6.458,-47.792 -6.458,-47.792c0,0 -2.292,-35 0.083,-71.833c0.417,-7.125 1.042,-14.292 1.875,-21.292c1.833,-15.292 7,-33.417 12.125,-48.458l0,-0.042c6.375,-18.75 12.583,-32.708 11.958,-30.083c-0.667,2.958 -3.583,12.958 -6.042,25.125c-0.75,3.375 -1.417,6.917 -2,10.542c-3.417,20.667 -5.083,43.042 -5.042,45.833c0.083,2.458 0.167,4.917 0.25,7.333c1.083,27.542 3.917,53.542 6.958,63.458c1.333,4.375 6.417,6.833 5.833,-1.75c-0.917,-14.292 -3.042,-45.5 -1.583,-71.167c0.083,-1.167 0.125,-2.292 0.25,-3.458c0.167,-1.625 0.667,-33.5 13.208,-64.208c0.833,-2.125 1.708,-4.208 2.708,-6.292c8,-17.125 16.042,-29.708 24.5,-37.917c13.25,-12.833 25.833,-15.875 28.167,-16.292c12.542,-2.042 27.208,0.167 40.833,8.5c14,8.542 28.833,24.917 42.125,45.458c14.167,21.958 25.917,49.75 34.792,75.917c4.25,12.5 7.5,25.167 9.958,36.792c5.708,27.458 7.042,49.042 7.042,49.042c0,0 2.833,39.208 1.042,71.333c-0.167,2.958 -0.333,5.875 -0.583,8.75c-3.333,45.375 -12.667,77.5 -23.5,101.25Z" style="fill:#fff;"/><g><path d="M229.25,166.875c-9.625,-6.5 -19.25,-13 -28.917,-19.458c-1.042,-0.708 -1.375,-1.375 -1.292,-2.625c1.667,-23.25 3.292,-46.5 4.875,-69.792c0.083,-1.125 0.5,-1.667 1.458,-2.167c20.917,-10.167 41.833,-20.375 62.708,-30.583c1.167,-0.583 1.958,-0.583 3.083,0.167c19.25,13.042 38.5,26.042 57.792,39c1.042,0.708 1.375,1.375 1.292,2.625c-1.667,23.25 -3.292,46.5 -4.875,69.792c-0.083,1.125 -0.5,1.667 -1.458,2.167c-20.917,10.167 -41.833,20.375 -62.708,30.583c-1.25,0.625 -2.125,0.458 -3.208,-0.292c-9.542,-6.5 -19.167,-12.958 -28.75,-19.417Z" style="fill:#ec6726;fill-rule:nonzero;"/></g><path d="M364.958,347.667c-9.375,-5.167 -68.125,-43.083 -68.125,-43.083l-23.542,-80.917l-155,-103.458l-20.25,45.208l38.375,25.083l-30.458,39l83.792,90.333l42.583,-54.333l25.583,72.083l81.292,53.042c0,0 29.917,10.125 37.125,-9.292c7.208,-19.458 -1.958,-28.458 -11.375,-33.667Z" style="fill:#ec6726;fill-rule:nonzero;"/></g></g></svg>