<svg xmlns="http://www.w3.org/2000/svg" xml:space="preserve" id="Ebene_1" x="0" y="0" version="1.1"
	viewBox="0 0 440.47 129.55">
	<g id="Logo_00000003095499129166098150000008684721280523552656_">
		<g id="Text_00000114759095882757165470000002338931282063078079_">
			<path fill="#fff"
				d="M116.34 82.87v-71h12.11v71h-12.11zM122 55.33V43.71h12.55c1.5 0 2.67-.51 3.52-1.54.85-1.03 1.27-2.45 1.27-4.27v-8.35c0-1.92-.42-3.41-1.25-4.47-.83-1.06-2.01-1.59-3.54-1.59H122V11.87h12.89c3.55 0 6.56.62 9.03 1.86 2.47 1.24 4.37 3.04 5.69 5.42 1.32 2.38 1.98 5.26 1.98 8.64v11.96c0 3.29-.66 6.1-1.98 8.42-1.32 2.33-3.22 4.1-5.71 5.32s-5.49 1.83-9.01 1.83H122zM179.73 83.6c-3.81 0-7.07-.66-9.79-1.98-2.72-1.32-4.79-3.22-6.23-5.71-1.43-2.49-2.15-5.49-2.15-9.01V27.84c0-3.55.72-6.57 2.15-9.06s3.51-4.39 6.23-5.69c2.72-1.3 5.98-1.95 9.79-1.95s7.07.65 9.79 1.95c2.72 1.3 4.79 3.2 6.23 5.69 1.43 2.49 2.15 5.51 2.15 9.06V66.9c0 3.52-.72 6.52-2.15 9.01s-3.51 4.39-6.23 5.71c-2.72 1.32-5.98 1.98-9.79 1.98zm0-12.11c1.89 0 3.34-.54 4.37-1.61s1.54-2.59 1.54-4.54V29.3c0-1.92-.51-3.42-1.54-4.49s-2.48-1.61-4.37-1.61c-1.86 0-3.3.54-4.32 1.61s-1.54 2.57-1.54 4.49v36.04c0 1.95.51 3.47 1.54 4.54s2.46 1.61 4.32 1.61zM208.11 82.87V11.82h11.87v71.04h-11.87zm5.42-30.03V41.22h12.79c1.59 0 2.83-.42 3.71-1.25s1.32-1.98 1.32-3.44v-7.91c0-1.63-.44-2.9-1.32-3.81-.88-.91-2.12-1.37-3.71-1.37h-12.79V11.82h12.06c3.84 0 7.12.63 9.84 1.88 2.72 1.25 4.79 3.08 6.23 5.49 1.43 2.41 2.15 5.32 2.15 8.74v8.3c0 3.52-.72 6.51-2.15 8.98-1.43 2.47-3.51 4.36-6.23 5.66-2.72 1.3-6 1.95-9.84 1.95h-12.06zm19.29 30.03-9.42-32.23 11.08-2.25 11.33 34.47h-12.99zM250.89 23.49V11.87h35.55v11.62h-35.55zm11.72 59.38V17.83h12.11v65.04h-12.11zM286.89 82.87l16.94-71h8.5l16.94 71h-12.01l-9.18-46.53-9.18 46.53h-12.01zm11.52-11.04V60.5h19.34v11.33h-19.34zM337.04 82.87v-71h12.11v71h-12.11zm4.98 0V71.25h25.59v11.62h-25.59zM399.33 82.87V71.78l17.88-24.9c2.73-3.78 4.72-7.15 5.98-10.11 1.26-2.96 1.89-5.53 1.89-7.71v-.93c0-1.63-.45-2.88-1.34-3.76-.9-.88-2.16-1.32-3.78-1.32-1.83 0-3.25.56-4.24 1.68s-1.5 2.71-1.5 4.76v2.54h-15.38V29.5c0-5.83 1.81-10.34 5.43-13.55 3.62-3.21 8.75-4.81 15.38-4.81 6.63 0 11.76 1.48 15.38 4.44 3.62 2.96 5.43 7.16 5.43 12.6v.93c0 2.6-.71 5.61-2.14 9.01-1.42 3.4-3.58 7.27-6.47 11.6l-14.1 21.24h22.58v11.91h-41z"
				class="st0" />
			<g opacity=".6">
				<path fill="#fff"
					d="M124.72 122.13c-1.67 0-3.11-.36-4.32-1.07-1.21-.71-2.15-1.72-2.81-3.03-.66-1.31-.99-2.87-.99-4.7v-10.95c0-1.83.33-3.41.99-4.71.66-1.31 1.6-2.32 2.81-3.03s2.65-1.07 4.32-1.07c1.58 0 2.95.32 4.11.96 1.16.64 2.08 1.58 2.76 2.8.68 1.23 1.08 2.7 1.19 4.44h-3.29c-.12-1.06-.38-1.97-.81-2.72-.42-.75-.97-1.32-1.65-1.72-.67-.4-1.45-.6-2.32-.6-1.48 0-2.65.51-3.52 1.52-.87 1.01-1.31 2.39-1.31 4.14v10.95c0 1.75.44 3.12 1.31 4.13.87 1.01 2.05 1.51 3.52 1.51 1.31 0 2.39-.43 3.24-1.3.85-.87 1.36-2.11 1.53-3.74h3.29c-.12 1.73-.52 3.21-1.2 4.44-.69 1.23-1.61 2.16-2.76 2.8-1.15.63-2.52.95-4.09.95zM145.62 122.13c-1.76 0-3.26-.34-4.51-1.03s-2.21-1.68-2.88-2.97-1-2.85-1-4.66v-11.24c0-1.81.33-3.36 1-4.66s1.63-2.29 2.88-2.97c1.25-.69 2.75-1.03 4.51-1.03s3.26.34 4.51 1.03 2.21 1.68 2.88 2.97 1 2.85 1 4.66v11.24c0 1.81-.33 3.36-1 4.66s-1.63 2.29-2.88 2.97c-1.25.69-2.76 1.03-4.51 1.03zm0-3.17c1.59 0 2.83-.48 3.73-1.43.9-.96 1.35-2.27 1.35-3.93v-11.47c0-1.68-.45-3-1.35-3.95-.9-.95-2.14-1.42-3.73-1.42s-2.84.47-3.74 1.42c-.9.95-1.36 2.26-1.36 3.95v11.47c0 1.67.45 2.98 1.36 3.93.9.95 2.15 1.43 3.74 1.43zM170.16 113.01l7.31-19.15h3.14v27.98h-3.16V99.67l.25 1.23-6.37 16.88h-2.35l-6.37-16.49.27-1.62v22.17h-3.18V93.86h3.16l7.3 19.15zM197.43 113.01l7.31-19.15h3.14v27.98h-3.16V99.67l.25 1.23-6.37 16.88h-2.35l-6.37-16.49.27-1.62v22.17h-3.18V93.86h3.16l7.3 19.15zM222.04 122.13c-2.66 0-4.67-.71-6.03-2.15-1.37-1.43-2.05-3.52-2.05-6.28V93.86h3.29v19.95c0 1.68.4 2.95 1.21 3.81s2 1.29 3.58 1.29c1.59 0 2.79-.43 3.61-1.29.81-.86 1.22-2.13 1.22-3.81V93.86h3.29v19.84c0 2.76-.69 4.85-2.07 6.28-1.38 1.44-3.39 2.15-6.05 2.15zM235.86 121.82V93.86h3.02l11.64 22.8-.69.19V93.86h3.23v27.96h-3.08l-11.66-22.61.75-.1v22.71h-3.21zM262.96 93.86v27.98h-3.29V93.86h3.29zM268.22 96.96v-3.1h16.66v3.1h-16.66zm6.67 24.88V95.86h3.29v25.98h-3.29zM305.3 93.86l-7.22 16.41v11.57h-3.29v-11.57l-7.29-16.41h3.48l5.46 12.91 5.37-12.91h3.49zM318.74 121.84V93.86h3.29v27.98h-3.29zm1.9-24.88v-3.1h13.08v3.1h-13.08zm0 12.53v-3.08h11.55v3.08h-11.55zm0 12.35v-3.1h13.08v3.1h-13.08zM338.95 121.84V93.86h3.29v27.98h-3.29zm2.27 0v-3.1h6.16c1.5 0 2.64-.38 3.43-1.15.78-.77 1.17-1.88 1.17-3.33v-12.82c0-1.45-.39-2.56-1.17-3.33-.78-.77-1.92-1.15-3.43-1.15h-6.16v-3.1h6.04c2.6 0 4.59.66 5.96 1.98 1.37 1.32 2.06 3.23 2.06 5.73v12.55c0 1.67-.31 3.08-.92 4.22a6.057 6.057 0 0 1-2.71 2.61c-1.19.59-2.66.89-4.41.89h-6.02zM364.51 93.86v27.98h-3.29V93.86h3.29zM369.76 96.96v-3.1h16.66v3.1h-16.66zm6.68 24.88V95.86h3.29v25.98h-3.29zM394.2 93.86v27.98h-3.29V93.86h3.29zM408.91 122.13c-1.76 0-3.26-.34-4.51-1.03s-2.21-1.68-2.88-2.97-1-2.85-1-4.66v-11.24c0-1.81.33-3.36 1-4.66s1.63-2.29 2.88-2.97c1.25-.69 2.75-1.03 4.51-1.03 1.76 0 3.26.34 4.51 1.03s2.21 1.68 2.88 2.97 1 2.85 1 4.66v11.24c0 1.81-.33 3.36-1 4.66s-1.63 2.29-2.88 2.97c-1.25.69-2.75 1.03-4.51 1.03zm0-3.17c1.59 0 2.83-.48 3.73-1.43.9-.96 1.35-2.27 1.35-3.93v-11.47c0-1.68-.45-3-1.35-3.95-.9-.95-2.14-1.42-3.73-1.42s-2.84.47-3.74 1.42c-.9.95-1.36 2.26-1.36 3.95v11.47c0 1.67.45 2.98 1.36 3.93.9.95 2.15 1.43 3.74 1.43zM423 121.82V93.86h3.02l11.64 22.8-.69.19V93.86h3.23v27.96h-3.08l-11.66-22.61.75-.1v22.71H423z"
					class="st0" />
			</g>
		</g>
		<g id="Icon_00000140716340568838591020000007209717081622135971_">
			<path fill="#fff"
				d="M90.32 91.52c-1.73 4.66-8.91 2.23-8.91 2.23l-8.35-5.45-10.04-6.54-1.13-.74-6.13-17.3-16.09 20.52s8.8 8.78 13.53 14.65c.53.66 1 1.27 1.41 1.84.81 1.13 1.35 2.06 1.47 2.64.82 3.85-1.41 6.65-1.41 6.65l-9.28 10.4-7.92 8.87c-3.92-.59-8.28-2.32-12.76-6.06l3.68-4.16.49-.56 5.45-6.17 5.16-5.84C27.62 90.03 20.21 86.1 20.21 86.1l-5.22 6.57-5.92 7.47c-1.1-2.63-2.19-5.5-3.28-8.63-.87-2.52-1.63-5.38-2.28-8.35l6.24-7.99 22.99-29.44-13.32-8.7-5.36 4.51-2.69 2.27-3.16 2.65-2.32 1.94S2.88 50.97.1 50.51c.21-4.08.81-8.2 1.57-12.01 2.74-2.52 6.57-5.98 9.9-8.79v-.01c.48-.42.96-.81 1.42-1.18 1.76-1.47 3.3-2.64 4.28-3.22.4-.25.71-.4.92-.43 2.51-.4 5.37.78 5.37.78L61.2 50.79l4.37 2.92 5.65 19.42s1.05.68 2.64 1.69c4.2 2.7 12.09 7.74 13.72 8.64 2.27 1.23 4.46 3.39 2.74 8.06z"
				class="st0" />
			<path fill="#ec6726" fill-rule="evenodd"
				d="M73.87 74.8c.01-5.95-.31-12.91-1.12-19.73-.92-7.8-3.11-20.07-6.68-29.27-2.31-5.9-4.07-9.29-5.29-10.83-1.09-1.4-1.75-1.32-1.44.26.27 1.3 1.94 4.56 2.99 7.62 1.57 4.6 5.67 16.53 4.08 14.34-.69-.97-4.34-11.67-9.59-19.35C51.76 10.45 44.89-.62 29.47.03c-7.53.32-17.96 6.75-23.7 23.19-1.02 2.93-2.79 8.63-4.11 15.28C.9 42.31.3 46.43.09 50.51c-.07 1.01-.1 2.02-.1 3.02-.01 3.03.84 17.4 3.5 29.63.66 2.97 1.41 5.83 2.28 8.35 1.09 3.13 2.18 6 3.28 8.63 1.82 4.35 3.68 8.02 5.6 11.1 3.34 5.36 6.73 9.23 10.05 12.01 4.47 3.74 8.84 5.47 12.76 6.06 2.54.38 4.9.29 6.98-.04.93-.21 12.41-2.9 20.04-16.39 1.72-3.03 6.75-12.88 8.56-24.58.05-.28.09-.58.13-.87.42-2.91.69-7.39.7-12.63zm-16.49 31.27c-3.19 6.99-6.99 10.94-10.42 13.37-.52.38-1.04.7-1.56.99-7.56 4.28-14.44.46-16.99-1.34-.67-.48-1.05-.81-1.05-.81s-.27-.65.35-.27c.26.15.73.36 1.19.53.58.22 1.1.4 1.1.4s8.61 2.93 15.42-4.05c4.39-4.51 7.33-9.79 9.2-14.15 2.15-4.97 2.93-8.76 2.94-8.84.16-1.62-.71-1.56-1.08-.45-.47 1.47-1.65 4.38-3.27 7.45-1.26 2.42-2.8 4.95-4.46 6.92-4.09 4.84-9.06 6.14-9.06 6.14s-2.4.76-5.34.41l-.29-.04c-1.91-.27-3.81-1.23-5.98-2.49-3.75-2.17-7.48-7.92-10.56-12.59-.93-1.41-1.77-2.96-2.53-4.58-2.59-5.54-4.23-12.06-5.25-17.5-1.22-6.5-1.55-11.47-1.55-11.47s-.55-8.4.02-17.24c.1-1.71.25-3.43.45-5.11.44-3.67 1.68-8.02 2.91-11.63v-.01c1.53-4.5 3.02-7.85 2.87-7.22-.16.71-.86 3.11-1.45 6.03-.18.81-.34 1.66-.48 2.53-.82 4.96-1.22 10.33-1.21 11l.06 1.76c.26 6.61.94 12.85 1.67 15.23.32 1.05 1.54 1.64 1.4-.42-.22-3.43-.73-10.92-.38-17.08.02-.28.03-.55.06-.83.04-.39.16-8.04 3.17-15.41.2-.51.41-1.01.65-1.51 1.92-4.11 3.85-7.13 5.88-9.1 3.18-3.08 6.2-3.81 6.76-3.91 3.01-.49 6.53.04 9.8 2.04 3.36 2.05 6.92 5.98 10.11 10.91 3.4 5.27 6.22 11.94 8.35 18.22 1.02 3 1.8 6.04 2.39 8.83 1.37 6.59 1.69 11.77 1.69 11.77s.68 9.41.25 17.12c-.04.71-.08 1.41-.14 2.1-.8 10.89-3.04 18.6-5.64 24.3z"
				clip-rule="evenodd" />
			<path fill="#fff"
				d="M55.02 40.05c-2.31-1.56-4.62-3.12-6.94-4.67-.25-.17-.33-.33-.31-.63.4-5.58.79-11.16 1.17-16.75.02-.27.12-.4.35-.52 5.02-2.44 10.04-4.89 15.05-7.34.28-.14.47-.14.74.04 4.62 3.13 9.24 6.25 13.87 9.36.25.17.33.33.31.63-.4 5.58-.79 11.16-1.17 16.75-.02.27-.12.4-.35.52-5.02 2.44-10.04 4.89-15.05 7.34-.3.15-.51.11-.77-.07-2.29-1.56-4.6-3.11-6.9-4.66zM87.59 83.44C85.34 82.2 71.24 73.1 71.24 73.1l-5.65-19.42-37.2-24.83-4.86 10.85 9.21 6.02-7.31 9.36 20.11 21.68 10.22-13.04 6.14 17.3 19.51 12.73s7.18 2.43 8.91-2.23c1.73-4.67-.47-6.83-2.73-8.08z"
				class="st0" />
		</g>
	</g>
</svg>
