<?xml version="1.0" encoding="UTF-8" standalone="no"?>
<!-- Created with Inkscape (http://www.inkscape.org/) -->

<svg
   width="191.85466mm"
   height="35.272102mm"
   viewBox="0 0 191.85465 35.272102"
   version="1.1"
   id="svg1"
   inkscape:version="1.4.2 (f4327f4, 2025-05-13)"
   sodipodi:docname="full_logo.svg"
   xmlns:inkscape="http://www.inkscape.org/namespaces/inkscape"
   xmlns:sodipodi="http://sodipodi.sourceforge.net/DTD/sodipodi-0.dtd"
   xmlns="http://www.w3.org/2000/svg"
   xmlns:svg="http://www.w3.org/2000/svg">
  <sodipodi:namedview
     id="namedview1"
     pagecolor="#ffffff"
     bordercolor="#000000"
     borderopacity="0.25"
     inkscape:showpageshadow="2"
     inkscape:pageopacity="0.0"
     inkscape:pagecheckerboard="0"
     inkscape:deskcolor="#d1d1d1"
     inkscape:document-units="mm"
     inkscape:zoom="0.75811588"
     inkscape:cx="342.95549"
     inkscape:cy="238.09025"
     inkscape:window-width="1920"
     inkscape:window-height="1111"
     inkscape:window-x="-9"
     inkscape:window-y="-9"
     inkscape:window-maximized="1"
     inkscape:current-layer="layer1" />
  <defs
     id="defs1">
    <rect
       x="50.124264"
       y="170.15868"
       width="738.67334"
       height="205.7733"
       id="rect1" />
  </defs>
  <g
     inkscape:label="Layer 1"
     inkscape:groupmode="layer"
     id="layer1"
     transform="translate(-14.024977,-85.507157)">
    <path
       style="font-size:64px;font-family:HL2EP2;-inkscape-font-specification:HL2EP2;text-align:center;text-anchor:middle;white-space:pre;fill:#ffffff;stroke-width:1.00157"
       d="m 88.900836,181.48291 v 45.568 h -7.936 v -20.096 h -14.08 v 20.096 h -8.128 v -45.568 h 8.128 v 17.984 h 14.08 v -17.984 z m 93.760054,43.968 -14.08,4.16 -9.472,-24.576 -13.888,22.4 h -8.704 l 19.392,-32.064 -2.176,-6.336 h -7.552 v -7.552 h 12.928 v 0 0 0 l 14.848,38.656 6.528,-2.176 2.176,7.488 z m 58.17596,-5.824 h 22.528 v 7.36 h -30.528 v -45.44 h 7.36 0.64 z m 99.13604,-38.08 h 0.64 v 7.488 h -16.384 v 10.624 h 13.248 v 7.36 h -13.248 v 20.032 h -8.128 v -45.504 z m 47.93605,18.048 v 0 h 21.376 v 7.744 h -21.376 v -7.744 z m 64.25604,20.032 h 22.528 v 7.36 h -30.528 v -45.44 h 7.36 0.64 z m 84.86404,-38.08 h 7.232 0.704 v 45.568 h -7.936 v -45.568 z m 97.47195,0 h 0.64 v 7.488 h -16.384 v 10.624 h 13.248 v 7.36 h -13.248 v 20.032 h -8.128 v -45.504 z m 60.92805,38.144 v -12.672 h 17.216 v -7.488 h -17.216 v -10.56 h 19.84 v -7.424 h -0.64 -27.2 v 45.504 h 28.672 v -7.36 z m 31.552,-38.592 q 0.512,0 0.96,0.128 0.448,0.128 0.96,0.32 1.088,0.704 1.472,1.472 0.512,0.96 0.512,1.984 0,0.512 -0.128,1.024 -0.064,0.448 -0.384,0.96 -0.192,0.512 -0.576,0.896 -0.384,0.384 -0.896,0.512 -0.512,0.32 -0.96,0.448 -0.384,0.128 -0.96,0.128 -1.088,0 -1.856,-0.576 -0.512,-0.128 -0.896,-0.512 -0.384,-0.384 -0.704,-0.896 -0.384,-0.96 -0.384,-1.984 0,-1.024 0.512,-1.984 0.256,-0.384 0.576,-0.768 0.384,-0.384 0.896,-0.704 0.896,-0.448 1.856,-0.448 z m 0,0.64 q -0.896,0 -1.6,0.512 -0.896,0.384 -1.152,1.152 -0.32,0.384 -0.448,0.832 -0.128,0.384 -0.128,0.768 0,0.96 0.576,1.728 0.256,0.768 1.152,1.152 0.384,0.256 0.768,0.32 0.448,0.064 0.832,0.064 1.024,0 1.664,-0.384 0.832,-0.384 1.216,-1.152 0.384,-0.832 0.384,-1.728 0,-0.832 -0.384,-1.6 -0.384,-0.768 -1.216,-1.152 -0.384,-0.32 -0.896,-0.384 -0.448,-0.128 -0.768,-0.128 z m -1.728,5.504 v -4.224 h 1.408 1.216 q 0.128,0.128 0.256,0.256 0.128,0.128 0.256,0.256 0,0.128 0.064,0.32 0.064,0.128 0.064,0.256 0,0.512 -0.256,0.768 -0.384,0.384 -0.896,0.384 0.064,0.128 0.128,0.192 0.128,0 0.256,0.128 0.256,0.128 0.512,0.768 l 0.512,0.896 h -0.768 l -0.384,-0.64 q -0.192,-0.448 -0.384,-0.704 -0.192,-0.256 -0.256,-0.32 -0.128,-0.192 -0.704,-0.192 h -0.384 v 1.856 z m 0.64,-2.368 h 0.96 q 0.32,0 0.448,-0.064 0.192,-0.064 0.32,-0.192 0.256,-0.256 0.256,-0.448 0,-0.064 -0.064,-0.128 -0.064,-0.128 -0.064,-0.256 -0.064,0 -0.32,-0.256 h -0.768 -0.768 z m 32.32001,19.968 v -5.12 q 3.84,-4.608 6.208,-7.488 2.432,-2.88 3.776,-4.8 1.344,-1.92 1.792,-3.264 0.512,-1.408 0.512,-2.944 0,-0.384 -0.192,-0.896 -0.192,-0.512 -0.576,-0.96 -0.384,-0.512 -0.96,-0.832 -0.576,-0.384 -1.344,-0.384 -0.768,0 -1.216,0.512 -0.384,0.512 -0.576,1.28 -0.192,0.768 -0.256,1.664 0,0.896 0,1.664 h -6.208 q -0.384,-2.304 0.128,-4.032 0.576,-1.728 1.728,-2.816 1.152,-1.152 2.816,-1.728 1.664,-0.576 3.584,-0.576 1.92,0 3.584,0.448 1.664,0.384 2.88,1.344 1.28,0.96 1.984,2.56 0.768,1.536 0.768,3.84 0,2.304 -1.344,4.928 -1.344,2.56 -3.2,5.056 -1.792,2.496 -3.712,4.736 -1.856,2.176 -3.008,3.712 h 11.264 v 4.096 z m -633.66405,91.648 H 56.964982 v -1.728 h 67.583998 z m 67.07202,0 h -67.584 v -1.728 h 67.584 z m 35.20003,-12.352 v 7.168 h 8.448 v 3.072 h -8.448 v 9.408 h 11.84 v 3.136 h -15.296 v -25.984 h 15.296 v 3.2 z m 38.84795,12.8 v 9.984 h -3.52 v -25.984 q 1.984,-0.128 3.2,-0.128 1.216,0 1.6,0 11.328,0 11.328,7.488 0,8.896 -9.984,8.896 -0.32,0 -0.96,-0.064 -0.64,-0.064 -1.664,-0.192 z m 0,-12.8 v 9.6 q 2.176,0.192 2.368,0.192 6.592,0 6.592,-5.184 0,-4.736 -7.04,-4.736 -0.384,0 -0.896,0.064 -0.448,0 -1.024,0.064 z m 34.56006,22.784 v -25.984 h 3.584 v 25.984 z m 26.30395,-1.152 1.28,-3.264 q 0.512,0.384 1.152,0.704 0.64,0.256 1.344,0.512 0.704,0.32 1.344,0.384 0.704,0.064 1.28,0.064 2.112,0 3.392,-1.088 1.152,-1.152 1.152,-2.944 0,-1.344 -0.64,-2.432 -0.384,-0.576 -1.28,-1.152 -0.832,-0.64 -2.304,-1.344 l -2.048,-0.896 q -2.688,-1.28 -3.776,-3.008 -1.024,-1.728 -1.024,-4.032 0,-2.944 2.048,-4.864 2.112,-1.856 5.312,-1.856 4.288,0 6.016,1.344 l -1.088,3.072 q -0.32,-0.256 -0.896,-0.448 -0.512,-0.192 -1.216,-0.512 -0.768,-0.256 -1.408,-0.384 -0.64,-0.128 -1.28,-0.128 -1.792,0 -2.88,1.088 -1.088,1.088 -1.088,2.624 0,0.896 0.448,1.792 0.384,0.768 1.024,1.408 0.32,0.32 0.96,0.64 0.704,0.32 1.728,0.832 l 2.112,1.088 q 2.688,1.152 3.776,2.944 1.088,1.792 1.088,4.416 0,2.944 -2.368,5.056 -1.152,0.96 -2.752,1.536 -1.536,0.512 -3.584,0.512 -3.392,0 -5.824,-1.664 z m 34.43201,-12.032 q 0,-5.504 2.88,-9.472 1.472,-1.856 3.328,-2.752 1.856,-0.96 4.288,-0.96 5.568,0 8.256,3.456 2.88,3.456 2.88,9.728 0,3.2 -0.704,5.696 -0.704,2.496 -2.176,4.352 -2.88,3.648 -8.256,3.648 -4.928,0 -7.68,-3.84 -2.816,-3.776 -2.816,-9.856 z m 3.776,0 q 0,4.544 1.792,7.488 1.728,2.944 4.928,2.944 3.584,0 5.504,-2.752 1.984,-2.752 1.984,-7.68 0,-10.048 -7.488,-10.048 -3.264,0 -5.056,2.752 -1.664,2.752 -1.664,7.296 z m 45.75998,13.184 h -5.184 v -25.984 q 2.496,-0.128 4.096,-0.128 1.6,0 2.304,0 5.44,0 8.64,3.264 1.6,1.664 2.304,3.904 0.768,2.176 0.768,4.864 0,14.08 -12.928,14.08 z m -1.664,-22.784 v 19.456 q 1.152,0.192 2.944,0.192 3.712,0 5.824,-2.88 2.176,-2.752 2.176,-7.744 0,-9.152 -8.256,-9.152 -0.32,0 -0.96,0.064 -0.64,0 -1.728,0.064 z m 40.512,0 v 7.168 h 8.448 v 3.072 h -8.448 v 9.408 h 11.84 v 3.136 h -15.296 v -25.984 h 15.296 v 3.2 z m 79.29595,-0.128 v 23.04 h -3.648 v -23.04 h -8.32 v -3.2 h 20.672 v 3.2 z m 49.59999,22.976 h -1.088 l -6.208,-17.92 -5.824,17.92 h -1.088 l -8.128,-26.304 h 3.648 l 5.184,18.112 5.696,-18.112 h 1.216 l 5.696,18.048 5.312,-18.048 h 3.648 z m 24.95995,-13.248 q 0,-5.504 2.88,-9.472 1.472,-1.856 3.328,-2.752 1.856,-0.96 4.288,-0.96 5.568,0 8.256,3.456 2.88,3.456 2.88,9.728 0,3.2 -0.704,5.696 -0.704,2.496 -2.176,4.352 -2.88,3.648 -8.256,3.648 -4.928,0 -7.68,-3.84 -2.816,-3.776 -2.816,-9.856 z m 3.776,0 q 0,4.544 1.792,7.488 1.728,2.944 4.928,2.944 3.584,0 5.504,-2.752 1.984,-2.752 1.984,-7.68 0,-10.048 -7.488,-10.048 -3.264,0 -5.056,2.752 -1.664,2.752 -1.664,7.296 z m 108.03198,2.752 h -67.584 v -1.728 h 67.584 z m 67.07202,0 h -67.584 v -1.728 h 67.584 z"
       id="text1"
       transform="matrix(0.26458333,0,0,0.26458333,-1.0470035,39.437133)"
       aria-label="HALF-LIFE'&#10;== episode two==" />
  </g>
</svg>
