<?xml version="1.0" encoding="UTF-8" standalone="no"?><!DOCTYPE svg PUBLIC "-//W3C//DTD SVG 1.1//EN" "http://www.w3.org/Graphics/SVG/1.1/DTD/svg11.dtd"><svg width="559px" height="218px" viewBox="0 0 2330 909" version="1.1" xmlns="http://www.w3.org/2000/svg" xmlns:xlink="http://www.w3.org/1999/xlink" xml:space="preserve" xmlns:serif="http://www.serif.com/" style="fill-rule:evenodd;clip-rule:evenodd;stroke-linejoin:round;stroke-miterlimit:2;"><g><rect x="0" y="775" width="133.333" height="133.333" style="fill:url(#_Linear1);"/><rect x="129.167" y="775" width="133.333" height="133.333" style="fill:url(#_Linear2);"/><rect x="258.333" y="775" width="133.333" height="133.333" style="fill:url(#_Linear3);"/><rect x="645.833" y="775" width="133.333" height="133.333" style="fill:url(#_Linear4);"/><rect x="775" y="775" width="133.333" height="133.333" style="fill:url(#_Linear5);"/><rect x="904.167" y="775" width="133.333" height="133.333" style="fill:url(#_Linear6);"/><rect x="1291.667" y="775" width="133.333" height="133.333" style="fill:url(#_Linear7);"/><rect x="1420.833" y="775" width="133.333" height="133.333" style="fill:url(#_Linear8);"/><rect x="1550" y="775" width="133.333" height="133.333" style="fill:url(#_Linear9);"/><rect x="1679.167" y="775" width="133.333" height="133.333" style="fill:url(#_Linear10);"/><rect x="1808.333" y="775" width="133.333" height="133.333" style="fill:url(#_Linear11);"/><rect x="1937.5" y="775" width="133.333" height="133.333" style="fill:url(#_Linear12);"/><rect x="2066.667" y="775" width="133.333" height="133.333" style="fill:url(#_Linear13);"/><rect x="0" y="645.833" width="133.333" height="133.333" style="fill:url(#_Linear14);"/><rect x="387.5" y="645.833" width="133.333" height="133.333" style="fill:url(#_Linear15);"/><rect x="775" y="645.833" width="133.333" height="133.333" style="fill:url(#_Linear16);"/><rect x="1291.667" y="645.833" width="133.333" height="133.333" style="fill:url(#_Linear17);"/><rect x="1420.833" y="645.833" width="133.333" height="133.333" style="fill:url(#_Linear18);"/><rect x="1679.167" y="645.833" width="133.333" height="133.333" style="fill:url(#_Linear19);"/><rect x="1937.5" y="645.833" width="133.333" height="133.333" style="fill:url(#_Linear20);"/><rect x="0" y="516.667" width="133.333" height="133.333" style="fill:url(#_Linear21);"/><rect x="129.167" y="516.667" width="133.333" height="133.333" style="fill:url(#_Linear22);"/><rect x="516.667" y="516.667" width="133.333" height="133.333" style="fill:url(#_Linear23);"/><rect x="645.833" y="516.667" width="133.333" height="133.333" style="fill:url(#_Linear24);"/><rect x="775" y="516.667" width="133.333" height="133.333" style="fill:url(#_Linear25);"/><rect x="904.167" y="516.667" width="133.333" height="133.333" style="fill:url(#_Linear26);"/><rect x="1420.833" y="516.667" width="133.333" height="133.333" style="fill:url(#_Linear27);"/><rect x="2195.833" y="516.667" width="133.333" height="133.333" style="fill:url(#_Linear28);"/><rect x="0" y="387.5" width="133.333" height="133.333" style="fill:url(#_Linear29);"/><rect x="129.167" y="387.5" width="133.333" height="133.333" style="fill:url(#_Linear30);"/><rect x="258.333" y="387.5" width="133.333" height="133.333" style="fill:url(#_Linear31);"/><rect x="516.667" y="387.5" width="133.333" height="133.333" style="fill:url(#_Linear32);"/><rect x="645.833" y="387.5" width="133.333" height="133.333" style="fill:url(#_Linear33);"/><rect x="775" y="387.5" width="133.333" height="133.333" style="fill:url(#_Linear34);"/><rect x="904.167" y="387.5" width="133.333" height="133.333" style="fill:url(#_Linear35);"/><rect x="1033.333" y="387.5" width="133.333" height="133.333" style="fill:url(#_Linear36);"/><rect x="0" y="258.333" width="133.333" height="133.333" style="fill:url(#_Linear37);"/><rect x="129.167" y="258.333" width="133.333" height="133.333" style="fill:url(#_Linear38);"/><rect x="258.333" y="258.333" width="133.333" height="133.333" style="fill:url(#_Linear39);"/><rect x="516.667" y="258.333" width="133.333" height="133.333" style="fill:url(#_Linear40);"/><rect x="645.833" y="258.333" width="133.333" height="133.333" style="fill:url(#_Linear41);"/><rect x="1033.333" y="258.333" width="133.333" height="133.333" style="fill:url(#_Linear42);"/><rect x="1162.5" y="258.333" width="133.333" height="133.333" style="fill:url(#_Linear43);"/><rect x="1420.833" y="258.333" width="133.333" height="133.333" style="fill:url(#_Linear44);"/><rect x="2066.667" y="258.333" width="133.333" height="133.333" style="fill:url(#_Linear45);"/><rect x="0" y="129.167" width="133.333" height="133.333" style="fill:url(#_Linear46);"/><rect x="129.167" y="129.167" width="133.333" height="133.333" style="fill:url(#_Linear47);"/><rect x="645.833" y="129.167" width="133.333" height="133.333" style="fill:url(#_Linear48);"/><rect x="775" y="129.167" width="133.333" height="133.333" style="fill:url(#_Linear49);"/><rect x="1162.5" y="129.167" width="133.333" height="133.333" style="fill:url(#_Linear50);"/><rect x="1291.667" y="129.167" width="133.333" height="133.333" style="fill:url(#_Linear51);"/><rect x="1679.167" y="129.167" width="133.333" height="133.333" style="fill:url(#_Linear52);"/><rect x="0" y="0" width="133.333" height="133.333" style="fill:url(#_Linear53);"/><rect x="775" y="0" width="133.333" height="133.333" style="fill:url(#_Linear54);"/><rect x="1033.333" y="0" width="133.333" height="133.333" style="fill:url(#_Linear55);"/></g><path d="M1291.667,908.333l0,-262.5l129.167,0l0,-129.167l133.333,0l0,258.333l125,0l0,-129.167l133.333,0l0,129.167l125,0l0,-129.167l133.333,0l0,129.167l129.167,0l0,133.333l-908.333,0Zm129.167,-258.333l-125,0l0,125l125,-0l0,-125Zm129.167,-4.167l0,-125l-125,0l0,125l125,-0Zm0,4.167l-125,0l0,125l125,-0l0,-125Zm129.167,129.167l-125,0l0,125l125,-0l0,-125Zm129.167,-4.167l0,-125l-125,0l0,125l125,-0Zm129.167,4.167l-125,0l0,125l125,-0l0,-125Zm129.167,-4.167l0,-125l-125,0l0,125l125,-0Zm4.167,129.167l125,-0l0,-125l-125,0l0,125Zm-4.167,-0l0,-125l-125,0l0,125l125,-0Zm-258.333,-0l0,-125l-125,0l0,125l125,-0Zm-258.333,-0l0,-125l-125,0l0,125l125,-0Zm-129.167,-0l0,-125l-125,0l0,125l125,-0Zm-1420.833,4.167l0,-908.333l133.333,0l0,129.167l129.167,0l0,129.167l129.167,0l0,129.167l125,0l0,-129.167l129.167,0l0,-129.167l129.167,0l0,-129.167l133.333,0l0,262.5l-129.167,0l0,125l254.167,0l0,-129.167l129.167,0l0,-125l-129.167,-0l0,-133.333l133.333,0l0,129.167l129.167,0l129.167,0l-0,129.167l129.167,0l0,133.333l-133.333,0l0,-129.167l-125,-0l0,129.167l-129.167,0l0,129.167l-129.167,0l0,129.167l-129.167,0l0,125l129.167,0l0,133.333l-1037.5,0Zm129.167,-779.167l0,-125l-125,0l0,125l125,-0Zm129.167,129.167l0,-125l-125,0l0,125l125,-0Zm129.167,129.167l0,-125l-125,0l0,125l125,-0Zm129.167,4.167l-125,0l0,125l125,-0l0,-125Zm129.167,-129.167l-125,0l0,125l125,-0l0,-125Zm129.167,-129.167l-125,0l0,125l125,-0l0,-125Zm129.167,-4.167l0,-125l-125,0l0,125l125,-0Zm0,4.167l-125,0l0,125l125,-0l0,-125Zm-129.167,254.167l0,-125l-125,0l0,125l125,-0Zm129.167,4.167l-125,0l0,125l125,-0l0,-125Zm4.167,0l0,125l125,-0l0,-125l-125,0Zm254.167,-129.167l-125,0l0,125l125,-0l0,-125Zm4.167,-129.167l0,125l125,-0l0,-125l-125,0Zm-4.167,-4.167l0,-125l-125,0l0,125l125,-0Zm133.333,4.167l0,125l125,-0l0,-125l-125,0Zm129.167,129.167l0,125l125,-0l0,-125l-125,0Zm-258.333,125l125,-0l0,-125l-125,0l0,125Zm-129.167,129.167l125,-0l0,-125l-125,0l0,125Zm-129.167,129.167l125,-0l0,-125l-125,0l0,125Zm-4.167,129.167l0,-125l-125,0l0,125l125,-0Zm4.167,129.167l125,-0l0,-125l-125,0l0,125Zm-4.167,-0l0,-125l-125,0l0,125l125,-0Zm-129.167,0l0,-125l-125,0l0,125l125,-0Zm-129.167,-0l0,-125l-125,0l0,125l125,-0Zm-129.167,0l0,-125l-125,0l0,125l125,-0Zm-129.167,-0l0,-125l-125,0l0,125l125,-0Zm-129.167,-0l0,-125l-125,0l0,125l125,-0Zm-129.167,-0l0,-125l-125,0l0,125l125,-0Zm-125,-129.167l125,-0l0,-125l-125,0l0,125Zm0,-129.167l125,-0l0,-125l-125,0l0,125Zm0,-129.167l125,-0l0,-125l-125,0l0,125Zm0,-129.167l125,-0l0,-125l-125,0l0,125Zm0,-129.167l125,-0l0,-125l-125,0l0,125Zm254.167,129.167l0,-125l-125,0l0,125l125,-0Zm129.167,129.167l0,-125l-125,0l0,125l125,-0Zm258.333,-125l-125,0l0,125l125,-0l0,-125Zm-129.167,129.167l-125,0l0,125l125,-0l0,-125Zm258.333,-4.167l0,-125l-125,0l0,125l125,-0Zm129.167,4.167l-125,0l0,125l125,-0l0,-125Zm-129.167,254.167l0,-125l-125,0l0,125l125,-0Zm-254.167,0l125,-0l0,-125l-125,0l0,125Zm-129.167,0l125,-0l0,-125l-125,0l0,125Zm-129.167,0l125,-0l0,-125l-125,0l0,125Zm-129.167,0l125,-0l0,-125l-125,0l0,125Zm-0,-254.167l0,125l125,-0l0,-125l-125,0Zm0,-129.167l0,125l125,-0l0,-125l-125,0Zm254.167,129.167l-125,0l0,125l125,-0l0,-125Zm258.333,-0l-125,0l0,125l125,-0l0,-125Zm129.167,0l-125,0l0,125l125,-0l0,-125Zm1554.167,-4.167l0,133.333l-133.333,0l0,-133.333l133.333,0Zm-4.167,4.167l-125,0l0,125l125,-0l0,-125Zm-125,-262.5l0,133.333l-133.333,0l0,-133.333l133.333,0Zm-4.167,4.167l-125,0l0,125l125,-0l0,-125Zm-383.333,-133.333l0,133.333l-133.333,0l0,-133.333l133.333,0Zm-4.167,4.167l-125,0l0,125l125,-0l0,-125Z" style="fill:url(#_Linear56);"/><defs><linearGradient id="_Linear1" x1="0" y1="0" x2="1" y2="0" gradientUnits="userSpaceOnUse" gradientTransform="matrix(2329.166667,0,0,2329.166667,0,454.166667)"><stop offset="0" style="stop-color:#181818;stop-opacity:1"/><stop offset="1" style="stop-color:#181818;stop-opacity:0"/></linearGradient><linearGradient id="_Linear2" x1="0" y1="0" x2="1" y2="0" gradientUnits="userSpaceOnUse" gradientTransform="matrix(2329.166667,0,0,2329.166667,0,454.166667)"><stop offset="0" style="stop-color:#3c3c3c;stop-opacity:1"/><stop offset="1" style="stop-color:#3c3c3c;stop-opacity:0"/></linearGradient><linearGradient id="_Linear3" x1="0" y1="0" x2="1" y2="0" gradientUnits="userSpaceOnUse" gradientTransform="matrix(2329.166667,0,0,2329.166667,0,454.166667)"><stop offset="0" style="stop-color:#181818;stop-opacity:1"/><stop offset="1" style="stop-color:#181818;stop-opacity:0"/></linearGradient><linearGradient id="_Linear4" x1="0" y1="0" x2="1" y2="0" gradientUnits="userSpaceOnUse" gradientTransform="matrix(2329.166667,0,0,2329.166667,0,454.166667)"><stop offset="0" style="stop-color:#222;stop-opacity:1"/><stop offset="1" style="stop-color:#222;stop-opacity:0"/></linearGradient><linearGradient id="_Linear5" x1="0" y1="0" x2="1" y2="0" gradientUnits="userSpaceOnUse" gradientTransform="matrix(2329.166667,0,0,2329.166667,-0,454.166667)"><stop offset="0" style="stop-color:#222;stop-opacity:1"/><stop offset="1" style="stop-color:#222;stop-opacity:0"/></linearGradient><linearGradient id="_Linear6" x1="0" y1="0" x2="1" y2="0" gradientUnits="userSpaceOnUse" gradientTransform="matrix(2329.166667,0,0,2329.166667,-0,454.166667)"><stop offset="0" style="stop-color:#222;stop-opacity:1"/><stop offset="1" style="stop-color:#222;stop-opacity:0"/></linearGradient><linearGradient id="_Linear7" x1="0" y1="0" x2="1" y2="0" gradientUnits="userSpaceOnUse" gradientTransform="matrix(2329.166667,0,0,2329.166667,0,454.166667)"><stop offset="0" style="stop-color:#181818;stop-opacity:1"/><stop offset="1" style="stop-color:#181818;stop-opacity:0"/></linearGradient><linearGradient id="_Linear8" x1="0" y1="0" x2="1" y2="0" gradientUnits="userSpaceOnUse" gradientTransform="matrix(2329.166667,0,0,2329.166667,0,454.166667)"><stop offset="0" style="stop-color:#181818;stop-opacity:1"/><stop offset="1" style="stop-color:#181818;stop-opacity:0"/></linearGradient><linearGradient id="_Linear9" x1="0" y1="0" x2="1" y2="0" gradientUnits="userSpaceOnUse" gradientTransform="matrix(2329.166667,0,0,2329.166667,0,454.166667)"><stop offset="0" style="stop-color:#181818;stop-opacity:1"/><stop offset="1" style="stop-color:#181818;stop-opacity:0"/></linearGradient><linearGradient id="_Linear10" x1="0" y1="0" x2="1" y2="0" gradientUnits="userSpaceOnUse" gradientTransform="matrix(2329.166667,0,0,2329.166667,0,454.166667)"><stop offset="0" style="stop-color:#222;stop-opacity:1"/><stop offset="1" style="stop-color:#222;stop-opacity:0"/></linearGradient><linearGradient id="_Linear11" x1="0" y1="0" x2="1" y2="0" gradientUnits="userSpaceOnUse" gradientTransform="matrix(2329.166667,0,0,2329.166667,0,454.166667)"><stop offset="0" style="stop-color:#222;stop-opacity:1"/><stop offset="1" style="stop-color:#222;stop-opacity:0"/></linearGradient><linearGradient id="_Linear12" x1="0" y1="0" x2="1" y2="0" gradientUnits="userSpaceOnUse" gradientTransform="matrix(2329.166667,0,0,2329.166667,0,454.166667)"><stop offset="0" style="stop-color:#181818;stop-opacity:1"/><stop offset="1" style="stop-color:#181818;stop-opacity:0"/></linearGradient><linearGradient id="_Linear13" x1="0" y1="0" x2="1" y2="0" gradientUnits="userSpaceOnUse" gradientTransform="matrix(2329.166667,0,0,2329.166667,0,454.166667)"><stop offset="0" style="stop-color:#3c3c3c;stop-opacity:1"/><stop offset="1" style="stop-color:#3c3c3c;stop-opacity:0"/></linearGradient><linearGradient id="_Linear14" x1="0" y1="0" x2="1" y2="0" gradientUnits="userSpaceOnUse" gradientTransform="matrix(2329.166667,0,0,2329.166667,0,454.166667)"><stop offset="0" style="stop-color:#181818;stop-opacity:1"/><stop offset="1" style="stop-color:#181818;stop-opacity:0"/></linearGradient><linearGradient id="_Linear15" x1="0" y1="0" x2="1" y2="0" gradientUnits="userSpaceOnUse" gradientTransform="matrix(2329.166667,0,0,2329.166667,0,454.166667)"><stop offset="0" style="stop-color:#181818;stop-opacity:1"/><stop offset="1" style="stop-color:#181818;stop-opacity:0"/></linearGradient><linearGradient id="_Linear16" x1="0" y1="0" x2="1" y2="0" gradientUnits="userSpaceOnUse" gradientTransform="matrix(2329.166667,0,0,2329.166667,-0,454.166667)"><stop offset="0" style="stop-color:#181818;stop-opacity:1"/><stop offset="1" style="stop-color:#181818;stop-opacity:0"/></linearGradient><linearGradient id="_Linear17" x1="0" y1="0" x2="1" y2="0" gradientUnits="userSpaceOnUse" gradientTransform="matrix(2329.166667,0,0,2329.166667,0,454.166667)"><stop offset="0" style="stop-color:#3c3c3c;stop-opacity:1"/><stop offset="1" style="stop-color:#3c3c3c;stop-opacity:0"/></linearGradient><linearGradient id="_Linear18" x1="0" y1="0" x2="1" y2="0" gradientUnits="userSpaceOnUse" gradientTransform="matrix(2329.166667,0,0,2329.166667,0,454.166667)"><stop offset="0" style="stop-color:#181818;stop-opacity:1"/><stop offset="1" style="stop-color:#181818;stop-opacity:0"/></linearGradient><linearGradient id="_Linear19" x1="0" y1="0" x2="1" y2="0" gradientUnits="userSpaceOnUse" gradientTransform="matrix(2329.166667,0,0,2329.166667,0,454.166667)"><stop offset="0" style="stop-color:#181818;stop-opacity:1"/><stop offset="1" style="stop-color:#181818;stop-opacity:0"/></linearGradient><linearGradient id="_Linear20" x1="0" y1="0" x2="1" y2="0" gradientUnits="userSpaceOnUse" gradientTransform="matrix(2329.166667,0,0,2329.166667,0,454.166667)"><stop offset="0" style="stop-color:#181818;stop-opacity:1"/><stop offset="1" style="stop-color:#181818;stop-opacity:0"/></linearGradient><linearGradient id="_Linear21" x1="0" y1="0" x2="1" y2="0" gradientUnits="userSpaceOnUse" gradientTransform="matrix(2329.166667,0,0,2329.166667,0,454.166667)"><stop offset="0" style="stop-color:#181818;stop-opacity:1"/><stop offset="1" style="stop-color:#181818;stop-opacity:0"/></linearGradient><linearGradient id="_Linear22" x1="0" y1="0" x2="1" y2="0" gradientUnits="userSpaceOnUse" gradientTransform="matrix(2329.166667,0,0,2329.166667,0,454.166667)"><stop offset="0" style="stop-color:#222;stop-opacity:1"/><stop offset="1" style="stop-color:#222;stop-opacity:0"/></linearGradient><linearGradient id="_Linear23" x1="0" y1="0" x2="1" y2="0" gradientUnits="userSpaceOnUse" gradientTransform="matrix(2329.166667,0,0,2329.166667,-0,454.166667)"><stop offset="0" style="stop-color:#181818;stop-opacity:1"/><stop offset="1" style="stop-color:#181818;stop-opacity:0"/></linearGradient><linearGradient id="_Linear24" x1="0" y1="0" x2="1" y2="0" gradientUnits="userSpaceOnUse" gradientTransform="matrix(2329.166667,0,0,2329.166667,0,454.166667)"><stop offset="0" style="stop-color:#222;stop-opacity:1"/><stop offset="1" style="stop-color:#222;stop-opacity:0"/></linearGradient><linearGradient id="_Linear25" x1="0" y1="0" x2="1" y2="0" gradientUnits="userSpaceOnUse" gradientTransform="matrix(2329.166667,0,0,2329.166667,-0,454.166667)"><stop offset="0" style="stop-color:#181818;stop-opacity:1"/><stop offset="1" style="stop-color:#181818;stop-opacity:0"/></linearGradient><linearGradient id="_Linear26" x1="0" y1="0" x2="1" y2="0" gradientUnits="userSpaceOnUse" gradientTransform="matrix(2329.166667,0,0,2329.166667,-0,454.166667)"><stop offset="0" style="stop-color:#222;stop-opacity:1"/><stop offset="1" style="stop-color:#222;stop-opacity:0"/></linearGradient><linearGradient id="_Linear27" x1="0" y1="0" x2="1" y2="0" gradientUnits="userSpaceOnUse" gradientTransform="matrix(2329.166667,0,0,2329.166667,0,454.166667)"><stop offset="0" style="stop-color:#222;stop-opacity:1"/><stop offset="1" style="stop-color:#222;stop-opacity:0"/></linearGradient><linearGradient id="_Linear28" x1="0" y1="0" x2="1" y2="0" gradientUnits="userSpaceOnUse" gradientTransform="matrix(2329.166667,0,0,2329.166667,0,454.166667)"><stop offset="0" style="stop-color:#181818;stop-opacity:1"/><stop offset="1" style="stop-color:#181818;stop-opacity:0"/></linearGradient><linearGradient id="_Linear29" x1="0" y1="0" x2="1" y2="0" gradientUnits="userSpaceOnUse" gradientTransform="matrix(2329.166667,0,0,2329.166667,0,454.166667)"><stop offset="0" style="stop-color:#222;stop-opacity:1"/><stop offset="1" style="stop-color:#222;stop-opacity:0"/></linearGradient><linearGradient id="_Linear30" x1="0" y1="0" x2="1" y2="0" gradientUnits="userSpaceOnUse" gradientTransform="matrix(2329.166667,0,0,2329.166667,0,454.166667)"><stop offset="0" style="stop-color:#222;stop-opacity:1"/><stop offset="1" style="stop-color:#222;stop-opacity:0"/></linearGradient><linearGradient id="_Linear31" x1="0" y1="0" x2="1" y2="0" gradientUnits="userSpaceOnUse" gradientTransform="matrix(2329.166667,0,0,2329.166667,0,454.166667)"><stop offset="0" style="stop-color:#181818;stop-opacity:1"/><stop offset="1" style="stop-color:#181818;stop-opacity:0"/></linearGradient><linearGradient id="_Linear32" x1="0" y1="0" x2="1" y2="0" gradientUnits="userSpaceOnUse" gradientTransform="matrix(2329.166667,0,0,2329.166667,-0,454.166667)"><stop offset="0" style="stop-color:#181818;stop-opacity:1"/><stop offset="1" style="stop-color:#181818;stop-opacity:0"/></linearGradient><linearGradient id="_Linear33" x1="0" y1="0" x2="1" y2="0" gradientUnits="userSpaceOnUse" gradientTransform="matrix(2329.166667,0,0,2329.166667,0,454.166667)"><stop offset="0" style="stop-color:#181818;stop-opacity:1"/><stop offset="1" style="stop-color:#181818;stop-opacity:0"/></linearGradient><linearGradient id="_Linear34" x1="0" y1="0" x2="1" y2="0" gradientUnits="userSpaceOnUse" gradientTransform="matrix(2329.166667,0,0,2329.166667,-0,454.166667)"><stop offset="0" style="stop-color:#181818;stop-opacity:1"/><stop offset="1" style="stop-color:#181818;stop-opacity:0"/></linearGradient><linearGradient id="_Linear35" x1="0" y1="0" x2="1" y2="0" gradientUnits="userSpaceOnUse" gradientTransform="matrix(2329.166667,0,0,2329.166667,-0,454.166667)"><stop offset="0" style="stop-color:#3c3c3c;stop-opacity:1"/><stop offset="1" style="stop-color:#3c3c3c;stop-opacity:0"/></linearGradient><linearGradient id="_Linear36" x1="0" y1="0" x2="1" y2="0" gradientUnits="userSpaceOnUse" gradientTransform="matrix(2329.166667,0,0,2329.166667,0,454.166667)"><stop offset="0" style="stop-color:#181818;stop-opacity:1"/><stop offset="1" style="stop-color:#181818;stop-opacity:0"/></linearGradient><linearGradient id="_Linear37" x1="0" y1="0" x2="1" y2="0" gradientUnits="userSpaceOnUse" gradientTransform="matrix(2329.166667,0,0,2329.166667,0,454.166667)"><stop offset="0" style="stop-color:#222;stop-opacity:1"/><stop offset="1" style="stop-color:#222;stop-opacity:0"/></linearGradient><linearGradient id="_Linear38" x1="0" y1="0" x2="1" y2="0" gradientUnits="userSpaceOnUse" gradientTransform="matrix(2329.166667,0,0,2329.166667,0,454.166667)"><stop offset="0" style="stop-color:#181818;stop-opacity:1"/><stop offset="1" style="stop-color:#181818;stop-opacity:0"/></linearGradient><linearGradient id="_Linear39" x1="0" y1="0" x2="1" y2="0" gradientUnits="userSpaceOnUse" gradientTransform="matrix(2329.166667,0,0,2329.166667,0,454.166667)"><stop offset="0" style="stop-color:#181818;stop-opacity:1"/><stop offset="1" style="stop-color:#181818;stop-opacity:0"/></linearGradient><linearGradient id="_Linear40" x1="0" y1="0" x2="1" y2="0" gradientUnits="userSpaceOnUse" gradientTransform="matrix(2329.166667,0,0,2329.166667,-0,454.166667)"><stop offset="0" style="stop-color:#181818;stop-opacity:1"/><stop offset="1" style="stop-color:#181818;stop-opacity:0"/></linearGradient><linearGradient id="_Linear41" x1="0" y1="0" x2="1" y2="0" gradientUnits="userSpaceOnUse" gradientTransform="matrix(2329.166667,0,0,2329.166667,0,454.166667)"><stop offset="0" style="stop-color:#3c3c3c;stop-opacity:1"/><stop offset="1" style="stop-color:#3c3c3c;stop-opacity:0"/></linearGradient><linearGradient id="_Linear42" x1="0" y1="0" x2="1" y2="0" gradientUnits="userSpaceOnUse" gradientTransform="matrix(2329.166667,0,0,2329.166667,0,454.166667)"><stop offset="0" style="stop-color:#181818;stop-opacity:1"/><stop offset="1" style="stop-color:#181818;stop-opacity:0"/></linearGradient><linearGradient id="_Linear43" x1="0" y1="0" x2="1" y2="0" gradientUnits="userSpaceOnUse" gradientTransform="matrix(2329.166667,0,0,2329.166667,0,454.166667)"><stop offset="0" style="stop-color:#181818;stop-opacity:1"/><stop offset="1" style="stop-color:#181818;stop-opacity:0"/></linearGradient><linearGradient id="_Linear44" x1="0" y1="0" x2="1" y2="0" gradientUnits="userSpaceOnUse" gradientTransform="matrix(2329.166667,0,0,2329.166667,0,454.166667)"><stop offset="0" style="stop-color:#222;stop-opacity:1"/><stop offset="1" style="stop-color:#222;stop-opacity:0"/></linearGradient><linearGradient id="_Linear45" x1="0" y1="0" x2="1" y2="0" gradientUnits="userSpaceOnUse" gradientTransform="matrix(2329.166667,0,0,2329.166667,0,454.166667)"><stop offset="0" style="stop-color:#222;stop-opacity:1"/><stop offset="1" style="stop-color:#222;stop-opacity:0"/></linearGradient><linearGradient id="_Linear46" x1="0" y1="0" x2="1" y2="0" gradientUnits="userSpaceOnUse" gradientTransform="matrix(2329.166667,0,0,2329.166667,0,454.166667)"><stop offset="0" style="stop-color:#222;stop-opacity:1"/><stop offset="1" style="stop-color:#222;stop-opacity:0"/></linearGradient><linearGradient id="_Linear47" x1="0" y1="0" x2="1" y2="0" gradientUnits="userSpaceOnUse" gradientTransform="matrix(2329.166667,0,0,2329.166667,0,454.166667)"><stop offset="0" style="stop-color:#222;stop-opacity:1"/><stop offset="1" style="stop-color:#222;stop-opacity:0"/></linearGradient><linearGradient id="_Linear48" x1="0" y1="0" x2="1" y2="0" gradientUnits="userSpaceOnUse" gradientTransform="matrix(2329.166667,0,0,2329.166667,0,454.166667)"><stop offset="0" style="stop-color:#3c3c3c;stop-opacity:1"/><stop offset="1" style="stop-color:#3c3c3c;stop-opacity:0"/></linearGradient><linearGradient id="_Linear49" x1="0" y1="0" x2="1" y2="0" gradientUnits="userSpaceOnUse" gradientTransform="matrix(2329.166667,0,0,2329.166667,-0,454.166667)"><stop offset="0" style="stop-color:#3c3c3c;stop-opacity:1"/><stop offset="1" style="stop-color:#3c3c3c;stop-opacity:0"/></linearGradient><linearGradient id="_Linear50" x1="0" y1="0" x2="1" y2="0" gradientUnits="userSpaceOnUse" gradientTransform="matrix(2329.166667,0,0,2329.166667,0,454.166667)"><stop offset="0" style="stop-color:#181818;stop-opacity:1"/><stop offset="1" style="stop-color:#181818;stop-opacity:0"/></linearGradient><linearGradient id="_Linear51" x1="0" y1="0" x2="1" y2="0" gradientUnits="userSpaceOnUse" gradientTransform="matrix(2329.166667,0,0,2329.166667,0,454.166667)"><stop offset="0" style="stop-color:#222;stop-opacity:1"/><stop offset="1" style="stop-color:#222;stop-opacity:0"/></linearGradient><linearGradient id="_Linear52" x1="0" y1="0" x2="1" y2="0" gradientUnits="userSpaceOnUse" gradientTransform="matrix(2329.166667,0,0,2329.166667,0,454.166667)"><stop offset="0" style="stop-color:#3c3c3c;stop-opacity:1"/><stop offset="1" style="stop-color:#3c3c3c;stop-opacity:0"/></linearGradient><linearGradient id="_Linear53" x1="0" y1="0" x2="1" y2="0" gradientUnits="userSpaceOnUse" gradientTransform="matrix(2329.166667,0,0,2329.166667,0,454.166667)"><stop offset="0" style="stop-color:#222;stop-opacity:1"/><stop offset="1" style="stop-color:#222;stop-opacity:0"/></linearGradient><linearGradient id="_Linear54" x1="0" y1="0" x2="1" y2="0" gradientUnits="userSpaceOnUse" gradientTransform="matrix(2329.166667,0,0,2329.166667,-0,454.166667)"><stop offset="0" style="stop-color:#181818;stop-opacity:1"/><stop offset="1" style="stop-color:#181818;stop-opacity:0"/></linearGradient><linearGradient id="_Linear55" x1="0" y1="0" x2="1" y2="0" gradientUnits="userSpaceOnUse" gradientTransform="matrix(2329.166667,0,0,2329.166667,0,454.166667)"><stop offset="0" style="stop-color:#181818;stop-opacity:1"/><stop offset="1" style="stop-color:#181818;stop-opacity:0"/></linearGradient><linearGradient id="_Linear56" x1="0" y1="0" x2="1" y2="0" gradientUnits="userSpaceOnUse" gradientTransform="matrix(2329.166667,0,0,2329.166667,0,454.166667)"><stop offset="0" style="stop-color:#555;stop-opacity:1"/><stop offset="1" style="stop-color:#555;stop-opacity:0"/></linearGradient></defs></svg>