<?xml version="1.0" encoding="UTF-8" standalone="no"?><!DOCTYPE svg PUBLIC "-//W3C//DTD SVG 1.1//EN" "http://www.w3.org/Graphics/SVG/1.1/DTD/svg11.dtd"><svg width="3840px" height="2160px" viewBox="0 0 33334 18750" version="1.1" xmlns="http://www.w3.org/2000/svg" xmlns:xlink="http://www.w3.org/1999/xlink" xml:space="preserve" xmlns:serif="http://www.serif.com/" style="fill-rule:evenodd;clip-rule:evenodd;stroke-linecap:round;stroke-linejoin:round;stroke-miterlimit:1.5;"><rect x="0" y="0" width="33333.333" height="18750" style="fill:url(#_Radial1);"/><g><path d="M-1979.167,1788.196l27795.138,-9947.917" style="fill:none;stroke:url(#_Radial2);stroke-width:17.38px;"/><path d="M-260.417,5607.638l27795.138,-9947.917" style="fill:none;stroke:url(#_Radial3);stroke-width:17.38px;"/><path d="M0,9947.917l27795.138,-9947.917" style="fill:none;stroke:url(#_Radial4);stroke-width:17.38px;"/><path d="M0,14375l33333.333,-11930.042" style="fill:none;stroke:url(#_Radial5);stroke-width:17.38px;"/><path d="M138.888,18750l33333.333,-11930.042" style="fill:none;stroke:url(#_Radial6);stroke-width:17.38px;"/><path d="M12500,18750l33333.333,-11930.042" style="fill:none;stroke:url(#_Radial7);stroke-width:17.38px;"/><path d="M21788.196,19861.113l33333.333,-11930.042" style="fill:none;stroke:url(#_Radial8);stroke-width:17.38px;"/><path d="M0,52.083l20451.388,18697.917" style="fill:none;stroke:url(#_Radial9);stroke-width:17.38px;"/><path d="M7684.458,0l20527.346,18767.363" style="fill:none;stroke:url(#_Radial10);stroke-width:17.38px;"/><path d="M13934.458,-1371.529l20527.346,18767.363" style="fill:none;stroke:url(#_Radial11);stroke-width:17.38px;"/><path d="M19698.35,-3194.446l20527.346,18767.363" style="fill:none;stroke:url(#_Radial12);stroke-width:17.38px;"/><path d="M25358.071,-5086.804l20527.346,18767.363" style="fill:none;stroke:url(#_Radial13);stroke-width:17.38px;"/><path d="M-4965.279,2586.804l20451.388,18697.917" style="fill:none;stroke:url(#_Radial14);stroke-width:17.38px;"/><path d="M-8993.054,5989.583l20451.387,18697.917" style="fill:none;stroke:url(#_Radial15);stroke-width:17.38px;"/></g><clipPath id="_clip16"><rect x="12681.534" y="3697.917" width="7970.266" height="11354.167"/></clipPath><g clip-path="url(#_clip16)"><g id="Logo_00000003095499129166098150000008684721280523552656_"><g id="Icon_00000140716340568838591020000007209717081622135971_"><g><g><path d="M20597.461,11719.015c-151.623,408.417 -780.9,195.444 -780.9,195.444l-731.82,-477.655l-879.937,-573.186l-99.037,-64.856l-537.252,-1516.226l-1410.178,1798.437c0,0 771.259,769.507 1185.811,1283.972c46.451,57.844 87.643,111.307 123.577,161.263c70.991,99.037 118.318,180.545 128.835,231.378c71.867,337.426 -123.577,582.827 -123.577,582.827l-813.328,911.488l-694.134,777.395c-343.561,-51.709 -725.685,-203.332 -1118.326,-531.117l322.527,-364.595l42.945,-49.08l477.655,-540.758l452.239,-511.836c-1040.324,-1443.482 -1689.759,-1787.92 -1689.759,-1787.92l-457.497,575.815l-518.847,654.694c-96.407,-230.501 -191.938,-482.037 -287.469,-756.36c-76.25,-220.861 -142.858,-471.52 -199.826,-731.82l546.893,-700.269l2014.915,-2580.214l-1167.406,-762.495l-469.767,395.27l-235.76,198.95l-276.952,232.254l-203.332,170.028c0,0 -263.806,225.243 -507.454,184.927c18.405,-357.584 70.991,-718.674 137.6,-1052.594c240.142,-220.861 575.815,-524.106 867.667,-770.383l0,-0.876c42.069,-36.81 84.137,-70.991 124.453,-103.419c154.252,-128.835 289.222,-231.378 375.113,-282.211c35.057,-21.911 62.227,-35.057 80.632,-37.687c219.984,-35.057 470.644,68.362 470.644,68.362l3298.887,2203.348l383,255.918l495.184,1702.029c0,0 92.025,59.597 231.378,148.117c368.101,236.636 1059.605,678.358 1202.464,757.237c198.95,107.801 390.888,297.11 240.142,706.404Z" style="fill:#fff;fill-rule:nonzero;"/></g></g><path d="M19155.731,10253.622c0.876,-521.477 -27.169,-1131.473 -98.16,-1729.199c-80.632,-683.616 -272.57,-1758.997 -585.456,-2565.314c-202.456,-517.094 -356.708,-814.205 -463.632,-949.175c-95.531,-122.7 -153.375,-115.689 -126.206,22.787c23.664,113.936 170.028,399.653 262.053,667.841c137.6,403.158 496.937,1448.741 357.584,1256.802c-60.474,-85.014 -380.371,-1022.795 -840.498,-1695.894c-443.474,-647.683 -1045.582,-1617.892 -2397.039,-1560.924c-659.953,28.046 -1574.071,591.591 -2077.142,2032.444c-89.396,256.794 -244.524,756.36 -360.213,1339.187c-66.609,333.92 -119.195,695.01 -137.6,1052.594c-6.135,88.52 -8.764,177.039 -8.764,264.682c-0.876,265.559 73.62,1524.99 306.751,2596.866c57.844,260.3 123.577,510.959 199.826,731.82c95.531,274.323 191.062,525.859 287.469,756.36c159.51,381.248 322.527,702.898 490.801,972.839c292.728,469.767 589.838,808.946 880.813,1052.594c391.765,327.785 774.765,479.408 1118.326,531.117c222.614,33.304 429.451,25.417 611.749,-3.506c81.508,-18.405 1087.651,-254.165 1756.368,-1436.471c150.746,-265.559 591.591,-1128.843 750.225,-2154.268c4.382,-24.54 7.888,-50.833 11.394,-76.25c36.81,-255.041 60.474,-647.683 61.35,-1106.933Zm-1445.235,2740.6c-279.582,612.625 -612.625,958.816 -913.241,1171.789c-45.574,33.304 -91.149,61.35 -136.723,86.767c-662.582,375.113 -1265.567,40.316 -1489.057,-117.442c-58.721,-42.069 -92.025,-70.991 -92.025,-70.991c0,0 -23.664,-56.968 30.675,-23.664c22.787,13.146 63.979,31.552 104.295,46.451c50.833,19.281 96.407,35.057 96.407,35.057c0,0 754.607,256.794 1351.457,-354.955c384.753,-395.27 642.424,-858.026 806.317,-1240.15c188.433,-435.586 256.794,-767.754 257.671,-774.765c14.023,-141.982 -62.227,-136.723 -94.655,-39.439c-41.192,128.835 -144.611,383.877 -286.593,652.941c-110.43,212.096 -245.401,433.833 -390.888,606.49c-358.46,424.193 -794.047,538.129 -794.047,538.129c0,0 -210.343,66.609 -468.014,35.934l-25.417,-3.506c-167.398,-23.664 -333.92,-107.801 -524.106,-218.231c-328.662,-190.186 -655.571,-694.134 -925.511,-1103.427c-81.508,-123.577 -155.128,-259.424 -221.737,-401.406c-226.996,-485.543 -370.73,-1056.976 -460.126,-1533.755c-106.925,-569.68 -135.847,-1005.267 -135.847,-1005.267c0,0 -48.204,-736.202 1.753,-1510.967c8.764,-149.87 21.911,-300.616 39.439,-447.856c38.563,-321.65 147.24,-702.898 255.041,-1019.29l0,-0.876c134.094,-394.394 264.682,-687.999 251.536,-632.783c-14.023,62.227 -75.373,272.57 -127.083,528.488c-15.776,70.991 -29.799,145.488 -42.069,221.737c-71.867,434.71 -106.925,905.353 -106.048,964.074c1.753,51.709 3.506,103.419 5.259,154.252c22.787,579.321 82.385,1126.214 146.364,1334.805c28.046,92.025 134.97,143.735 122.7,-36.81c-19.281,-300.616 -63.979,-957.063 -33.304,-1496.945c1.753,-24.54 2.629,-48.204 5.259,-72.744c3.506,-34.181 14.023,-704.651 277.829,-1350.581c17.529,-44.698 35.934,-88.52 56.968,-132.341c168.275,-360.213 337.426,-624.895 515.342,-797.552c278.705,-269.941 543.387,-333.92 592.468,-342.685c263.806,-42.945 572.31,3.506 858.903,178.792c294.481,179.668 606.49,524.106 886.072,956.186c297.987,461.879 545.14,1046.459 731.82,1596.858c89.396,262.929 157.758,529.364 209.467,773.889c120.071,577.568 148.117,1031.56 148.117,1031.56c0,0 59.597,824.722 21.911,1500.45c-3.506,62.227 -7.011,123.577 -12.27,184.051c-70.114,954.434 -266.435,1630.162 -494.307,2129.728Z" style="fill:#ec6726;"/><g><path d="M17503.658,7208.024c-202.456,-136.723 -404.911,-273.447 -608.243,-409.293c-21.911,-14.899 -28.922,-28.922 -27.169,-55.215c35.057,-489.049 69.238,-978.097 102.542,-1468.022c1.753,-23.664 10.517,-35.057 30.675,-45.574c439.968,-213.849 879.937,-428.575 1319.029,-643.301c24.54,-12.27 41.192,-12.27 64.856,3.506c404.911,274.323 809.822,547.77 1215.61,820.34c21.911,14.899 28.922,28.922 27.169,55.215c-35.057,489.049 -69.238,978.097 -102.542,1468.022c-1.753,23.664 -10.517,35.057 -30.675,45.574c-439.968,213.849 -879.937,428.575 -1319.029,643.301c-26.293,13.146 -44.698,9.641 -67.485,-6.135c-200.703,-136.723 -403.158,-272.57 -604.738,-408.417Z" style="fill:#fff;fill-rule:nonzero;"/></g><path d="M20358.195,11010.859c-197.197,-108.677 -1432.965,-906.23 -1432.965,-906.23l-495.184,-1702.029l-3260.324,-2176.179l-425.946,950.928l807.193,527.612l-640.671,820.34l1762.503,1900.103l895.713,-1142.866l538.129,1516.226l1709.917,1115.697c0,0 629.278,212.973 780.9,-195.444c151.623,-409.293 -41.192,-598.603 -239.266,-708.156Z" style="fill:#fff;fill-rule:nonzero;"/></g></g></g><defs><radialGradient id="_Radial1" cx="0" cy="0" r="1" gradientUnits="userSpaceOnUse" gradientTransform="matrix(16666.666667,0,0,9375,16666.666667,9375)"><stop offset="0" style="stop-color:#1e1e1e;stop-opacity:1"/><stop offset="1" style="stop-color:#191919;stop-opacity:1"/></radialGradient><radialGradient id="_Radial2" cx="0" cy="0" r="1" gradientUnits="userSpaceOnUse" gradientTransform="matrix(-16805.555554,0,-0,-16805.555554,16805.555554,8409.978138)"><stop offset="0" style="stop-color:#646464;stop-opacity:1"/><stop offset="1" style="stop-color:#646464;stop-opacity:0"/></radialGradient><radialGradient id="_Radial3" cx="0" cy="0" r="1" gradientUnits="userSpaceOnUse" gradientTransform="matrix(-16805.555554,0,-0,-16805.555554,16805.555554,8409.978138)"><stop offset="0" style="stop-color:#646464;stop-opacity:1"/><stop offset="1" style="stop-color:#646464;stop-opacity:0"/></radialGradient><radialGradient id="_Radial4" cx="0" cy="0" r="1" gradientUnits="userSpaceOnUse" gradientTransform="matrix(-16805.555554,0,-0,-16805.555554,16805.555554,8409.978138)"><stop offset="0" style="stop-color:#646464;stop-opacity:1"/><stop offset="1" style="stop-color:#646464;stop-opacity:0"/></radialGradient><radialGradient id="_Radial5" cx="0" cy="0" r="1" gradientUnits="userSpaceOnUse" gradientTransform="matrix(-16805.555554,0,-0,-16805.555554,16805.555554,8409.978138)"><stop offset="0" style="stop-color:#646464;stop-opacity:1"/><stop offset="1" style="stop-color:#646464;stop-opacity:0"/></radialGradient><radialGradient id="_Radial6" cx="0" cy="0" r="1" gradientUnits="userSpaceOnUse" gradientTransform="matrix(-16805.555554,0,-0,-16805.555554,16805.555554,8409.978138)"><stop offset="0" style="stop-color:#646464;stop-opacity:1"/><stop offset="1" style="stop-color:#646464;stop-opacity:0"/></radialGradient><radialGradient id="_Radial7" cx="0" cy="0" r="1" gradientUnits="userSpaceOnUse" gradientTransform="matrix(-16805.555554,0,-0,-16805.555554,16805.555554,8409.978138)"><stop offset="0" style="stop-color:#646464;stop-opacity:1"/><stop offset="1" style="stop-color:#646464;stop-opacity:0"/></radialGradient><radialGradient id="_Radial8" cx="0" cy="0" r="1" gradientUnits="userSpaceOnUse" gradientTransform="matrix(-16805.555554,0,-0,-16805.555554,16805.555554,8409.978138)"><stop offset="0" style="stop-color:#646464;stop-opacity:1"/><stop offset="1" style="stop-color:#646464;stop-opacity:0"/></radialGradient><radialGradient id="_Radial9" cx="0" cy="0" r="1" gradientUnits="userSpaceOnUse" gradientTransform="matrix(-16805.555554,0,-0,-16805.555554,16805.555554,8409.978138)"><stop offset="0" style="stop-color:#646464;stop-opacity:1"/><stop offset="1" style="stop-color:#646464;stop-opacity:0"/></radialGradient><radialGradient id="_Radial10" cx="0" cy="0" r="1" gradientUnits="userSpaceOnUse" gradientTransform="matrix(-16805.555554,0,-0,-16805.555554,16805.555554,8409.978138)"><stop offset="0" style="stop-color:#646464;stop-opacity:1"/><stop offset="1" style="stop-color:#646464;stop-opacity:0"/></radialGradient><radialGradient id="_Radial11" cx="0" cy="0" r="1" gradientUnits="userSpaceOnUse" gradientTransform="matrix(-16805.555554,0,-0,-16805.555554,16805.555554,8409.978138)"><stop offset="0" style="stop-color:#646464;stop-opacity:1"/><stop offset="1" style="stop-color:#646464;stop-opacity:0"/></radialGradient><radialGradient id="_Radial12" cx="0" cy="0" r="1" gradientUnits="userSpaceOnUse" gradientTransform="matrix(-16805.555554,0,-0,-16805.555554,16805.555554,8409.978138)"><stop offset="0" style="stop-color:#646464;stop-opacity:1"/><stop offset="1" style="stop-color:#646464;stop-opacity:0"/></radialGradient><radialGradient id="_Radial13" cx="0" cy="0" r="1" gradientUnits="userSpaceOnUse" gradientTransform="matrix(-16805.555554,0,-0,-16805.555554,16805.555554,8409.978138)"><stop offset="0" style="stop-color:#646464;stop-opacity:1"/><stop offset="1" style="stop-color:#646464;stop-opacity:0"/></radialGradient><radialGradient id="_Radial14" cx="0" cy="0" r="1" gradientUnits="userSpaceOnUse" gradientTransform="matrix(-16805.555554,0,-0,-16805.555554,16805.555554,8409.978138)"><stop offset="0" style="stop-color:#646464;stop-opacity:1"/><stop offset="1" style="stop-color:#646464;stop-opacity:0"/></radialGradient><radialGradient id="_Radial15" cx="0" cy="0" r="1" gradientUnits="userSpaceOnUse" gradientTransform="matrix(-16805.555554,0,-0,-16805.555554,16805.555554,8409.978138)"><stop offset="0" style="stop-color:#646464;stop-opacity:1"/><stop offset="1" style="stop-color:#646464;stop-opacity:0"/></radialGradient></defs></svg>