<?xml version="1.0" encoding="UTF-8" standalone="no"?><!DOCTYPE svg PUBLIC "-//W3C//DTD SVG 1.1//EN" "http://www.w3.org/Graphics/SVG/1.1/DTD/svg11.dtd"><svg width="942px" height="1730px" viewBox="0 0 1963 3605" version="1.1" xmlns="http://www.w3.org/2000/svg" xmlns:xlink="http://www.w3.org/1999/xlink" xml:space="preserve" xmlns:serif="http://www.serif.com/" style="fill-rule:evenodd;clip-rule:evenodd;stroke-linecap:round;stroke-linejoin:round;stroke-miterlimit:1.5;"><g><g><clipPath id="_clip1"><rect x="0" y="0" width="1962.5" height="3604.167"/></clipPath><g clip-path="url(#_clip1)"><rect x="-2175" y="-516.667" width="8000" height="4500" style="fill:url(#_Radial2);"/><g><path d="M-2237.5,829.167l6670.833,-2387.5" style="fill:none;stroke:url(#_Radial3);stroke-width:4.17px;"/><path d="M-2175,1870.833l6670.833,-2387.5" style="fill:none;stroke:url(#_Radial4);stroke-width:4.17px;"/><path d="M-2175,2933.333l8000,-2863.21" style="fill:none;stroke:url(#_Radial5);stroke-width:4.17px;"/><path d="M-2141.667,3983.333l8000,-2863.21" style="fill:none;stroke:url(#_Radial6);stroke-width:4.17px;"/><path d="M825,3983.333l8000,-2863.21" style="fill:none;stroke:url(#_Radial7);stroke-width:4.17px;"/><path d="M-2175,-504.167l4908.333,4487.5" style="fill:none;stroke:url(#_Radial8);stroke-width:4.17px;"/><path d="M-330.73,-516.667l4926.563,4504.167" style="fill:none;stroke:url(#_Radial9);stroke-width:4.17px;"/><path d="M1169.27,-845.833l4926.563,4504.167" style="fill:none;stroke:url(#_Radial10);stroke-width:4.17px;"/><path d="M-3366.667,104.167l4908.333,4487.5" style="fill:none;stroke:url(#_Radial11);stroke-width:4.17px;"/><path d="M-4333.333,920.833l4908.333,4487.5" style="fill:none;stroke:url(#_Radial12);stroke-width:4.17px;"/></g></g></g><clipPath id="_clip13"><rect x="246.613" y="893.75" width="1469.275" height="1816.667"/></clipPath><g clip-path="url(#_clip13)"><g><rect x="1079.7" y="899.009" width="16.69" height="1806.466" style="fill:#119bcf;"/><g id="g48"><g id="g46"><path id="path42" d="M258.507,2243.835l0.596,-128.425l336.802,-326.469l0.35,-0.277c34.029,-28.289 59.327,-53.742 75.237,-75.712c14.956,-20.66 22.536,-42.016 22.536,-63.508c0,-30.815 -9.83,-54.742 -30.035,-73.154c-20.255,-18.442 -47.577,-27.79 -81.175,-27.79c-32.386,0 -58.958,9.004 -81.196,27.482c-21.591,17.924 -32.078,44.588 -32.078,81.505l0,11.833l-209.6,0l0,-11.833c0,-58.826 14.37,-111.21 42.76,-155.701c28.329,-44.414 67.699,-78.952 117.034,-102.648c48.933,-23.48 103.783,-35.37 163.09,-35.37c44.866,0 87.164,6.533 125.723,19.413c38.807,12.963 73.165,32.007 102.13,56.576c29.192,24.765 52.209,55.266 68.449,90.656c16.27,35.354 24.497,74.489 24.497,116.325c0,35.339 -8.094,68.705 -24.076,99.14c-15.613,29.752 -37.235,58.914 -64.228,86.645c-26.52,27.261 -59.387,57.44 -97.67,89.712l-160.103,136.878l364.927,0l0,184.742l-663.971,0l-0,-0.02Z" style="fill:#e8e8e8;fill-rule:nonzero;"/><path id="path44" d="M582.841,1375.601c43.818,0 84.482,6.28 121.973,18.807c37.522,12.537 70.258,30.64 98.227,54.382c27.959,23.712 49.755,52.539 65.336,86.569c15.623,33.998 23.44,71.145 23.44,111.394c0,33.557 -7.57,64.797 -22.721,93.645c-15.141,28.864 -35.878,56.827 -62.224,83.907c-26.316,27.054 -58.599,56.7 -96.81,88.91l-184.537,157.731l385.13,0l0,161.075l-640.253,0l0.513,-111.578l332.909,-322.664c34.954,-29.073 60.705,-55.039 77.241,-77.868c16.537,-22.812 24.816,-46.299 24.816,-70.452c0,-34.023 -11.298,-61.31 -33.895,-81.91c-22.597,-20.554 -52.323,-30.882 -89.146,-30.882c-34.934,0 -64.526,10.072 -88.768,30.219c-24.231,20.142 -36.34,50.34 -36.34,90.6l-185.935,0c0,-56.833 13.641,-106.587 40.91,-149.353c27.261,-42.729 64.67,-75.501 112.185,-98.328c47.517,-22.81 100.189,-34.205 157.946,-34.205m0,-23.665c-61.086,0 -117.67,12.3 -168.206,36.546c-51.369,24.662 -92.372,60.648 -121.892,106.947c-29.612,46.438 -44.609,100.964 -44.609,162.069l0,23.665l233.265,0l0,-23.665c0,-33.172 9.09,-56.852 27.795,-72.403c20.04,-16.651 44.126,-24.76 73.636,-24.76c30.989,0 54.931,8.083 73.226,24.724c17.585,16.04 26.141,37.105 26.141,64.402c0,19.207 -6.656,37.696 -20.328,56.559c-15.295,21.165 -39.936,45.903 -73.184,73.555l-0.699,0.576l-0.647,0.616l-332.909,322.679l-7.149,6.933l-0.043,9.974l-0.502,111.569l-0.124,23.789l687.73,0l0,-208.41l-344.692,0l135.809,-116.068c38.458,-32.417 71.604,-62.892 98.402,-90.41c27.773,-28.573 50.074,-58.655 66.22,-89.412c16.887,-32.139 25.442,-67.345 25.442,-104.646c0,-43.548 -8.608,-84.34 -25.597,-121.282c-16.927,-36.972 -41.004,-68.85 -71.52,-94.734c-30.106,-25.561 -65.799,-45.334 -106.022,-58.768c-39.833,-13.302 -83.394,-20.044 -129.544,-20.044Z" style="fill:#e8e8e8;fill-rule:nonzero;"/></g></g><g id="Clip"><g id="g1165"><g id="Clip1" serif:id="Clip"><g id="g71"><g><path id="path65_1_" d="M1603.745,1278.29c0,101.949 -82.646,184.583 -184.581,184.583c-101.943,0 -184.587,-82.635 -184.587,-184.583c0,-101.936 82.644,-184.579 184.587,-184.579c101.936,0 184.581,82.643 184.581,184.579" style="fill:#119bcf;fill-rule:nonzero;"/><path d="M1419.164,1468.132c-104.682,0 -189.847,-85.164 -189.847,-189.843c0,-104.677 85.165,-189.838 189.847,-189.838c104.678,0 189.842,85.161 189.842,189.838c0,104.679 -85.163,189.843 -189.842,189.843Zm0,-369.163c-98.883,0 -179.329,80.443 -179.329,179.32c0,98.879 80.446,179.324 179.329,179.324c98.879,0 179.321,-80.445 179.321,-179.324c0,-98.877 -80.443,-179.32 -179.321,-179.32Z" style="fill:#119bcf;fill-rule:nonzero;"/></g><g><path id="path67_1_" d="M1113.598,1315.163l318.992,243.044c0,0 11.124,6.106 12.85,31.981l50.033,222.479l210.381,155.213c0,0 34.226,112.021 -81.402,100.866l-216.934,-161.24c0,0 -13.3,-10.16 -22.432,-39.67l-41.384,-179.35l-232.823,274.217l212.105,291.453c0,0 46.581,63.817 -5.156,117.28l-215.58,210.403l0,-219.02l50.013,-41.406c0,0 13.795,-10.341 0,-25.852l-50.013,-62.089l0,-917.498l11.351,-0.816" style="fill:#119bcf;fill-rule:nonzero;"/><path d="M1096.989,2594.32l0,-233.974l52.118,-43.14c-0.002,0 3.596,-2.867 3.99,-7.243c0.301,-3.341 -1.302,-7.011 -4.765,-10.904l-0.167,-0.197l-51.175,-63.536l0,-924.246l16.233,-1.167l0.376,5.25l3.186,-4.183l318.77,242.874c2.589,1.63 13.282,9.871 15.105,35.571l49.513,220.175l210.203,155.08l0.506,1.663c0.66,2.154 15.821,53.114 -10.066,84.784c-15.214,18.619 -41.095,26.295 -76.868,22.854l-1.458,-0.14l-218.109,-162.115c-0.653,-0.499 -14.801,-11.576 -24.319,-42.337l-0.101,-0.373l-39.03,-169.143l-223.365,263.078l209.669,288.108c0.488,0.669 48.562,68.036 -5.625,124.034l-224.619,219.226Zm10.519,-229.03l0,204.068l206.646,-201.686c47.996,-49.602 5.021,-109.814 4.581,-110.417l-211.227,-290.247l0,264.609l48.772,60.548c5.469,6.188 7.916,12.561 7.274,18.944c-0.851,8.464 -6.855,13.517 -8.013,14.416l-48.032,39.764Zm518.896,-301.646c31.291,2.771 53.578,-3.674 66.245,-19.144c19.998,-24.424 10.861,-64.901 8.618,-73.467l-210.496,-155.299l-0.429,-1.912l-50.122,-222.878l-0.028,-0.406c-1.469,-22.047 -10.173,-27.737 -10.259,-27.792l-0.529,-0.355l-317.416,-241.843l-4.48,0.321l0,637.68l238.963,-281.451l43.696,189.365c8.413,27.06 20.455,36.795 20.576,36.889l215.662,160.292Z" style="fill:#119bcf;fill-rule:nonzero;"/></g><g><rect id="path69_1_" x="1078.39" y="899.009" width="33.36" height="1806.149" style="fill:#119bcf;fill-rule:nonzero;"/><path d="M1117.008,2710.417l-43.879,0l0,-1816.667l43.879,0l0,1816.667Zm-33.36,-10.519l22.841,0l0,-1795.629l-22.841,0l0,1795.629Z" style="fill:#119bcf;fill-rule:nonzero;"/></g></g></g></g></g></g></g></g><defs><radialGradient id="_Radial2" cx="0" cy="0" r="1" gradientUnits="userSpaceOnUse" gradientTransform="matrix(4000,0,0,2250,1825,1733.333333)"><stop offset="0" style="stop-color:#1e1e1e;stop-opacity:1"/><stop offset="1" style="stop-color:#191919;stop-opacity:1"/></radialGradient><radialGradient id="_Radial3" cx="0" cy="0" r="1" gradientUnits="userSpaceOnUse" gradientTransform="matrix(-4033.333333,0,-0,-4033.333333,1858.333333,1501.728087)"><stop offset="0" style="stop-color:#646464;stop-opacity:1"/><stop offset="1" style="stop-color:#646464;stop-opacity:0"/></radialGradient><radialGradient id="_Radial4" cx="0" cy="0" r="1" gradientUnits="userSpaceOnUse" gradientTransform="matrix(-4033.333333,0,-0,-4033.333333,1858.333333,1501.728087)"><stop offset="0" style="stop-color:#646464;stop-opacity:1"/><stop offset="1" style="stop-color:#646464;stop-opacity:0"/></radialGradient><radialGradient id="_Radial5" cx="0" cy="0" r="1" gradientUnits="userSpaceOnUse" gradientTransform="matrix(-4033.333333,0,-0,-4033.333333,1858.333333,1501.728087)"><stop offset="0" style="stop-color:#646464;stop-opacity:1"/><stop offset="1" style="stop-color:#646464;stop-opacity:0"/></radialGradient><radialGradient id="_Radial6" cx="0" cy="0" r="1" gradientUnits="userSpaceOnUse" gradientTransform="matrix(-4033.333333,0,-0,-4033.333333,1858.333333,1501.728087)"><stop offset="0" style="stop-color:#646464;stop-opacity:1"/><stop offset="1" style="stop-color:#646464;stop-opacity:0"/></radialGradient><radialGradient id="_Radial7" cx="0" cy="0" r="1" gradientUnits="userSpaceOnUse" gradientTransform="matrix(-4033.333333,0,-0,-4033.333333,1858.333333,1501.728087)"><stop offset="0" style="stop-color:#646464;stop-opacity:1"/><stop offset="1" style="stop-color:#646464;stop-opacity:0"/></radialGradient><radialGradient id="_Radial8" cx="0" cy="0" r="1" gradientUnits="userSpaceOnUse" gradientTransform="matrix(-4033.333333,0,-0,-4033.333333,1858.333333,1501.728087)"><stop offset="0" style="stop-color:#646464;stop-opacity:1"/><stop offset="1" style="stop-color:#646464;stop-opacity:0"/></radialGradient><radialGradient id="_Radial9" cx="0" cy="0" r="1" gradientUnits="userSpaceOnUse" gradientTransform="matrix(-4033.333333,0,-0,-4033.333333,1858.333333,1501.728087)"><stop offset="0" style="stop-color:#646464;stop-opacity:1"/><stop offset="1" style="stop-color:#646464;stop-opacity:0"/></radialGradient><radialGradient id="_Radial10" cx="0" cy="0" r="1" gradientUnits="userSpaceOnUse" gradientTransform="matrix(-4033.333333,0,-0,-4033.333333,1858.333333,1501.728087)"><stop offset="0" style="stop-color:#646464;stop-opacity:1"/><stop offset="1" style="stop-color:#646464;stop-opacity:0"/></radialGradient><radialGradient id="_Radial11" cx="0" cy="0" r="1" gradientUnits="userSpaceOnUse" gradientTransform="matrix(-4033.333333,0,-0,-4033.333333,1858.333333,1501.728087)"><stop offset="0" style="stop-color:#646464;stop-opacity:1"/><stop offset="1" style="stop-color:#646464;stop-opacity:0"/></radialGradient><radialGradient id="_Radial12" cx="0" cy="0" r="1" gradientUnits="userSpaceOnUse" gradientTransform="matrix(-4033.333333,0,-0,-4033.333333,1858.333333,1501.728087)"><stop offset="0" style="stop-color:#646464;stop-opacity:1"/><stop offset="1" style="stop-color:#646464;stop-opacity:0"/></radialGradient></defs></svg>