<?xml version="1.0" encoding="UTF-8" standalone="no"?><!DOCTYPE svg PUBLIC "-//W3C//DTD SVG 1.1//EN" "http://www.w3.org/Graphics/SVG/1.1/DTD/svg11.dtd"><svg width="942px" height="1730px" viewBox="0 0 1963 3605" version="1.1" xmlns="http://www.w3.org/2000/svg" xmlns:xlink="http://www.w3.org/1999/xlink" xml:space="preserve" xmlns:serif="http://www.serif.com/" style="fill-rule:evenodd;clip-rule:evenodd;stroke-linecap:round;stroke-linejoin:round;stroke-miterlimit:1.5;"><g><g><clipPath id="_clip1"><rect x="0" y="0" width="1962.5" height="3604.167"/></clipPath><g clip-path="url(#_clip1)"><rect x="-2175" y="-516.667" width="8000" height="4500" style="fill:url(#_Radial2);"/><g><path d="M-2237.5,829.167l6670.833,-2387.5" style="fill:none;stroke:url(#_Radial3);stroke-width:4.17px;"/><path d="M-2175,1870.833l6670.833,-2387.5" style="fill:none;stroke:url(#_Radial4);stroke-width:4.17px;"/><path d="M-2175,2933.333l8000,-2863.21" style="fill:none;stroke:url(#_Radial5);stroke-width:4.17px;"/><path d="M-2141.667,3983.333l8000,-2863.21" style="fill:none;stroke:url(#_Radial6);stroke-width:4.17px;"/><path d="M825,3983.333l8000,-2863.21" style="fill:none;stroke:url(#_Radial7);stroke-width:4.17px;"/><path d="M-2175,-504.167l4908.333,4487.5" style="fill:none;stroke:url(#_Radial8);stroke-width:4.17px;"/><path d="M-330.73,-516.667l4926.563,4504.167" style="fill:none;stroke:url(#_Radial9);stroke-width:4.17px;"/><path d="M1169.27,-845.833l4926.563,4504.167" style="fill:none;stroke:url(#_Radial10);stroke-width:4.17px;"/><path d="M-3366.667,104.167l4908.333,4487.5" style="fill:none;stroke:url(#_Radial11);stroke-width:4.17px;"/><path d="M-4333.333,920.833l4908.333,4487.5" style="fill:none;stroke:url(#_Radial12);stroke-width:4.17px;"/></g></g></g><clipPath id="_clip13"><rect x="246.613" y="893.75" width="1469.275" height="1816.667"/></clipPath><g clip-path="url(#_clip13)"><g><rect x="1079.7" y="899.009" width="16.69" height="1806.466" style="fill:#119bcf;"/><g id="g48"><g id="g46"><path id="path42" d="M258.507,2243.835l0.596,-128.425l336.802,-326.469l0.35,-0.277c34.029,-28.289 59.327,-53.742 75.237,-75.712c14.956,-20.66 22.536,-42.016 22.536,-63.508c0,-30.815 -9.83,-54.742 -30.035,-73.154c-20.255,-18.442 -47.577,-27.79 -81.175,-27.79c-32.386,0 -58.958,9.004 -81.196,27.482c-21.591,17.924 -32.078,44.588 -32.078,81.505l0,11.833l-209.6,0l0,-11.833c0,-58.826 14.37,-111.21 42.76,-155.701c28.329,-44.414 67.699,-78.952 117.034,-102.648c48.933,-23.48 103.783,-35.37 163.09,-35.37c44.866,0 87.164,6.533 125.723,19.413c38.807,12.963 73.165,32.007 102.13,56.576c29.192,24.765 52.209,55.266 68.449,90.656c16.27,35.354 24.497,74.489 24.497,116.325c0,35.339 -8.094,68.705 -24.076,99.14c-15.613,29.752 -37.235,58.914 -64.228,86.645c-26.52,27.261 -59.387,57.44 -97.67,89.712l-160.103,136.878l364.927,0l0,184.742l-663.971,0l-0,-0.02Z" style="fill:#e8e8e8;fill-rule:nonzero;"/><path id="path44" d="M582.841,1375.601c43.818,0 84.482,6.28 121.973,18.807c37.522,12.537 70.258,30.64 98.227,54.382c27.959,23.712 49.755,52.539 65.336,86.569c15.623,33.998 23.44,71.145 23.44,111.394c0,33.557 -7.57,64.797 -22.721,93.645c-15.141,28.864 -35.878,56.827 -62.224,83.907c-26.316,27.054 -58.599,56.7 -96.81,88.91l-184.537,157.731l385.13,0l0,161.075l-640.253,0l0.513,-111.578l332.909,-322.664c34.954,-29.073 60.705,-55.039 77.241,-77.868c16.537,-22.812 24.816,-46.299 24.816,-70.452c0,-34.023 -11.298,-61.31 -33.895,-81.91c-22.597,-20.554 -52.323,-30.882 -89.146,-30.882c-34.934,0 -64.526,10.072 -88.768,30.219c-24.231,20.142 -36.34,50.34 -36.34,90.6l-185.935,0c0,-56.833 13.641,-106.587 40.91,-149.353c27.261,-42.729 64.67,-75.501 112.185,-98.328c47.517,-22.81 100.189,-34.205 157.946,-34.205m0,-23.665c-61.086,0 -117.67,12.3 -168.206,36.546c-51.369,24.662 -92.372,60.648 -121.892,106.947c-29.612,46.438 -44.609,100.964 -44.609,162.069l0,23.665l233.265,0l0,-23.665c0,-33.172 9.09,-56.852 27.795,-72.403c20.04,-16.651 44.126,-24.76 73.636,-24.76c30.989,0 54.931,8.083 73.226,24.724c17.585,16.04 26.141,37.105 26.141,64.402c0,19.207 -6.656,37.696 -20.328,56.559c-15.295,21.165 -39.936,45.903 -73.184,73.555l-0.699,0.576l-0.647,0.616l-332.909,322.679l-7.149,6.933l-0.043,9.974l-0.502,111.569l-0.124,23.789l687.73,0l0,-208.41l-344.692,0l135.809,-116.068c38.458,-32.417 71.604,-62.892 98.402,-90.41c27.773,-28.573 50.074,-58.655 66.22,-89.412c16.887,-32.139 25.442,-67.345 25.442,-104.646c0,-43.548 -8.608,-84.34 -25.597,-121.282c-16.927,-36.972 -41.004,-68.85 -71.52,-94.734c-30.106,-25.561 -65.799,-45.334 -106.022,-58.768c-39.833,-13.302 -83.394,-20.044 -129.544,-20.044Z" style="fill:#e8e8e8;fill-rule:nonzero;"/></g></g><g id="Clip"><g id="g1165"><g id="Clip1" serif:id="Clip"><g id="g71"><g><path id="path65_1_" d="M1603.745,1278.29c0,101.949 -82.646,184.583 -184.581,184.583c-101.943,0 -184.587,-82.635 -184.587,-184.583c0,-101.936 82.644,-184.579 184.587,-184.579c101.936,0 184.581,82.643 184.581,184.579" style="fill:#119bcf;fill-rule:nonzero;"/><path d="M1419.164,1468.132c-104.682,0 -189.847,-85.164 -189.847,-189.843c0,-104.677 85.165,-189.838 189.847,-189.838c104.678,0 189.842,85.161 189.842,189.838c0,104.679 -85.163,189.843 -189.842,189.843Zm0,-369.163c-98.883,0 -179.329,80.443 -179.329,179.32c0,98.879 80.446,179.324 179.329,179.324c98.879,0 179.321,-80.445 179.321,-179.324c0,-98.877 -80.443,-179.32 -179.321,-179.32Z" style="fill:#119bcf;fill-rule:nonzero;"/></g><g><path id="path67_1_" d="M1113.598,1315.163l318.992,243.044c0,0 11.124,6.106 12.85,31.981l50.033,222.479l210.381,155.213c0,0 34.226,112.021 -81.402,100.866l-216.934,-161.24c0,0 -13.3,-10.16 -22.432,-39.67l-41.384,-179.35l-232.823,274.217l212.105,291.453c0,0 46.581,63.817 -5.156,117.28l-215.58,210.403l0,-219.02l50.013,-41.406c0,0 13.795,-10.341 0,-25.852l-50.013,-62.089l0,-917.498l11.351,-0.816" style="fill:#119bcf;fill-rule:nonzero;"/><path d="M1096.989,2594.32l0,-233.974l52.118,-43.14c-0.002,0 3.596,-2.867 3.99,-7.243c0.301,-3.341 -1.302,-7.011 -4.765,-10.904l-0.167,-0.197l-51.175,-63.536l0,-924.246l16.233,-1.167l0.376,5.25l3.186,-4.183l318.77,242.874c2.589,1.63 13.282,9.871 15.105,35.571l49.513,220.175l210.203,155.08l0.506,1.663c0.66,2.154 15.821,53.114 -10.066,84.784c-15.214,18.619 -41.095,26.295 -76.868,22.854l-1.458,-0.14l-218.109,-162.115c-0.653,-0.499 -14.801,-11.576 -24.319,-42.337l-0.101,-0.373l-39.03,-169.143l-223.365,263.078l209.669,288.108c0.488,0.669 48.562,68.036 -5.625,124.034l-224.619,219.226Zm10.519,-229.03l0,204.068l206.646,-201.686c47.996,-49.602 5.021,-109.814 4.581,-110.417l-211.227,-290.247l0,264.609l48.772,60.548c5.469,6.188 7.916,12.561 7.274,18.944c-0.851,8.464 -6.855,13.517 -8.013,14.416l-48.032,39.764Zm518.896,-301.646c31.291,2.771 53.578,-3.674 66.245,-19.144c19.998,-24.424 10.861,-64.901 8.618,-73.467l-210.496,-155.299l-0.429,-1.912l-50.122,-222.878l-0.028,-0.406c-1.469,-22.047 -10.173,-27.737 -10.259,-27.792l-0.529,-0.355l-317.416,-241.843l-4.48,0.321l0,637.68l238.963,-281.451l43.696,189.365c8.413,27.06 20.455,36.795 20.576,36.889l215.662,160.292Z" style="fill:#119bcf;fill-rule:nonzero;"/></g><g><rect id="path69_1_" x="1078.39" y="899.009" width="33.36" height="1806.149" style="fill:#119bcf;fill-rule:nonzero;"/><path d="M1117.008,2710.417l-43.879,0l0,-1816.667l43.879,0l0,1816.667Zm-33.36,-10.519l22.841,0l0,-1795.629l-22.841,0l0,1795.629Z" style="fill:#119bcf;fill-rule:nonzero;"/></g></g></g></g></g></g></g></g><g><g><clipPath id="_clip14"><rect x="0" y="0" width="1962.5" height="3604.167"/></clipPath><g clip-path="url(#_clip14)"><rect x="-141.667" y="-516.667" width="8000" height="4500" style="fill:url(#_Radial15);"/><g><path d="M-204.167,829.167l6670.833,-2387.5" style="fill:none;stroke:url(#_Radial16);stroke-width:4.17px;"/><path d="M-141.667,1870.833l6670.833,-2387.5" style="fill:none;stroke:url(#_Radial17);stroke-width:4.17px;"/><path d="M-141.667,2933.333l8000,-2863.21" style="fill:none;stroke:url(#_Radial18);stroke-width:4.17px;"/><path d="M-108.333,3983.333l8000,-2863.21" style="fill:none;stroke:url(#_Radial19);stroke-width:4.17px;"/><path d="M-141.667,-504.167l4908.333,4487.5" style="fill:none;stroke:url(#_Radial20);stroke-width:4.17px;"/><path d="M1702.604,-516.667l4926.563,4504.167" style="fill:none;stroke:url(#_Radial21);stroke-width:4.17px;"/><path d="M-1333.333,104.167l4908.333,4487.5" style="fill:none;stroke:url(#_Radial22);stroke-width:4.17px;"/><path d="M-2300,920.833l4908.333,4487.5" style="fill:none;stroke:url(#_Radial23);stroke-width:4.17px;"/></g></g></g><clipPath id="_clip24"><rect x="343.629" y="893.75" width="1275.243" height="1816.667"/></clipPath><g clip-path="url(#_clip24)"><g id="Logo_00000003095499129166098150000008684721280523552656_"><g id="Icon_00000140716340568838591020000007209717081622135971_"><g><g><path d="M1610.177,2177.126c-24.26,65.347 -124.944,31.271 -124.944,31.271l-117.091,-76.425l-140.79,-91.71l-15.846,-10.377l-85.96,-242.596l-225.628,287.75c0,0 123.402,123.121 189.73,205.435c7.432,9.255 14.023,17.809 19.772,25.802c11.359,15.846 18.931,28.887 20.614,37.02c11.499,53.988 -19.772,93.252 -19.772,93.252l-130.133,145.838l-111.061,124.383c-54.97,-8.274 -116.11,-32.533 -178.932,-84.979l51.604,-58.335l6.871,-7.853l76.425,-86.521l72.358,-81.894c-166.452,-230.957 -270.362,-286.067 -270.362,-286.067l-73.2,92.13l-83.016,104.751c-15.425,-36.88 -30.71,-77.126 -45.995,-121.018c-12.2,-35.338 -22.857,-75.443 -31.972,-117.091l87.503,-112.043l322.386,-412.834l-186.785,-121.999l-75.163,63.243l-37.722,31.832l-44.312,37.161l-32.533,27.204c0,0 -42.209,36.039 -81.193,29.588c2.945,-57.213 11.359,-114.988 22.016,-168.415c38.423,-35.338 92.13,-83.857 138.827,-123.261l0,-0.14c6.731,-5.89 13.462,-11.359 19.913,-16.547c24.68,-20.614 46.276,-37.02 60.018,-45.154c5.609,-3.506 9.956,-5.609 12.901,-6.03c35.197,-5.609 75.303,10.938 75.303,10.938l527.822,352.536l61.28,40.947l79.229,272.325c0,0 14.724,9.536 37.02,23.699c58.896,37.862 169.537,108.537 192.394,121.158c31.832,17.248 62.542,47.538 38.423,113.025Z" style="fill:#fff;fill-rule:nonzero;"/></g></g><path d="M1379.5,1942.663c0.14,-83.436 -4.347,-181.036 -15.706,-276.672c-12.901,-109.379 -43.611,-281.44 -93.673,-410.45c-32.393,-82.735 -57.073,-130.273 -74.181,-151.868c-15.285,-19.632 -24.54,-18.51 -20.193,3.646c3.786,18.23 27.204,63.944 41.928,106.854c22.016,64.505 79.51,231.799 57.213,201.088c-9.676,-13.602 -60.859,-163.647 -134.48,-271.343c-70.956,-103.629 -167.293,-258.863 -383.526,-249.748c-105.592,4.487 -251.851,94.655 -332.343,325.191c-14.303,41.087 -39.124,121.018 -57.634,214.27c-10.657,53.427 -19.071,111.202 -22.016,168.415c-0.982,14.163 -1.402,28.326 -1.402,42.349c-0.14,42.489 11.779,243.998 49.08,415.499c9.255,41.648 19.772,81.754 31.972,117.091c15.285,43.892 30.57,84.137 45.995,121.018c25.522,61 51.604,112.464 78.528,155.654c46.836,75.163 94.374,129.431 140.93,168.415c62.682,52.446 123.962,76.705 178.932,84.979c35.618,5.329 68.712,4.067 97.88,-0.561c13.041,-2.945 174.024,-40.666 281.019,-229.835c24.119,-42.489 94.655,-180.615 120.036,-344.683c0.701,-3.926 1.262,-8.133 1.823,-12.2c5.89,-40.807 9.676,-103.629 9.816,-177.109Zm-231.238,438.496c-44.733,98.02 -98.02,153.411 -146.119,187.486c-7.292,5.329 -14.584,9.816 -21.876,13.883c-106.013,60.018 -202.491,6.451 -238.249,-18.791c-9.395,-6.731 -14.724,-11.359 -14.724,-11.359c0,0 -3.786,-9.115 4.908,-3.786c3.646,2.103 10.237,5.048 16.687,7.432c8.133,3.085 15.425,5.609 15.425,5.609c0,0 120.737,41.087 216.233,-56.793c61.561,-63.243 102.788,-137.284 129.011,-198.424c30.149,-69.694 41.087,-122.841 41.227,-123.962c2.244,-22.717 -9.956,-21.876 -15.145,-6.31c-6.591,20.614 -23.138,61.42 -45.855,104.471c-17.669,33.935 -39.264,69.413 -62.542,97.038c-57.354,67.871 -127.047,86.101 -127.047,86.101c0,0 -33.655,10.657 -74.882,5.749l-4.067,-0.561c-26.784,-3.786 -53.427,-17.248 -83.857,-34.917c-52.586,-30.43 -104.891,-111.061 -148.082,-176.548c-13.041,-19.772 -24.821,-41.508 -35.478,-64.225c-36.319,-77.687 -59.317,-169.116 -73.62,-245.401c-17.108,-91.149 -21.735,-160.843 -21.735,-160.843c0,0 -7.713,-117.792 0.28,-241.755c1.402,-23.979 3.506,-48.099 6.31,-71.657c6.17,-51.464 23.558,-112.464 40.807,-163.086l0,-0.14c21.455,-63.103 42.349,-110.08 40.246,-101.245c-2.244,9.956 -12.06,43.611 -20.333,84.558c-2.524,11.359 -4.768,23.278 -6.731,35.478c-11.499,69.554 -17.108,144.857 -16.968,154.252c0.28,8.274 0.561,16.547 0.841,24.68c3.646,92.691 13.182,180.194 23.418,213.569c4.487,14.724 21.595,22.998 19.632,-5.89c-3.085,-48.099 -10.237,-153.13 -5.329,-239.511c0.28,-3.926 0.421,-7.713 0.841,-11.639c0.561,-5.469 2.244,-112.744 44.453,-216.093c2.805,-7.152 5.749,-14.163 9.115,-21.175c26.924,-57.634 53.988,-99.983 82.455,-127.608c44.593,-43.191 86.942,-53.427 94.795,-54.83c42.209,-6.871 91.57,0.561 137.424,28.607c47.117,28.747 97.038,83.857 141.772,152.99c47.678,73.901 87.222,167.433 117.091,255.497c14.303,42.069 25.241,84.698 33.515,123.822c19.211,92.411 23.699,165.05 23.699,165.05c0,0 9.536,131.955 3.506,240.072c-0.561,9.956 -1.122,19.772 -1.963,29.448c-11.218,152.709 -42.63,260.826 -79.089,340.756Z" style="fill:#ec6726;"/><g><path d="M1115.169,1455.367c-32.393,-21.876 -64.786,-43.751 -97.319,-65.487c-3.506,-2.384 -4.628,-4.628 -4.347,-8.834c5.609,-78.248 11.078,-156.496 16.407,-234.884c0.28,-3.786 1.683,-5.609 4.908,-7.292c70.395,-34.216 140.79,-68.572 211.045,-102.928c3.926,-1.963 6.591,-1.963 10.377,0.561c64.786,43.892 129.572,87.643 194.498,131.254c3.506,2.384 4.628,4.628 4.347,8.834c-5.609,78.248 -11.078,156.496 -16.407,234.884c-0.28,3.786 -1.683,5.609 -4.908,7.292c-70.395,34.216 -140.79,68.572 -211.045,102.928c-4.207,2.103 -7.152,1.543 -10.798,-0.982c-32.112,-21.876 -64.505,-43.611 -96.758,-65.347Z" style="fill:#fff;fill-rule:nonzero;"/></g><path d="M1571.895,2063.821c-31.552,-17.388 -229.274,-144.997 -229.274,-144.997l-79.229,-272.325l-521.652,-348.189l-68.151,152.148l129.151,84.418l-102.507,131.254l282.001,304.016l143.314,-182.859l86.101,242.596l273.587,178.512c0,0 100.684,34.076 124.944,-31.271c24.26,-65.487 -6.591,-95.776 -38.283,-113.305Z" style="fill:#fff;fill-rule:nonzero;"/></g></g></g></g><defs><radialGradient id="_Radial2" cx="0" cy="0" r="1" gradientUnits="userSpaceOnUse" gradientTransform="matrix(4000,0,0,2250,1825,1733.333333)"><stop offset="0" style="stop-color:#1e1e1e;stop-opacity:1"/><stop offset="1" style="stop-color:#191919;stop-opacity:1"/></radialGradient><radialGradient id="_Radial3" cx="0" cy="0" r="1" gradientUnits="userSpaceOnUse" gradientTransform="matrix(-4033.333333,0,-0,-4033.333333,1858.333333,1501.728087)"><stop offset="0" style="stop-color:#646464;stop-opacity:1"/><stop offset="1" style="stop-color:#646464;stop-opacity:0"/></radialGradient><radialGradient id="_Radial4" cx="0" cy="0" r="1" gradientUnits="userSpaceOnUse" gradientTransform="matrix(-4033.333333,0,-0,-4033.333333,1858.333333,1501.728087)"><stop offset="0" style="stop-color:#646464;stop-opacity:1"/><stop offset="1" style="stop-color:#646464;stop-opacity:0"/></radialGradient><radialGradient id="_Radial5" cx="0" cy="0" r="1" gradientUnits="userSpaceOnUse" gradientTransform="matrix(-4033.333333,0,-0,-4033.333333,1858.333333,1501.728087)"><stop offset="0" style="stop-color:#646464;stop-opacity:1"/><stop offset="1" style="stop-color:#646464;stop-opacity:0"/></radialGradient><radialGradient id="_Radial6" cx="0" cy="0" r="1" gradientUnits="userSpaceOnUse" gradientTransform="matrix(-4033.333333,0,-0,-4033.333333,1858.333333,1501.728087)"><stop offset="0" style="stop-color:#646464;stop-opacity:1"/><stop offset="1" style="stop-color:#646464;stop-opacity:0"/></radialGradient><radialGradient id="_Radial7" cx="0" cy="0" r="1" gradientUnits="userSpaceOnUse" gradientTransform="matrix(-4033.333333,0,-0,-4033.333333,1858.333333,1501.728087)"><stop offset="0" style="stop-color:#646464;stop-opacity:1"/><stop offset="1" style="stop-color:#646464;stop-opacity:0"/></radialGradient><radialGradient id="_Radial8" cx="0" cy="0" r="1" gradientUnits="userSpaceOnUse" gradientTransform="matrix(-4033.333333,0,-0,-4033.333333,1858.333333,1501.728087)"><stop offset="0" style="stop-color:#646464;stop-opacity:1"/><stop offset="1" style="stop-color:#646464;stop-opacity:0"/></radialGradient><radialGradient id="_Radial9" cx="0" cy="0" r="1" gradientUnits="userSpaceOnUse" gradientTransform="matrix(-4033.333333,0,-0,-4033.333333,1858.333333,1501.728087)"><stop offset="0" style="stop-color:#646464;stop-opacity:1"/><stop offset="1" style="stop-color:#646464;stop-opacity:0"/></radialGradient><radialGradient id="_Radial10" cx="0" cy="0" r="1" gradientUnits="userSpaceOnUse" gradientTransform="matrix(-4033.333333,0,-0,-4033.333333,1858.333333,1501.728087)"><stop offset="0" style="stop-color:#646464;stop-opacity:1"/><stop offset="1" style="stop-color:#646464;stop-opacity:0"/></radialGradient><radialGradient id="_Radial11" cx="0" cy="0" r="1" gradientUnits="userSpaceOnUse" gradientTransform="matrix(-4033.333333,0,-0,-4033.333333,1858.333333,1501.728087)"><stop offset="0" style="stop-color:#646464;stop-opacity:1"/><stop offset="1" style="stop-color:#646464;stop-opacity:0"/></radialGradient><radialGradient id="_Radial12" cx="0" cy="0" r="1" gradientUnits="userSpaceOnUse" gradientTransform="matrix(-4033.333333,0,-0,-4033.333333,1858.333333,1501.728087)"><stop offset="0" style="stop-color:#646464;stop-opacity:1"/><stop offset="1" style="stop-color:#646464;stop-opacity:0"/></radialGradient><radialGradient id="_Radial15" cx="0" cy="0" r="1" gradientUnits="userSpaceOnUse" gradientTransform="matrix(4000,0,0,2250,3858.333333,1733.333333)"><stop offset="0" style="stop-color:#1e1e1e;stop-opacity:1"/><stop offset="1" style="stop-color:#191919;stop-opacity:1"/></radialGradient><radialGradient id="_Radial16" cx="0" cy="0" r="1" gradientUnits="userSpaceOnUse" gradientTransform="matrix(-4033.333333,0,-0,-4033.333333,3891.666667,1501.728087)"><stop offset="0" style="stop-color:#646464;stop-opacity:1"/><stop offset="1" style="stop-color:#646464;stop-opacity:0"/></radialGradient><radialGradient id="_Radial17" cx="0" cy="0" r="1" gradientUnits="userSpaceOnUse" gradientTransform="matrix(-4033.333333,0,-0,-4033.333333,3891.666667,1501.728087)"><stop offset="0" style="stop-color:#646464;stop-opacity:1"/><stop offset="1" style="stop-color:#646464;stop-opacity:0"/></radialGradient><radialGradient id="_Radial18" cx="0" cy="0" r="1" gradientUnits="userSpaceOnUse" gradientTransform="matrix(-4033.333333,0,-0,-4033.333333,3891.666667,1501.728087)"><stop offset="0" style="stop-color:#646464;stop-opacity:1"/><stop offset="1" style="stop-color:#646464;stop-opacity:0"/></radialGradient><radialGradient id="_Radial19" cx="0" cy="0" r="1" gradientUnits="userSpaceOnUse" gradientTransform="matrix(-4033.333333,0,-0,-4033.333333,3891.666667,1501.728087)"><stop offset="0" style="stop-color:#646464;stop-opacity:1"/><stop offset="1" style="stop-color:#646464;stop-opacity:0"/></radialGradient><radialGradient id="_Radial20" cx="0" cy="0" r="1" gradientUnits="userSpaceOnUse" gradientTransform="matrix(-4033.333333,0,-0,-4033.333333,3891.666667,1501.728087)"><stop offset="0" style="stop-color:#646464;stop-opacity:1"/><stop offset="1" style="stop-color:#646464;stop-opacity:0"/></radialGradient><radialGradient id="_Radial21" cx="0" cy="0" r="1" gradientUnits="userSpaceOnUse" gradientTransform="matrix(-4033.333333,0,-0,-4033.333333,3891.666667,1501.728087)"><stop offset="0" style="stop-color:#646464;stop-opacity:1"/><stop offset="1" style="stop-color:#646464;stop-opacity:0"/></radialGradient><radialGradient id="_Radial22" cx="0" cy="0" r="1" gradientUnits="userSpaceOnUse" gradientTransform="matrix(-4033.333333,0,-0,-4033.333333,3891.666667,1501.728087)"><stop offset="0" style="stop-color:#646464;stop-opacity:1"/><stop offset="1" style="stop-color:#646464;stop-opacity:0"/></radialGradient><radialGradient id="_Radial23" cx="0" cy="0" r="1" gradientUnits="userSpaceOnUse" gradientTransform="matrix(-4033.333333,0,-0,-4033.333333,3891.666667,1501.728087)"><stop offset="0" style="stop-color:#646464;stop-opacity:1"/><stop offset="1" style="stop-color:#646464;stop-opacity:0"/></radialGradient></defs></svg>