<?xml version="1.0" encoding="UTF-8" standalone="no"?><!DOCTYPE svg PUBLIC "-//W3C//DTD SVG 1.1//EN" "http://www.w3.org/Graphics/SVG/1.1/DTD/svg11.dtd"><svg width="100%" height="100%" viewBox="0 0 6946 6946" version="1.1" xmlns="http://www.w3.org/2000/svg" xmlns:xlink="http://www.w3.org/1999/xlink" xml:space="preserve" xmlns:serif="http://www.serif.com/" style="fill-rule:evenodd;clip-rule:evenodd;stroke-linejoin:round;stroke-miterlimit:2;"><g><clipPath id="_clip1"><rect x="663.976" y="0" width="5616.494" height="6944.446"/></clipPath><g clip-path="url(#_clip1)"><g><rect x="3848.557" y="20.102" width="63.799" height="6905.451" style="fill:#119bcf;"/><g id="g48"><g id="g46"><path id="path42" d="M709.446,5160.875l2.277,-490.922l1287.472,-1247.97l1.341,-1.057c130.079,-108.138 226.788,-205.433 287.602,-289.418c57.169,-78.976 86.15,-160.61 86.15,-242.77c0,-117.793 -37.579,-209.26 -114.809,-279.637c-77.43,-70.498 -181.867,-106.234 -310.303,-106.234c-123.799,0 -225.377,34.418 -310.382,105.051c-82.533,68.515 -122.621,170.447 -122.621,311.56l0,45.233l-801.224,0l0,-45.233c0,-224.87 54.93,-425.112 163.454,-595.186c108.291,-169.781 258.79,-301.802 447.379,-392.388c187.053,-89.758 396.723,-135.205 623.436,-135.205c171.504,0 333.194,24.972 480.591,74.209c148.343,49.553 279.683,122.351 390.405,216.271c111.592,94.665 199.576,211.262 261.653,346.546c62.197,135.144 93.645,284.744 93.645,444.669c0,135.088 -30.94,262.635 -92.034,378.976c-59.683,113.734 -142.337,225.205 -245.521,331.21c-101.378,104.209 -227.016,219.572 -373.357,342.938l-612.016,523.236l1394.981,0l0,706.196l-2538.114,0l-0,-0.074l-0.005,0Z" style="fill:#fff;fill-rule:nonzero;"/><path id="path44" d="M1949.25,1841.937c167.5,0 322.942,24.008 466.257,71.895c143.436,47.924 268.571,117.123 375.484,207.882c106.876,90.642 190.196,200.838 249.758,330.922c59.721,129.963 89.604,271.96 89.604,425.819c0,128.277 -28.939,247.696 -86.853,357.97c-57.877,110.335 -137.151,217.23 -237.858,320.745c-100.596,103.417 -224.004,216.741 -370.07,339.87l-705.419,602.947l1472.211,0l0,615.731l-2447.449,0l1.965,-426.522l1272.588,-1233.422c133.617,-111.136 232.053,-210.396 295.265,-297.663c63.217,-87.202 94.86,-176.983 94.86,-269.311c0,-130.061 -43.189,-234.367 -129.567,-313.11c-86.383,-78.571 -200.014,-118.049 -340.773,-118.049c-133.543,0 -246.657,38.501 -339.325,115.517c-92.626,76.997 -138.915,192.43 -138.915,346.327l-710.759,0c0,-217.253 52.146,-407.444 156.387,-570.922c104.209,-163.338 247.207,-288.613 428.845,-375.871c181.639,-87.193 382.984,-130.754 603.766,-130.754m0,-90.466c-233.506,0 -449.809,47.016 -642.989,139.702c-196.364,94.274 -353.105,231.834 -465.95,408.817c-113.198,177.514 -170.521,385.95 -170.521,619.53l0,90.461l891.685,0l0,-90.461c0,-126.802 34.749,-217.328 106.248,-276.769c76.606,-63.655 168.678,-94.651 281.485,-94.651c118.459,0 209.981,30.899 279.916,94.511c67.221,61.313 99.93,141.839 99.93,246.187c0,73.422 -25.442,144.097 -77.705,216.201c-58.464,80.908 -152.658,175.47 -279.753,281.173l-2.672,2.202l-2.477,2.356l-1272.588,1233.482l-27.328,26.504l-0.163,38.128l-1.918,426.485l-0.475,90.936l2628.938,0l0,-796.671l-1317.63,0l519.148,-443.682c147.011,-123.915 273.715,-240.414 376.155,-345.601c106.169,-109.227 191.415,-224.218 253.138,-341.792c64.553,-122.858 97.258,-257.435 97.258,-400.023c0,-166.466 -32.905,-322.402 -97.845,-463.613c-64.707,-141.331 -156.741,-263.189 -273.394,-362.132c-115.084,-97.709 -251.527,-173.296 -405.284,-224.651c-152.267,-50.847 -318.785,-76.625 -495.2,-76.625l-0.009,-0.005Z" style="fill:#fff;fill-rule:nonzero;"/></g></g><g id="Clip"><g id="g1165"><g id="Clip1" serif:id="Clip"><g id="g71"><g><path id="path65_1_" d="M5851.792,1469.953c0,389.711 -315.926,705.591 -705.587,705.591c-389.688,0 -705.61,-315.88 -705.61,-705.591c0,-389.665 315.917,-705.577 705.61,-705.577c389.665,0 705.587,315.912 705.587,705.577" style="fill:#119bcf;fill-rule:nonzero;"/><path d="M5146.206,2195.652c-400.158,0 -725.712,-325.549 -725.712,-725.698c0,-400.144 325.554,-725.68 725.712,-725.68c400.149,0 725.694,325.54 725.694,725.68c0,400.149 -325.549,725.698 -725.694,725.698Zm0,-1411.173c-377.993,-0 -685.507,307.505 -685.507,685.47c0,377.975 307.514,685.489 685.507,685.489c377.975,0 685.479,-307.514 685.479,-685.489c0,-377.97 -307.505,-685.47 -685.479,-685.47Z" style="fill:#119bcf;fill-rule:nonzero;"/></g><g><path id="path67_1_" d="M3978.142,1610.908l1219.385,929.069c0,0 42.523,23.343 49.12,122.249l191.257,850.452l804.209,593.324c0,0 130.833,428.217 -311.169,385.573l-829.26,-616.359c0,0 -50.843,-38.841 -85.75,-151.643l-158.194,-685.587l-889.995,1048.231l810.796,1114.115c0,0 178.059,243.953 -19.707,448.319l-824.083,804.297l0,-837.235l191.182,-158.277c0,0 52.733,-39.53 0,-98.822l-191.182,-237.346l0,-3507.253l43.389,-3.119" style="fill:#119bcf;fill-rule:nonzero;"/><path d="M3914.651,6500.652l0,-894.395l199.227,-164.912c-0.009,0 13.748,-10.959 15.251,-27.691c1.155,-12.77 -4.977,-26.802 -18.217,-41.681l-0.638,-0.754l-195.624,-242.877l0,-3533.049l62.053,-4.46l1.439,20.07l12.179,-15.992l1218.543,928.417c9.893,6.234 50.773,37.733 57.742,135.978l189.269,841.648l803.529,592.817l1.932,6.355c2.523,8.231 60.48,203.035 -38.478,324.097c-58.161,71.173 -157.09,100.517 -293.836,87.36l-5.573,-0.535l-833.748,-619.707c-2.495,-1.904 -56.578,-44.25 -92.961,-161.839l-0.386,-1.425l-149.199,-646.574l-853.841,1005.652l801.485,1101.331c1.867,2.556 185.638,260.079 -21.504,474.134l-858.636,838.021l-0.009,0.009Zm40.209,-875.498l0,780.079l789.93,-770.968c183.473,-189.609 19.19,-419.781 17.509,-422.086l-807.439,-1109.506l0,1011.504l186.434,231.453c20.908,23.655 30.261,48.017 27.803,72.416c-3.254,32.356 -26.206,51.671 -30.633,55.107l-183.608,152.002l0.005,0Zm1983.547,-1153.082c119.614,10.596 204.809,-14.046 253.231,-73.18c76.443,-93.361 41.518,-248.096 32.947,-280.838l-804.646,-593.65l-1.639,-7.309l-191.597,-851.979l-0.107,-1.555c-5.615,-84.278 -38.887,-106.029 -39.218,-106.238l-2.02,-1.355l-1213.366,-924.479l-17.123,1.229l0,2437.612l913.464,-1075.88l167.034,723.869c32.16,103.44 78.194,140.652 78.655,141.015l824.395,612.737l-0.009,0Z" style="fill:#119bcf;fill-rule:nonzero;"/></g><g><rect id="path69_1_" x="3843.552" y="20.102" width="127.523" height="6904.241" style="fill:#119bcf;"/><path d="M3991.173,6944.446l-167.733,0l0,-6944.446l167.733,0l0,6944.446Zm-127.523,-40.209l87.314,0l0,-6864.027l-87.314,0l0,6864.027Z" style="fill:#119bcf;fill-rule:nonzero;"/></g></g></g></g></g></g></g></g></svg>