<?xml version="1.0" encoding="UTF-8" standalone="no"?>
<!DOCTYPE svg PUBLIC "-//W3C//DTD SVG 1.1//EN" "http://www.w3.org/Graphics/SVG/1.1/DTD/svg11.dtd">
<svg width="100%" height="100%" viewBox="0 0 228 228" version="1.1" xmlns="http://www.w3.org/2000/svg" xmlns:xlink="http://www.w3.org/1999/xlink" xml:space="preserve" xmlns:serif="http://www.serif.com/" style="fill-rule:evenodd;clip-rule:evenodd;stroke-linejoin:round;stroke-miterlimit:2;">
    <g>
        <g id="Square">
            <rect x="-0.001" y="0" width="227.87" height="227.87" style="fill:none;"/>
            <g id="Wallace">
                <g>
                    <g id="path3221">
                        <path d="M99.085,92.467C76.393,98.971 88.773,102.381 99.297,92.522L99.085,92.467ZM103.806,93.672C100.842,97.064 97.048,99.746 92.666,101.385C87.497,103.318 81.944,103.649 76.698,102.451L72.029,116.043L56.547,119.797C53.798,120.405 52.062,123.127 52.67,125.876C53.279,128.624 56,130.36 58.749,129.752L77.124,125.237C78.841,124.815 80.2,123.614 80.732,122.057L81.955,118.476L88.391,136.924L70.853,153.151C70.424,153.548 70.065,154.031 69.793,154.571L55.775,182.368C54.271,185.314 55.44,188.923 58.386,190.427C61.333,191.931 64.941,190.762 66.446,187.816L79.57,162.167L103.366,140.111L110.176,163.576C111.014,166.463 113.766,168.271 116.665,167.931L125.734,166.868L125.734,154.802L120.844,155.39L112.704,126.473L105.018,104.506L113.167,106.6L115.854,122.658C116.354,125.429 119.004,127.27 121.775,126.771C124.545,126.272 126.387,123.621 125.888,120.85L122.732,101.721C122.399,99.7 120.996,98.059 119.134,97.584L103.806,93.672Z" style="fill:#fe7a02;fill-rule:nonzero;"/>
                    </g>
                    <g id="path3223">
                        <path d="M76.838,91.678L91.094,86.321L93.583,71.294L81.815,61.624L67.556,66.981L65.065,82.008L76.838,91.678Z" style="fill:#fe7a02;fill-rule:nonzero;"/>
                    </g>
                    <g id="path3231">
                        <rect x="127.856" y="36.786" width="3.376" height="147.798" style="fill:#fe7a02;"/>
                    </g>
                    <g id="path3233">
                        <path d="M125.734,46.7L100.315,56.207C93.158,49.67 82.937,47.695 73.853,51.091C66.18,53.961 60.323,60.301 58.07,68.177L82.11,59.185L95.798,70.462L92.87,87.949L68.83,96.942C75.699,101.405 84.282,102.346 91.95,99.476C101.034,96.079 107.45,87.883 108.565,78.252L125.734,71.827L125.734,46.7Z" style="fill:#fe7a02;fill-rule:nonzero;"/>
                    </g>
                </g>
                <g id="g28557">
                    <path id="path28553" d="M156.999,106.973C165.897,106.973 175.318,102.131 175.318,89.831L175.318,85.382L164.851,85.382L164.851,88.392C164.851,94.149 161.579,97.16 156.999,97.16C152.419,97.16 149.147,94.149 149.147,88.392L149.147,57.813C149.147,52.056 152.419,49.046 156.999,49.046C161.579,49.046 164.851,52.056 164.851,57.813L164.851,60.824L175.318,60.824L175.318,56.374C175.318,44.074 165.897,39.232 156.999,39.232C148.101,39.232 138.68,44.074 138.68,56.374L138.68,89.831C138.68,102.131 148.101,106.973 156.999,106.973Z" style="fill:#fff;fill-rule:nonzero;"/>
                    <path id="path28555" d="M175.318,181.365L175.318,171.551L149.147,171.551L149.147,151.423L173.36,151.423L173.36,141.608L149.147,141.608L149.147,124.749L175.318,124.749L175.318,114.935L141.295,114.935C139.726,114.935 138.68,115.982 138.68,117.552L138.68,181.365L175.318,181.365Z" style="fill:#fff;fill-rule:nonzero;"/>
                </g>
            </g>
        </g>
    </g>
</svg>
