<?xml version="1.0" encoding="UTF-8" standalone="no"?>
<!DOCTYPE svg PUBLIC "-//W3C//DTD SVG 1.1//EN" "http://www.w3.org/Graphics/SVG/1.1/DTD/svg11.dtd">
<svg width="100%" height="100%" viewBox="0 0 87 87" version="1.1" xmlns="http://www.w3.org/2000/svg" xmlns:xlink="http://www.w3.org/1999/xlink" xml:space="preserve" xmlns:serif="http://www.serif.com/" style="fill-rule:evenodd;clip-rule:evenodd;stroke-linejoin:round;stroke-miterlimit:2;">
    <rect x="-0" y="0" width="86.924" height="86.924" style="fill:none;"/>
    <path d="M45.661,37.177C44.135,37.177 42.888,35.913 42.888,34.387C42.888,32.866 44.14,31.614 45.661,31.614C47.203,31.614 48.451,32.861 48.451,34.387C48.451,35.913 47.203,37.177 45.661,37.177M40.672,56.475L30.941,54.539L31.499,51.749L38.309,53.144L40.525,41.887L38.03,42.871L38.03,47.565L35.257,47.565L35.257,41.066L42.477,37.997L43.577,37.866C44.561,37.866 45.382,38.424 45.924,39.261L47.335,41.476C48.451,43.462 50.666,44.808 53.308,44.808L53.308,47.565C50.256,47.565 47.466,46.202 45.661,44.118L44.84,48.287L47.745,51.06L47.745,61.513L44.972,61.513L44.972,53.144L42.051,50.371L40.672,56.475M58.231,61.513L54.949,61.513L54.949,28.693L33.616,28.693L33.616,50.207L30.334,49.517L30.334,25.411L58.231,25.411L58.231,61.513M33.616,61.513L30.334,61.513L30.334,56.229L33.616,56.918L33.616,61.513Z" style="fill:#fff;fill-rule:nonzero;"/>
</svg>
