<?xml version="1.0" encoding="UTF-8" standalone="no"?>
<!DOCTYPE svg PUBLIC "-//W3C//DTD SVG 1.1//EN" "http://www.w3.org/Graphics/SVG/1.1/DTD/svg11.dtd">
<svg width="100%" height="100%" viewBox="0 0 87 87" version="1.1" xmlns="http://www.w3.org/2000/svg" xmlns:xlink="http://www.w3.org/1999/xlink" xml:space="preserve" xmlns:serif="http://www.serif.com/" style="fill-rule:evenodd;clip-rule:evenodd;stroke-linejoin:round;stroke-miterlimit:2;">
    <rect x="0" y="0" width="86.924" height="86.924" style="fill:none;"/>
    <path d="M34.551,27.423L30.987,27.423L30.987,38.116L34.551,38.116L34.551,27.423M55.937,27.423L52.373,27.423L52.373,45.244L55.937,45.244L55.937,27.423M27.423,45.244L30.987,45.244L30.987,59.501L34.551,59.501L34.551,45.244L38.116,45.244L38.116,41.68L27.423,41.68L27.423,45.244M48.808,34.551L45.244,34.551L45.244,27.423L41.68,27.423L41.68,34.551L38.116,34.551L38.116,38.116L48.808,38.116L48.808,34.551M41.68,59.501L45.244,59.501L45.244,41.68L41.68,41.68L41.68,59.501M48.808,48.808L48.808,52.373L52.373,52.373L52.373,59.501L55.937,59.501L55.937,52.373L59.501,52.373L59.501,48.808L48.808,48.808Z" style="fill:#fff;fill-rule:nonzero;"/>
</svg>
